<?xml version="1.0" encoding="UTF-8"?>
<!DOCTYPE svg PUBLIC "-//W3C//DTD SVG 1.1//EN" "http://www.w3.org/Graphics/SVG/1.1/DTD/svg11.dtd">
<!-- Creator: CorelDRAW X7 -->
<svg xmlns="http://www.w3.org/2000/svg" xml:space="preserve" width="210mm" height="297mm" version="1.1" style="shape-rendering:geometricPrecision; text-rendering:geometricPrecision; image-rendering:optimizeQuality; fill-rule:evenodd; clip-rule:evenodd"
viewBox="0 0 21000 29700"
 xmlns:xlink="http://www.w3.org/1999/xlink">
 <defs>
  <style type="text/css">
   <![CDATA[
    .str0 {stroke:#97ECF8;stroke-width:7.62}
    .fil1 {fill:#00C5CA;fill-rule:nonzero}
    .fil0 {fill:#2F3448;fill-rule:nonzero}
    .fil2 {fill:#97ECF8;fill-rule:nonzero}
    .fil3 {fill:#B66A55;fill-rule:nonzero}
   ]]>
  </style>
 </defs>
 <g id="Layer_x0020_1">
  <metadata id="CorelCorpID_0Corel-Layer"/>
  <path class="fil0" d="M9247 16037c-24,-40 -62,-66 -104,-79 -1,0 -1,0 -1,0 -4,-1 -9,-3 -14,-4 -26,-126 -58,-315 -47,-455 1,-1 1,-2 1,-3 27,-3 53,-8 79,-13 7,-1 13,-2 20,-4 26,-5 51,-12 77,-19 10,-3 20,-6 30,-9 29,-9 56,-19 84,-30 0,0 0,0 0,0 22,-9 44,-19 66,-30 6,-3 12,-6 18,-9 17,-8 34,-17 50,-27 5,-2 10,-5 14,-8 21,-12 41,-24 60,-37 5,-3 10,-7 15,-10 1,-1 2,-2 4,-3 81,61 166,159 224,230 0,1 -1,1 -1,2 -1,2 -3,4 -4,6 -1,1 -1,2 -2,3 -3,4 -5,9 -7,14 -1,1 -1,2 -2,3 -1,1 -1,3 -2,4 0,2 -1,4 -2,6 0,1 -1,3 -1,4 -1,2 -1,4 -2,6 0,1 0,3 -1,4 0,2 0,4 -1,6 0,2 0,3 0,5 0,1 0,3 0,5 0,2 0,3 0,5 0,1 0,3 0,5 0,1 0,3 1,4 0,2 0,4 1,6 0,1 0,2 1,4 0,2 1,3 2,5 0,1 1,3 1,4 1,2 2,3 3,5 1,1 2,3 2,4 1,1 3,3 4,5 1,1 2,2 3,3 1,2 3,3 4,5 1,1 2,2 4,3 1,1 3,3 5,4 2,1 3,2 4,3 2,2 5,3 7,5 2,0 3,1 4,2 4,2 8,4 13,5 0,0 0,0 0,0 6,3 12,4 18,6 1,0 2,0 3,0 6,1 12,2 18,2 1,0 1,0 2,0 118,1 237,-174 110,-221 -9,-3 -19,-6 -28,-7 0,0 0,0 0,0 0,0 -1,0 -1,0 -24,-3 -48,1 -71,9 0,0 0,0 0,0 -3,2 -7,3 -10,5 -68,-57 -163,-142 -225,-224 12,-10 25,-21 37,-31 2,-2 4,-4 5,-5 17,-15 33,-30 48,-45 6,-5 11,-11 17,-16 12,-13 24,-26 36,-39 5,-5 9,-10 14,-15 15,-17 29,-34 43,-52 5,-6 9,-12 14,-18 10,-13 20,-27 30,-40 4,-7 9,-14 14,-21 12,-17 23,-35 34,-53 3,-5 6,-10 10,-16 6,-10 12,-21 18,-32 127,40 274,122 377,184 -1,1 -1,2 -1,3 -1,3 -2,6 -3,10 0,1 0,2 0,4 -2,7 -3,13 -3,20 -1,2 -1,3 -1,4 0,2 0,5 0,7 0,2 0,5 0,7 0,3 0,5 0,7 0,2 0,5 1,7 0,2 0,4 1,6 0,3 0,5 1,8 0,2 1,4 1,5 1,3 2,5 2,7 1,2 2,4 2,6 1,2 2,4 3,6 1,2 2,4 3,5 1,3 2,5 4,7 1,1 2,3 3,4 1,2 3,4 4,6 2,1 3,3 4,4 2,2 4,3 6,5 1,1 3,3 4,4 2,1 5,3 7,4 1,1 3,2 5,3 2,1 5,3 7,4 2,1 4,2 6,2 3,1 6,2 9,3 2,1 4,1 6,2 3,1 7,1 11,2 1,0 3,1 5,1 6,1 12,1 18,2 0,0 0,0 0,0 9,0 17,-1 25,-2 1,0 3,0 4,0 8,-2 16,-4 24,-6 0,0 1,-1 2,-1 146,-52 215,-319 38,-321 -14,0 -26,1 -38,4 0,0 0,0 0,0 -32,7 -60,22 -84,43 0,0 0,0 0,0 -4,3 -8,6 -11,10 -113,-42 -275,-108 -388,-185 41,-96 72,-197 88,-300 6,-41 11,-83 13,-126 102,-16 238,-5 333,7 0,0 0,1 1,1 0,3 0,6 1,8 0,1 0,2 1,3 1,5 2,11 4,16 0,0 1,1 1,2 1,2 1,4 2,5 1,2 1,4 2,5 1,2 2,3 2,5 1,1 2,3 3,5 1,1 2,2 3,4 1,1 2,3 3,4 1,2 2,3 3,4 1,1 2,3 3,4 1,1 2,2 4,3 1,2 2,3 4,4 1,1 2,2 3,3 2,1 3,2 5,3 1,0 2,1 3,2 2,1 4,2 5,2 2,1 3,1 4,2 2,1 4,1 6,2 1,0 2,1 4,1 2,0 4,1 6,1 1,0 3,0 4,0 2,1 5,1 7,1 1,0 3,0 4,-1 3,0 5,0 7,0 2,0 3,-1 5,-1 3,0 6,-1 8,-2 2,0 3,0 4,-1 5,-1 9,-3 14,-5 6,-2 11,-5 16,-8 1,-1 2,-2 3,-2 5,-4 10,-7 14,-12 1,0 1,0 2,-1 9,-9 17,-20 24,-31 0,0 0,0 0,0 52,-94 10,-253 -100,-204 -9,4 -17,9 -25,15 0,0 0,0 0,0 0,0 0,0 0,0 -19,15 -34,34 -44,56 0,0 -1,0 -1,0 -1,4 -2,7 -4,10 -96,8 -238,13 -342,-7 -4,-166 -38,-336 -102,-491 96,-102 267,-203 387,-266 0,0 1,1 1,1 3,3 5,5 8,7 1,1 2,2 3,3 5,5 11,10 17,14 0,0 1,1 2,2 2,1 4,2 6,3 2,2 4,3 6,4 2,1 4,2 6,3 2,1 4,3 7,4 1,0 3,1 5,2 3,1 5,2 7,3 2,0 4,1 6,1 2,1 5,1 7,2 2,0 4,1 6,1 2,0 4,1 7,1 2,0 4,0 5,0 3,0 5,0 8,0 2,0 3,0 5,0 3,-1 5,-1 7,-2 2,0 4,0 6,-1 2,0 5,-1 7,-2 2,-1 4,-1 6,-2 2,-1 4,-2 7,-3 1,-1 3,-2 5,-3 2,-1 4,-3 7,-5 1,-1 3,-2 5,-3 2,-2 4,-4 7,-6 1,-2 3,-3 4,-4 3,-3 5,-6 8,-9 1,-1 2,-2 3,-4 4,-5 8,-9 11,-15 4,-7 8,-14 11,-22 1,-1 1,-2 2,-4 3,-7 5,-15 7,-23 0,-1 0,-1 0,-2 30,-152 -165,-348 -257,-196 -7,11 -12,23 -16,35 0,0 0,0 0,0 0,0 0,0 0,0 -10,30 -11,62 -6,94 0,0 0,0 0,0 1,5 2,9 3,14 -100,82 -254,199 -385,253 -85,-151 -202,-280 -353,-361 42,-94 120,-201 178,-274 3,1 6,2 9,3 0,0 0,0 0,0 7,3 14,5 21,6 0,0 0,0 0,0 6,2 13,2 19,2 1,0 1,0 2,0 6,1 12,0 17,-1 1,0 2,0 3,0 5,-1 11,-3 16,-5 1,-1 1,-1 2,-1 5,-3 10,-5 14,-9 1,-1 1,-1 2,-2 4,-3 8,-8 12,-13 0,0 1,-1 1,-2 4,-5 7,-11 9,-17 1,-1 1,-2 1,-2 3,-7 5,-15 6,-24 1,-6 1,-13 1,-19 0,-1 0,-2 0,-3 0,-6 -1,-12 -2,-18 0,-1 0,-1 0,-2 -26,-115 -222,-193 -240,-59 -2,10 -2,20 -1,29 0,0 0,0 0,0 2,25 12,48 25,68 0,0 0,0 0,0 2,3 4,6 6,9 -44,87 -116,214 -190,292 -125,-50 -254,-89 -385,-112 -4,-135 31,-308 60,-429 1,0 2,0 3,0 3,0 7,0 10,0 2,0 3,-1 4,-1 8,-1 15,-2 22,-3 1,-1 2,-1 3,-1 2,0 4,-1 6,-2 3,-1 5,-1 7,-2 2,-1 4,-1 6,-2 3,-1 5,-2 7,-3 2,-1 4,-2 6,-3 2,-1 4,-2 6,-3 2,-1 4,-2 5,-3 2,-2 4,-3 6,-4 2,-2 3,-3 5,-4 2,-1 4,-3 5,-5 2,-1 3,-2 4,-4 2,-1 4,-3 5,-5 1,-2 2,-3 3,-5 2,-2 3,-4 4,-6 1,-1 2,-3 3,-5 1,-2 2,-4 3,-6 1,-2 2,-4 2,-6 1,-2 2,-5 3,-7 0,-2 1,-4 1,-6 1,-3 1,-6 1,-8 0,-2 1,-4 1,-6 0,-3 0,-7 0,-10 0,-2 0,-4 0,-6 0,-3 -1,-7 -1,-11 -1,-2 -1,-4 -1,-5 -1,-6 -2,-12 -4,-18 -2,-8 -6,-16 -9,-23 -1,-2 -1,-3 -2,-4 -4,-7 -8,-14 -13,-21 0,0 -1,-1 -1,-1 -94,-124 -370,-109 -318,61 4,13 10,24 16,35l0 0c0,0 0,0 0,0 16,28 39,50 66,67 0,0 0,0 0,0 5,3 9,5 13,7 -5,125 -20,308 -62,441 -194,-20 -387,-3 -568,59 0,0 0,0 0,0 -38,-86 -67,-194 -85,-274 1,0 1,0 2,-1 2,-1 4,-2 6,-3 1,-1 2,-2 3,-2 5,-3 9,-6 13,-9 1,-1 2,-2 2,-2 2,-1 3,-2 4,-4 2,-1 3,-2 4,-4 2,-1 3,-2 4,-3 1,-2 2,-3 4,-4 1,-2 1,-3 2,-4 2,-2 3,-3 4,-5 1,-1 1,-2 2,-3 1,-2 2,-4 3,-5 0,-2 1,-3 2,-4 0,-2 1,-4 2,-6 0,-1 1,-2 1,-4 1,-1 1,-3 2,-5 0,-1 0,-3 0,-4 1,-2 1,-4 1,-6 0,-1 0,-2 0,-4 0,-2 0,-4 0,-6 0,-1 0,-3 0,-4 -1,-2 -1,-4 -1,-6 -1,-1 -1,-3 -1,-4 -1,-2 -2,-4 -2,-6 -1,-2 -1,-3 -2,-5 -1,-2 -2,-4 -3,-6 -1,-2 -1,-3 -2,-4 -2,-3 -3,-5 -5,-7 -1,-2 -1,-3 -2,-4 -3,-4 -6,-7 -9,-11 -4,-5 -9,-9 -14,-13 -1,0 -2,-1 -3,-2 -5,-3 -10,-6 -15,-9 -1,0 -1,-1 -2,-1 -106,-53 -289,52 -196,150 7,7 14,13 22,19 0,0 0,0 0,0 21,13 44,21 68,23 1,0 1,0 1,0 3,0 7,0 11,0 34,77 78,186 100,283 -74,32 -144,72 -212,121l0 0c-18,13 -36,27 -54,42 -4,3 -8,6 -12,10 -18,15 -36,30 -53,47 -21,20 -42,41 -61,63 -2,-1 -4,-2 -6,-4 -100,-75 -201,-181 -273,-262 1,-1 1,-1 2,-2 1,-3 3,-6 5,-9 1,-1 1,-2 2,-4 3,-6 6,-12 9,-18 0,-1 1,-2 2,-4 0,-2 1,-4 2,-6 1,-3 1,-5 2,-7 1,-2 1,-4 2,-6 0,-3 1,-5 1,-8 1,-2 1,-4 1,-6 1,-2 1,-5 1,-7 0,-2 0,-4 0,-6 1,-3 1,-5 1,-8 0,-1 -1,-3 -1,-5 0,-3 0,-5 -1,-7 0,-2 0,-4 -1,-6 0,-2 -1,-5 -1,-7 -1,-2 -2,-4 -2,-5 -1,-3 -2,-5 -3,-7 -1,-2 -1,-3 -2,-5 -2,-2 -3,-4 -4,-7 -1,-1 -2,-3 -3,-4 -2,-2 -4,-4 -5,-6 -2,-2 -3,-3 -4,-5 -2,-2 -4,-4 -6,-6 -2,-1 -3,-2 -5,-4 -2,-1 -5,-3 -8,-5 -1,-1 -3,-2 -5,-3 -3,-2 -6,-4 -9,-6 -2,-1 -4,-1 -5,-2 -6,-3 -11,-5 -17,-7 -8,-3 -16,-5 -24,-6 -2,0 -3,0 -4,-1 -9,-1 -17,-1 -25,-1 0,0 -1,0 -2,0 -155,7 -300,242 -130,296 12,4 25,7 37,8 0,0 0,0 0,0 32,2 64,-4 93,-17 0,0 0,0 0,0 4,-2 9,-4 13,-6 90,68 214,169 300,270 -98,135 -167,292 -205,456 -87,-29 -180,-76 -248,-113 1,-1 1,-2 1,-3 1,-4 2,-8 2,-12 1,-4 1,-7 1,-11 1,-4 1,-8 1,-12 -1,-3 -1,-6 -1,-9 0,-4 -1,-8 -2,-12 -1,-3 -1,-6 -2,-9 -1,-3 -3,-6 -4,-10 -2,-2 -3,-5 -4,-7 -2,-4 -5,-7 -7,-9 -2,-2 -4,-5 -6,-7 -3,-2 -6,-4 -10,-7 -2,-1 -4,-3 -7,-4 -4,-2 -9,-4 -14,-5 -2,-1 -5,-2 -7,-2 -8,-2 -17,-3 -27,-3 -6,0 -12,1 -19,2 -1,0 -2,0 -3,1 -6,1 -12,3 -17,5 -1,0 -1,0 -2,1 -12,5 -24,12 -34,20 -83,68 -104,230 17,226 10,0 19,-2 29,-5 0,1 -1,1 -1,1 4,-1 7,-3 10,-4 12,-4 23,-9 33,-16 0,0 1,-1 1,-1 4,-3 8,-6 12,-9 2,-3 5,-4 7,-7 3,-2 5,-5 7,-7 80,25 191,64 277,112 -8,53 -14,107 -16,162 -1,17 -1,35 -1,53 0,18 0,35 1,53 2,35 5,71 9,106 3,22 6,44 10,67 0,0 -1,0 -1,1 -126,53 -306,84 -432,99 -1,0 -1,-1 -1,-2 -2,-3 -3,-6 -4,-9 -1,-1 -2,-3 -2,-4 -4,-6 -7,-12 -11,-18 -1,-1 -1,-2 -2,-3 -1,-2 -3,-4 -4,-5 -1,-3 -3,-5 -4,-7 -2,-1 -3,-3 -5,-4 -1,-2 -3,-4 -5,-6 -1,-1 -3,-3 -4,-4 -2,-2 -4,-3 -6,-5 -1,-1 -3,-2 -4,-3 -2,-2 -4,-3 -7,-5 -1,-1 -3,-2 -4,-3 -3,-1 -5,-2 -7,-3 -2,-1 -3,-2 -5,-2 -2,-1 -4,-2 -7,-3 -2,0 -3,-1 -5,-1 -3,-1 -5,-1 -7,-2 -2,0 -4,-1 -6,-1 -2,0 -5,0 -7,0 -2,0 -4,0 -6,0 -3,0 -5,0 -8,0 -2,1 -4,1 -6,1 -2,1 -5,1 -8,2 -2,0 -4,1 -6,1 -3,1 -6,3 -9,4 -1,0 -3,1 -5,2 -4,1 -7,3 -10,5 -2,1 -3,2 -5,3 -5,3 -10,6 -15,10 -7,5 -13,10 -19,16 -1,1 -2,2 -3,3 -5,6 -10,13 -14,20 -1,0 -1,1 -1,1 -82,132 30,384 170,275 11,-8 20,-17 27,-26 0,0 0,0 0,0 21,-25 33,-55 39,-86 0,0 0,0 0,-1 1,-4 2,-9 2,-14 122,-41 306,-94 447,-99 1,4 2,8 4,13 10,33 22,67 35,99 26,66 59,129 97,188 20,30 40,59 62,87 11,14 23,27 34,40 12,14 25,28 38,42 -65,52 -140,102 -199,137 0,0 -1,0 -1,-1 -2,-2 -4,-3 -6,-5 -1,-1 -2,-1 -3,-2 -4,-4 -9,-7 -13,-10 -1,0 -2,-1 -2,-1 -2,-1 -4,-2 -5,-3 -2,-1 -4,-2 -5,-3 -2,0 -3,-1 -5,-2 -2,-1 -3,-1 -5,-2 -2,-1 -3,-1 -5,-2 -2,0 -3,-1 -5,-1 -2,-1 -3,-1 -5,-1 -2,-1 -4,-1 -5,-1 -2,-1 -3,-1 -5,-1 -2,0 -4,0 -6,0 -1,0 -3,0 -4,0 -2,0 -4,0 -6,0 -1,0 -3,0 -4,1 -2,0 -4,0 -6,1 -1,0 -2,1 -4,1 -2,1 -3,1 -5,2 -2,1 -3,1 -4,2 -2,1 -4,2 -6,3 -1,1 -2,1 -4,2 -1,1 -3,3 -5,4 -1,1 -2,2 -4,3 -1,2 -3,4 -5,5 -1,1 -2,2 -3,4 -2,2 -4,4 -6,7 -1,1 -1,2 -2,3 -3,4 -5,8 -8,12 -3,6 -6,12 -8,18 0,1 0,2 -1,3 -2,6 -3,12 -4,18 0,1 0,1 0,2 -17,120 145,264 210,141 4,-9 8,-18 10,-27 0,0 0,0 0,0 7,-25 6,-50 1,-74 -1,0 -1,0 -1,0 0,-4 -1,-8 -3,-11 54,-50 130,-115 205,-166 58,52 120,99 187,140 38,23 77,44 118,63 3,108 -45,264 -82,368 -4,-1 -7,-1 -10,-1 0,0 0,0 -1,0 -7,0 -14,0 -21,1 0,0 0,0 0,0 -7,1 -13,3 -19,4 -1,1 -1,1 -2,1 -5,2 -11,4 -16,7 -1,0 -1,1 -2,1 -5,3 -9,6 -13,10 -1,0 -2,1 -3,2 -3,3 -7,7 -10,12 0,1 -1,2 -1,3 -3,4 -5,10 -7,15 0,1 -1,2 -1,3 -2,6 -3,13 -3,20 0,0 0,1 0,2 0,7 0,15 2,24 1,6 3,12 5,18 0,1 0,2 1,3 2,6 5,11 8,17 0,0 0,1 1,1 61,102 271,113 246,-21 -2,-9 -5,-19 -9,-27l0 0c0,0 0,0 0,0 -10,-23 -26,-42 -45,-57 0,0 0,0 0,0 -3,-2 -6,-4 -9,-6 15,-103 45,-258 95,-356 56,21 113,38 170,52 69,15 140,26 210,30 32,2 64,3 96,2 42,132 51,320 52,451 0,0 -1,1 -2,1 -3,1 -6,2 -10,3 -1,0 -2,1 -3,1 -7,3 -14,6 -21,9 -1,1 -1,1 -2,1 -2,2 -4,3 -6,4 -2,1 -4,2 -6,4 -2,1 -4,2 -6,3 -2,2 -4,3 -6,5 -1,1 -3,2 -4,4 -2,1 -4,3 -6,5 -1,1 -3,2 -4,4 -2,2 -3,4 -5,5 -1,2 -2,3 -3,5 -2,2 -3,4 -5,6 -1,2 -1,3 -2,5 -2,2 -3,4 -4,6 0,2 -1,4 -2,5 -1,3 -1,5 -2,7 -1,2 -1,4 -2,6 0,2 -1,5 -1,7 0,2 -1,4 -1,6 0,2 0,5 0,8 0,2 0,3 0,5 0,3 1,6 1,9 0,2 0,4 1,6 0,3 1,6 2,9 0,2 1,4 2,6 1,3 2,7 3,10 1,2 2,4 3,5 2,6 5,11 8,17 4,7 9,14 14,20 1,1 2,2 3,3 5,6 11,12 17,17 1,0 1,1 2,1 121,97 385,15 293,-137z"/>
  <path class="fil1" d="M8195 13253c-413,391 -495,1083 -187,1561 309,477 974,686 1500,471 398,-163 695,-546 763,-971 72,-458 -119,-1048 -571,-1235 -503,-207 -1086,-224 -1505,174z"/>
  <path class="fil1" d="M9508 15285c284,-116 516,-344 651,-620 -85,65 -178,120 -277,160 -526,215 -1191,6 -1500,-471 -227,-352 -242,-821 -68,-1200 -41,30 -81,62 -119,99 -413,391 -495,1083 -187,1561 309,477 974,686 1500,471z"/>
  <path class="fil2" d="M10060 14401c-106,217 643,442 643,442l-71 147c0,0 -641,-448 -746,-230l174 -359z"/>
  <path class="fil2" d="M10611 15072c181,6 291,-328 92,-330 -192,-2 -302,323 -92,330z"/>
  <path class="fil2" d="M10763 14891c41,-43 -16,-144 -61,-96 -43,47 13,146 61,96z"/>
  <path class="fil2" d="M10711 15039c-10,2 -21,3 -32,2 -166,-6 -131,-211 -14,-295 -167,37 -249,319 -54,326 37,1 71,-12 100,-33z"/>
  <path class="fil2" d="M9331 15175c-240,24 -35,779 -35,779l-161 17c0,0 40,-781 -199,-754l395 -42z"/>
  <path class="fil2" d="M9053 15997c91,157 432,74 329,-96 -99,-164 -433,-86 -329,96z"/>
  <path class="fil2" d="M9288 16030c58,13 113,-89 49,-102 -63,-12 -117,88 -49,102z"/>
  <path class="fil2" d="M9135 16064c-7,-7 -14,-16 -19,-25 -83,-145 110,-224 243,-168 -120,-123 -403,-43 -306,126 19,32 48,54 82,67z"/>
  <path class="fil2" d="M8454 14991c-112,-151 -537,289 -537,289l-76 -101c0,0 540,-286 426,-437l187 249z"/>
  <path class="fil2" d="M7791 15134c-69,124 124,320 196,183 71,-133 -116,-326 -196,-183z"/>
  <path class="fil2" d="M7862 15305c15,44 106,40 89,-8 -17,-47 -106,-43 -89,8z"/>
  <path class="fil2" d="M7778 15216c3,-8 6,-16 10,-23 63,-114 194,-16 210,96 35,-130 -133,-288 -207,-155 -14,26 -17,54 -13,82z"/>
  <path class="fil2" d="M8072 14605c-52,-236 -778,55 -778,55l-36 -158c0,0 781,-50 727,-285l87 388z"/>
  <path class="fil2" d="M7223 14424c-145,108 -23,437 134,316 152,-118 35,-441 -134,-316z"/>
  <path class="fil2" d="M7166 14513c7,-8 15,-16 23,-22 134,-99 235,83 195,222 108,-133 -4,-405 -161,-289 -29,22 -48,54 -57,89z"/>
  <path class="fil2" d="M9908 13460c133,202 707,-329 707,-329l90 135c0,0 -711,325 -576,526l-221 -332z"/>
  <path class="fil2" d="M10766 13326c97,-152 -135,-416 -238,-247 -99,164 125,424 238,247z"/>
  <path class="fil2" d="M10687 13104c-16,-58 -132,-60 -113,3 18,61 131,63 113,-3z"/>
  <path class="fil2" d="M10788 13223c-4,10 -8,20 -14,29 -90,140 -249,5 -261,-138 -54,163 147,377 253,212 20,-31 26,-67 22,-103z"/>
  <path class="fil2" d="M9012 13110c238,35 225,-747 225,-747l161 23c0,0 -231,747 8,780l-394 -56z"/>
  <path class="fil2" d="M9483 12381c-49,-174 -401,-177 -343,13 56,183 399,189 343,-13z"/>
  <path class="fil2" d="M9264 12291c-54,-26 -132,59 -73,87 58,27 135,-56 73,-87z"/>
  <path class="fil2" d="M9420 12296c5,9 9,19 12,29 45,161 -161,190 -277,104 86,148 380,140 328,-48 -10,-36 -33,-64 -63,-85z"/>
  <path class="fil2" d="M8132 13665c166,-176 -484,-611 -484,-611l110 -119c0,0 482,616 645,438l-271 292z"/>
  <path class="fil2" d="M7802 12862c-171,-59 -374,228 -185,289 183,58 384,-220 185,-289z"/>
  <path class="fil2" d="M7604 12991c-52,29 -27,142 30,109 55,-32 31,-143 -30,-109z"/>
  <path class="fil2" d="M7697 12865c10,1 21,3 31,7 157,54 64,240 -73,286 171,14 332,-232 147,-296 -35,-12 -71,-9 -105,3z"/>
  <path class="fil2" d="M10147 13984c-5,185 587,104 587,104l-3 124c0,0 -587,-108 -591,76l7 -304z"/>
  <path class="fil2" d="M10742 14276c128,-53 99,-320 -40,-259 -134,59 -108,320 40,259z"/>
  <path class="fil2" d="M10791 14102c15,-43 -57,-95 -73,-47 -15,46 55,97 73,47z"/>
  <path class="fil2" d="M10801 14221c-6,4 -13,8 -21,12 -117,48 -158,-106 -103,-201 -105,79 -73,301 65,244 26,-11 46,-31 59,-55z"/>
  <path class="fil2" d="M9769 14913c-132,128 348,483 348,483l-88 87c0,0 -346,-487 -477,-357l217 -213z"/>
  <path class="fil2" d="M9992 15537c129,51 294,-161 152,-214 -138,-51 -300,155 -152,214z"/>
  <path class="fil2" d="M10148 15446c41,-21 26,-108 -19,-85 -43,23 -28,108 19,85z"/>
  <path class="fil2" d="M10073 15539c-8,-2 -16,-4 -24,-7 -118,-47 -40,-186 66,-216 -130,-16 -261,166 -123,221 27,10 54,10 81,2z"/>
  <path class="fil2" d="M7966 14118c73,-169 -506,-314 -506,-314l49 -114c0,0 505,319 577,149l-120 279z"/>
  <path class="fil2" d="M7522 13626c-138,2 -210,261 -59,255 147,-5 219,-256 59,-255z"/>
  <path class="fil2" d="M7413 13770c-31,34 17,109 49,71 31,-37 -15,-111 -49,-71z"/>
  <path class="fil2" d="M7447 13655c8,-1 16,-2 24,-3 127,-1 108,157 21,225 126,-34 179,-252 30,-251 -28,1 -54,12 -75,29z"/>
  <path class="fil2" d="M8733 15198c-179,-46 -232,549 -232,549l-121 -31c0,0 237,-548 58,-592l295 74z"/>
  <path class="fil2" d="M8316 15713c22,136 289,167 260,19 -27,-144 -287,-177 -260,-19z"/>
  <path class="fil2" d="M8474 15799c39,25 105,-34 63,-60 -42,-25 -107,32 -63,60z"/>
  <path class="fil2" d="M8356 15783c-3,-7 -6,-15 -7,-24 -21,-125 138,-130 219,-55 -53,-120 -277,-138 -252,9 4,28 19,52 40,70z"/>
  <path class="fil2" d="M9524 13130c154,101 395,-445 395,-445l104 67c0,0 -399,444 -244,543l-255 -165z"/>
  <path class="fil2" d="M10084 12775c22,-136 -221,-251 -242,-100 -19,145 217,258 242,100z"/>
  <path class="fil2" d="M9961 12643c-29,-35 -111,-1 -78,37 31,37 111,4 78,-37z"/>
  <path class="fil2" d="M10068 12696c0,8 0,17 -1,25 -20,125 -173,79 -225,-17 12,130 218,219 242,71 4,-28 -3,-55 -16,-79z"/>
  <path class="fil2" d="M8479 13242c175,-57 -99,-587 -99,-587l117 -39c0,0 96,589 271,530l-289 96z"/>
  <path class="fil2" d="M8554 12584c-93,-103 -334,14 -230,124 101,107 337,-6 230,-124z"/>
  <path class="fil2" d="M8374 12597c-46,0 -71,85 -21,84 49,-2 73,-84 21,-84z"/>
  <path class="fil2" d="M8482 12546c7,5 13,10 18,17 86,94 -46,184 -154,164 109,72 308,-33 208,-143 -19,-21 -45,-33 -72,-38z"/>
  <path class="fil2" d="M9419 13324c1,-23 -1,-48 -14,-67 -13,-21 -38,-33 -62,-36 -25,-2 -49,3 -72,12 -88,34 -154,117 -169,210 -15,97 70,221 178,162 89,-48 137,-187 139,-281z"/>
  <path class="fil2" d="M9217 14749c30,8 63,14 92,5 31,-11 55,-38 67,-69 12,-30 13,-64 9,-97 -13,-124 -97,-239 -212,-289 -120,-53 -309,14 -270,173 31,131 194,241 314,277z"/>
  <path class="fil2" d="M8804 13526c3,-36 1,-75 -17,-106 -20,-33 -57,-53 -95,-59 -37,-5 -76,2 -112,14 -138,47 -247,171 -275,314 -30,150 94,347 265,264 140,-69 224,-281 234,-427z"/>
  <path class="fil2" d="M9055 13768c-15,-13 -32,-25 -52,-26 -20,-2 -41,7 -55,22 -15,14 -24,33 -30,53 -24,75 -5,161 48,219 55,61 180,70 198,-30 15,-83 -50,-187 -109,-238z"/>
  <path class="fil2" d="M8492 14133c-17,6 -34,14 -44,29 -11,15 -13,36 -8,54 5,18 16,34 29,48 48,53 126,77 196,61 73,-16 137,-111 66,-171 -59,-50 -171,-46 -239,-21z"/>
  <path class="fil2" d="M9920 13714c-17,-44 -41,-88 -83,-112 -45,-25 -105,-25 -158,-6 -54,18 -101,52 -142,90 -155,145 -229,360 -185,545 47,194 323,342 501,133 147,-173 137,-474 67,-650z"/>
  <path class="fil2" d="M8235 13380c-17,70 -29,140 -35,212l203 -219c-40,44 -101,40 -168,7z"/>
  <path class="fil2" d="M10129 14723c-44,-7 -88,-16 -131,-16 -22,0 -43,3 -63,11 -10,5 -19,10 -27,17 -8,7 -15,16 -22,25 4,-11 10,-21 17,-30 8,-9 17,-16 27,-22 11,-5 22,-9 33,-11 12,-3 23,-4 35,-4 23,0 45,3 67,8 22,6 43,13 64,22z"/>
  <path class="fil2" d="M10060 14401c-8,22 -8,44 -2,64 6,21 16,40 30,57 13,17 29,33 45,48 17,14 33,29 49,45 -19,-12 -38,-24 -57,-37 -18,-14 -34,-30 -48,-48 -14,-18 -26,-39 -30,-62 -2,-12 -2,-24 0,-35 2,-11 7,-22 13,-32z"/>
  <path class="fil2" d="M9085 15369c-9,-17 -17,-34 -26,-51 -9,-17 -18,-34 -30,-48 -11,-15 -24,-28 -40,-38 -16,-9 -34,-14 -53,-15 18,-5 40,-3 58,5 19,9 34,23 47,39 24,32 37,70 44,108z"/>
  <path class="fil2" d="M9331 15175c-19,5 -37,14 -50,27 -14,14 -24,30 -32,48 -8,17 -13,36 -18,55 -5,19 -9,39 -14,58 -1,-20 0,-40 3,-60 3,-20 8,-40 16,-59 9,-19 21,-37 38,-50 16,-13 37,-20 57,-19z"/>
  <path class="fil3 str0" d="M10184 13600c-20,30 -42,59 -55,91 -7,16 -11,33 -12,50 0,17 4,34 12,51 -13,-14 -21,-32 -23,-51 -2,-19 3,-38 10,-56 15,-34 39,-63 68,-85z"/>
  <path class="fil2" d="M9908 13460c13,15 29,26 47,32 18,6 36,8 55,6 19,0 38,-4 57,-8 19,-4 38,-9 57,-14 -34,20 -72,34 -113,37 -20,1 -41,-2 -60,-11 -19,-8 -35,-24 -43,-42z"/>
  <path class="fil2 str0" d="M9297 12960c4,21 7,42 11,63 4,20 9,40 16,60 7,19 16,37 30,52 13,14 31,25 52,31 -22,0 -44,-8 -60,-23 -17,-15 -28,-35 -35,-56 -8,-20 -12,-41 -14,-63 -2,-21 -2,-42 0,-64z"/>
  <path class="fil2" d="M9012 13110c21,0 41,-5 58,-16 17,-10 31,-25 43,-41 12,-17 23,-35 32,-53 10,-19 19,-38 28,-57 -4,21 -10,42 -18,61 -7,20 -17,40 -30,57 -13,18 -29,34 -50,43 -20,10 -43,12 -63,6z"/>
  <path class="fil2" d="M8132 13665c15,-20 22,-43 22,-67 -1,-23 -9,-46 -18,-68 -19,-44 -48,-84 -75,-125 36,34 67,73 88,119 10,23 17,49 16,74 -2,26 -14,51 -33,67z"/>
  <path class="fil2" d="M10284 14188c-31,11 -61,19 -88,33 -14,7 -26,15 -36,26 -10,12 -17,25 -20,41 -3,-16 1,-33 11,-47 10,-15 24,-25 38,-33 15,-7 31,-13 47,-16 15,-3 32,-4 48,-4z"/>
  <path class="fil2" d="M10147 13984c3,16 8,30 17,41 9,11 21,21 34,28 25,15 54,25 83,37 -16,0 -31,-3 -47,-7 -15,-4 -30,-9 -44,-18 -14,-8 -27,-19 -35,-34 -8,-14 -11,-31 -8,-47z"/>
  <path class="fil2" d="M9735 15162c-31,-16 -60,-33 -91,-44 -15,-5 -31,-9 -47,-8 -15,1 -31,6 -45,16 10,-14 26,-24 44,-27 18,-3 36,0 53,6 17,6 32,14 46,23 15,10 28,21 40,34z"/>
  <path class="fil2" d="M9769 14913c-11,15 -17,31 -17,48 -1,17 4,34 9,50 12,33 31,63 47,95 -25,-25 -47,-55 -60,-90 -6,-18 -10,-37 -7,-56 2,-19 13,-37 28,-47z"/>
  <path class="fil2" d="M7855 13861c42,8 83,18 124,20 20,1 41,0 60,-5 19,-6 36,-19 47,-37 -6,20 -22,39 -43,47 -21,9 -43,10 -65,9 -43,-2 -84,-15 -123,-34z"/>
  <path class="fil2" d="M7966 14118c5,-19 3,-38 -4,-55 -8,-17 -20,-31 -33,-45 -27,-27 -59,-49 -90,-73 37,14 72,35 100,63 14,15 27,31 33,51 7,20 4,43 -6,59z"/>
  <path class="fil2" d="M8141 14982c35,-36 70,-70 99,-109 14,-19 27,-40 34,-62 8,-22 6,-47 -7,-69 8,9 16,20 18,33 2,6 2,13 2,19 0,7 -1,13 -2,20 -5,25 -19,48 -33,68 -31,40 -69,73 -111,100z"/>
  <path class="fil2" d="M8454 14991c-16,-17 -38,-26 -60,-26 -23,0 -45,6 -67,14 -43,15 -84,38 -127,59 37,-31 77,-57 122,-73 23,-8 47,-13 72,-11 25,2 49,16 60,37z"/>
  <path class="fil2" d="M7840 14387c18,-11 35,-21 52,-32 17,-11 33,-22 47,-36 15,-13 27,-28 36,-45 8,-17 11,-37 10,-57 7,19 7,41 0,61 -7,21 -21,38 -36,52 -32,28 -70,46 -109,57z"/>
  <path class="fil2" d="M8072 14605c-7,-19 -18,-35 -33,-47 -15,-12 -32,-20 -51,-26 -18,-6 -37,-9 -57,-12 -19,-3 -39,-5 -59,-7 20,-3 40,-5 60,-4 20,0 41,3 61,9 19,7 39,16 54,32 15,15 24,35 25,55z"/>
  <path class="fil2" d="M8505 15241c-7,-24 -11,-47 -21,-68 -4,-11 -10,-20 -18,-29 -7,-8 -17,-15 -28,-20 12,0 25,4 36,12 10,8 18,19 23,31 6,12 9,24 10,37 1,12 0,25 -2,37z"/>
  <path class="fil2" d="M8733 15198c-14,0 -28,2 -39,6 -12,5 -23,12 -32,21 -20,17 -35,39 -53,61 4,-14 9,-26 17,-39 7,-12 15,-23 26,-33 11,-9 24,-17 38,-20 15,-4 30,-2 43,4z"/>
  <path class="fil2 str0" d="M9772 13114c-8,32 -18,63 -21,95 -1,16 -1,31 3,46 5,15 13,29 25,40 -15,-6 -28,-20 -35,-36 -7,-16 -8,-34 -7,-51 2,-17 6,-34 12,-50 6,-15 14,-30 23,-44z"/>
  <path class="fil2" d="M9524 13130c15,6 29,8 44,7 14,-2 27,-7 40,-14 27,-13 50,-32 75,-50 -8,13 -18,25 -30,35 -11,11 -24,21 -38,28 -14,7 -31,13 -47,12 -17,0 -33,-7 -44,-18z"/>
  <path class="fil2" d="M8605 13002c21,34 40,69 65,98 12,15 26,28 42,37 17,9 36,13 56,9 -18,10 -41,10 -60,2 -20,-9 -36,-23 -49,-39 -26,-31 -43,-68 -54,-107z"/>
  <path class="fil2" d="M8479 13242c18,-9 31,-23 39,-39 7,-17 11,-36 12,-54 3,-38 -2,-76 -5,-116 14,37 22,76 19,117 -1,20 -6,40 -16,58 -11,18 -29,31 -49,34z"/>
  <path class="fil2" d="M8127 13313c45,26 88,53 135,71 24,9 48,16 73,16 24,-1 49,-9 68,-27 -15,21 -41,35 -68,38 -27,2 -53,-4 -78,-13 -49,-19 -92,-50 -130,-85z"/>
  <path class="fil2" d="M7218 14660c-6,60 102,103 106,37 5,-63 -100,-106 -106,-37z"/>
  <path class="fil0" d="M13478 13868c-15,-25 -38,-40 -64,-49 0,0 0,0 0,0 -3,-1 -5,-1 -8,-2 -17,-77 -36,-193 -29,-280 0,0 0,-1 0,-1 17,-2 33,-5 49,-8 4,-1 8,-1 12,-2 16,-4 31,-8 47,-12 6,-2 13,-4 19,-6 17,-5 34,-11 51,-18 0,0 0,0 0,0 14,-6 27,-12 40,-18 4,-2 8,-4 11,-6 11,-5 21,-11 31,-16 3,-2 6,-4 9,-5 13,-8 25,-15 37,-23 3,-2 6,-4 9,-6 0,-1 1,-1 2,-2 50,37 102,97 138,141 0,0 -1,1 -1,1 -1,1 -2,3 -3,4 0,0 0,1 -1,2 -1,2 -3,5 -4,8 0,1 -1,1 -1,2 0,1 -1,2 -1,3 -1,1 -1,2 -1,3 -1,1 -1,2 -1,3 -1,1 -1,2 -1,3 0,1 -1,2 -1,3 0,1 0,2 0,4 -1,0 -1,1 -1,2 0,1 0,3 0,4 0,1 0,2 0,2 0,2 0,3 0,4 1,1 1,2 1,2 0,2 0,3 0,4 1,1 1,1 1,2 1,1 1,2 1,3 1,1 1,2 1,3 1,1 1,2 2,3 0,1 1,2 1,2 1,1 2,2 3,3 0,1 1,2 1,2 1,1 2,2 3,3 1,1 1,2 2,2 1,1 2,2 4,3 0,0 1,1 2,2 1,1 3,1 4,2 1,1 2,1 3,2 2,1 5,2 7,3 0,0 0,0 0,0 4,2 8,3 11,3 1,1 2,1 2,1 4,0 8,1 12,1 0,0 0,0 1,0 72,0 145,-107 67,-136 -6,-2 -11,-3 -17,-4 0,0 0,0 0,0 0,0 0,0 0,0 -15,-2 -30,0 -44,6 0,0 0,0 0,0 -2,1 -4,1 -6,2 -42,-34 -100,-87 -138,-137 7,-6 15,-13 22,-19 2,-1 3,-2 4,-3 10,-9 20,-18 29,-28 4,-3 7,-6 10,-10 8,-7 15,-15 22,-23 3,-3 6,-6 9,-9 9,-11 18,-22 27,-33 2,-3 5,-7 8,-10 6,-9 12,-17 18,-25 3,-4 6,-9 9,-13 7,-11 14,-21 21,-32 2,-3 4,-7 6,-10 3,-7 7,-13 11,-20 78,25 168,75 231,113 0,1 0,1 0,2 -1,2 -1,4 -2,6 0,1 0,1 0,2 -1,4 -2,9 -2,13 0,1 0,1 -1,2 0,2 0,3 0,4 0,2 0,4 0,5 0,1 0,3 0,4 1,1 1,3 1,5 0,1 0,2 0,3 1,2 1,3 1,5 0,1 1,2 1,3 0,2 1,3 1,5 1,1 1,2 1,3 1,1 2,3 2,4 1,1 1,2 2,3 1,1 1,3 2,4 1,1 1,2 2,3 1,1 2,2 3,3 1,1 2,2 2,3 1,1 3,2 4,3 1,0 1,1 2,2 2,1 3,2 4,3 1,0 2,1 3,2 2,0 4,1 5,2 1,0 2,1 4,1 1,1 3,1 5,2 1,0 2,1 4,1 2,1 4,1 6,1 1,1 2,1 4,1 3,1 7,1 11,1 0,0 0,0 0,0 5,0 10,0 15,-1 1,0 2,0 3,0 4,-1 9,-2 14,-4 0,0 1,0 1,0 90,-32 132,-196 23,-197 -8,0 -15,0 -23,2 0,0 0,0 0,0 -19,4 -36,14 -51,26 0,0 0,1 0,1 -3,1 -5,3 -7,6 -69,-26 -169,-66 -238,-114 25,-59 44,-120 54,-184 4,-25 7,-51 8,-77 63,-10 146,-3 204,4 1,0 1,1 1,1 0,2 0,3 1,5 0,1 0,1 0,2 1,3 2,6 3,9 0,1 0,1 0,2 1,1 1,2 1,3 1,1 1,2 2,3 0,1 1,2 1,3 1,1 1,2 2,3 0,1 1,1 1,2 1,1 2,2 2,3 1,1 2,2 2,2 1,1 2,2 2,3 1,1 2,1 2,2 1,1 2,1 3,2 1,1 1,1 2,2 1,0 2,1 3,2 0,0 1,0 2,1 1,0 2,1 3,1 1,1 2,1 2,1 2,1 3,1 4,1 1,1 2,1 2,1 2,0 3,1 4,1 1,0 2,0 3,0 1,0 2,0 4,0 1,0 2,0 3,0 1,0 2,0 4,0 1,0 2,-1 3,-1 1,0 3,0 5,-1 1,0 1,0 2,-1 3,0 6,-1 8,-2 4,-2 7,-4 11,-6 0,0 1,0 1,-1 3,-2 6,-4 9,-7 0,0 1,0 1,-1 6,-5 11,-12 15,-19 0,0 0,0 0,0 31,-58 6,-155 -61,-125 -6,3 -11,6 -16,9 0,0 0,0 0,0 0,0 0,0 0,0 -12,9 -21,21 -27,35 0,0 0,0 0,0 -1,2 -2,4 -3,6 -59,5 -146,8 -210,-5 -2,-101 -23,-206 -62,-301 59,-62 163,-124 237,-163 0,0 1,0 1,1 1,1 3,3 4,4 1,1 2,1 2,2 4,3 7,6 11,8 0,1 1,1 1,1 1,1 3,2 4,3 1,1 2,1 4,2 1,1 2,1 3,2 1,1 3,1 4,2 1,1 3,1 4,1 1,1 3,2 4,2 1,0 2,1 3,1 2,0 3,1 5,1 1,0 2,1 3,1 2,0 3,0 5,0 1,0 2,0 3,0 2,0 3,0 5,0 1,0 2,0 3,0 2,0 3,0 4,-1 2,0 3,0 4,0 1,-1 3,-1 4,-2 1,0 2,0 4,-1 1,0 2,-1 4,-2 1,0 2,-1 3,-2 1,0 3,-1 4,-2 1,-1 2,-2 3,-3 2,-1 3,-2 5,-3 1,-1 2,-2 2,-3 2,-1 3,-3 5,-5 1,-1 2,-2 2,-3 2,-2 5,-5 7,-9 3,-4 5,-9 7,-13 0,-1 0,-2 1,-3 1,-4 3,-9 4,-14 0,0 0,-1 0,-1 18,-93 -101,-214 -158,-120 -4,6 -7,14 -10,21 0,0 0,0 0,0 0,0 0,0 0,0 -6,19 -6,38 -3,58 0,0 0,0 0,0 1,3 1,5 2,8 -62,51 -156,123 -237,156 -51,-93 -123,-172 -216,-222 26,-58 73,-123 109,-168 2,1 4,1 6,2 0,0 0,0 0,0 4,2 8,3 12,4 1,0 1,0 1,0 4,1 8,1 11,1 1,0 1,0 1,0 4,0 8,0 11,-1 1,0 1,0 2,0 3,-1 6,-2 9,-3 1,0 1,0 2,-1 3,-1 6,-3 8,-5 1,0 1,-1 2,-1 2,-2 5,-5 7,-8 0,0 0,-1 1,-1 2,-3 4,-7 5,-11 0,0 1,-1 1,-1 1,-5 3,-9 3,-15 1,-4 1,-7 1,-11 0,-1 0,-2 0,-2 0,-4 0,-8 -1,-11 0,-1 0,-1 0,-1 -16,-71 -136,-119 -148,-37 0,6 0,12 0,18 0,0 0,0 0,0 1,15 7,29 15,42 0,0 0,0 0,0 2,2 3,3 4,5 -27,54 -71,132 -116,180 -77,-31 -157,-55 -237,-69 -2,-83 19,-189 37,-263 1,0 1,0 2,0 2,0 4,0 6,-1 1,0 2,0 3,0 4,0 9,-1 13,-2 0,0 1,0 2,0 1,-1 2,-1 4,-2 1,0 3,0 4,-1 1,0 2,-1 4,-1 1,-1 3,-1 4,-2 1,-1 2,-1 3,-2 2,0 3,-1 4,-2 1,0 2,-1 3,-2 2,-1 3,-1 4,-2 1,-1 2,-2 3,-2 1,-1 2,-2 3,-3 1,-1 2,-2 3,-3 1,-1 2,-2 3,-3 0,-1 1,-2 2,-3 1,-1 1,-2 2,-4 1,-1 1,-2 2,-3 0,-1 1,-2 2,-4 0,-1 1,-2 1,-3 1,-2 1,-3 1,-5 1,-1 1,-2 1,-3 1,-2 1,-4 1,-5 0,-2 0,-3 0,-4 0,-2 0,-4 0,-6 0,-1 0,-2 0,-4 0,-2 0,-4 0,-6 -1,-1 -1,-3 -1,-4 0,-3 -1,-7 -2,-11 -2,-5 -4,-9 -6,-14 0,-1 -1,-1 -1,-2 -2,-5 -5,-9 -8,-13 0,0 0,0 -1,-1 -57,-76 -226,-66 -194,38 2,8 5,15 9,21l0 0c0,0 0,1 0,1 10,17 24,30 41,40 0,0 0,0 0,0 2,2 5,3 8,5 -3,76 -12,189 -39,270 -118,-12 -237,-2 -348,37 0,0 0,0 0,0 -23,-53 -41,-119 -52,-168 0,-1 1,-1 1,-1 1,-1 3,-1 4,-2 1,-1 1,-1 2,-1 3,-2 5,-4 8,-6 0,0 1,-1 1,-1 1,-1 2,-2 3,-2 0,-1 1,-2 2,-3 1,0 1,-1 2,-2 1,-1 2,-2 3,-2 0,-1 1,-2 1,-3 1,-1 2,-2 2,-3 1,0 1,-1 2,-2 0,-1 1,-2 1,-3 1,-1 1,-2 2,-2 0,-1 0,-2 1,-4 0,0 0,-1 1,-2 0,-1 0,-2 1,-3 0,-1 0,-2 0,-3 0,-1 0,-2 0,-3 0,-1 1,-2 1,-3 0,-1 0,-2 -1,-3 0,-1 0,-2 0,-3 0,-1 0,-2 0,-4 -1,-1 -1,-1 -1,-2 0,-2 -1,-3 -1,-4 -1,-1 -1,-2 -1,-3 -1,-1 -1,-2 -2,-4 -1,-1 -1,-1 -1,-2 -1,-2 -2,-3 -3,-5 -1,0 -1,-1 -2,-2 -1,-2 -3,-4 -5,-6 -3,-3 -6,-6 -9,-8 0,-1 -1,-1 -1,-1 -3,-3 -7,-5 -10,-6 0,-1 -1,-1 -1,-1 -65,-32 -177,32 -120,92 4,5 9,8 14,12 0,0 0,0 0,0 12,8 26,12 41,14 0,0 0,0 0,0 3,0 5,0 7,0 21,47 48,114 61,174 -44,19 -88,43 -129,73l0 1c-12,8 -23,16 -34,25 -2,2 -4,4 -7,6 -11,10 -22,19 -32,29 -14,13 -26,26 -38,39 -1,-1 -2,-1 -4,-2 -61,-46 -123,-112 -167,-161 1,0 1,-1 1,-1 1,-2 2,-4 3,-6 1,0 1,-1 2,-2 2,-4 4,-8 5,-11 0,-1 1,-2 1,-3 1,-1 1,-2 1,-4 1,-1 1,-2 2,-4 0,-1 1,-2 1,-4 0,-1 1,-3 1,-4 0,-1 0,-3 0,-4 1,-1 1,-3 1,-5 0,-1 0,-2 0,-3 0,-2 0,-3 0,-5 0,-1 0,-2 0,-3 0,-2 0,-3 -1,-5 0,-1 0,-2 0,-3 0,-1 -1,-3 -1,-4 -1,-1 -1,-2 -1,-3 -1,-2 -1,-3 -2,-5 0,-1 -1,-2 -1,-3 -1,-1 -2,-2 -3,-4 0,-1 -1,-2 -2,-3 -1,-1 -2,-2 -3,-3 -1,-1 -1,-2 -2,-3 -1,-1 -3,-2 -4,-4 -1,0 -2,-1 -3,-2 -1,-1 -3,-2 -4,-3 -1,-1 -2,-2 -4,-2 -1,-2 -3,-3 -6,-4 -1,0 -2,-1 -3,-1 -3,-2 -6,-3 -10,-4 -5,-2 -10,-3 -15,-4 -1,0 -1,0 -2,0 -5,-1 -10,-1 -15,-1 -1,0 -1,0 -1,0 -95,4 -184,148 -81,181 8,3 16,4 23,5 0,0 0,0 0,0 20,2 39,-2 57,-10 0,0 0,0 0,0 3,-1 6,-3 8,-4 56,42 132,104 185,166 -61,83 -103,179 -126,279 -53,-18 -110,-46 -152,-69 0,-1 0,-1 0,-2 1,-2 1,-5 2,-7 0,-2 0,-5 0,-7 0,-2 0,-5 0,-7 0,-2 0,-4 0,-6 0,-2 -1,-5 -1,-7 -1,-2 -1,-4 -2,-5 0,-3 -1,-5 -2,-7 -1,-1 -2,-3 -3,-4 -1,-2 -2,-4 -4,-6 -1,-1 -2,-2 -3,-4 -2,-1 -4,-3 -6,-4 -2,-1 -3,-2 -5,-3 -2,-1 -5,-2 -8,-3 -2,0 -3,-1 -5,-1 -5,-1 -10,-2 -16,-2 -4,0 -8,1 -12,2 0,0 -1,0 -1,0 -4,1 -8,2 -11,3 -1,0 -1,0 -1,1 -8,3 -15,7 -21,12 -51,42 -64,141 10,139 6,-1 12,-2 18,-3 0,0 0,0 0,0 2,-1 4,-1 6,-2 7,-3 14,-6 20,-10 0,0 0,0 0,-1 3,-1 5,-3 8,-5 1,-2 3,-3 4,-4 2,-2 3,-3 5,-5 48,15 116,39 169,69 -5,33 -8,66 -10,99 0,11 0,22 0,33 0,11 0,21 1,32 0,22 2,44 5,65 2,14 4,28 6,41 0,0 0,1 -1,1 -77,33 -187,51 -265,61 0,0 0,-1 0,-1 -1,-2 -2,-4 -3,-6 0,-1 -1,-2 -1,-2 -2,-4 -4,-8 -6,-11 -1,-1 -1,-2 -2,-2 0,-1 -1,-3 -2,-4 -1,-1 -2,-2 -3,-3 -1,-1 -2,-2 -2,-3 -2,-1 -3,-3 -4,-4 -1,-1 -1,-1 -2,-2 -2,-1 -3,-2 -4,-3 -1,-1 -2,-2 -3,-2 -1,-1 -2,-2 -3,-3 -1,-1 -2,-1 -3,-2 -2,-1 -3,-1 -4,-2 -1,0 -2,-1 -4,-1 -1,-1 -2,-1 -4,-2 -1,0 -2,-1 -3,-1 -1,0 -3,0 -4,-1 -1,0 -3,0 -4,0 -1,0 -3,-1 -4,-1 -1,0 -3,0 -4,0 -1,0 -3,1 -5,1 -1,0 -2,0 -3,0 -2,1 -4,1 -5,1 -1,1 -3,1 -4,1 -2,1 -3,2 -5,2 -1,1 -3,1 -4,2 -2,1 -4,2 -6,3 -1,0 -2,1 -3,1 -3,2 -6,4 -9,7 -4,3 -8,6 -11,10 -1,0 -2,1 -2,2 -4,3 -7,7 -9,11 0,1 -1,1 -1,2 -50,80 19,235 105,168 6,-5 12,-10 16,-16 0,0 0,0 0,0 13,-16 21,-34 24,-53 0,0 0,0 0,0 1,-3 1,-6 2,-9 74,-25 187,-58 274,-61 0,3 1,6 2,8 6,21 13,41 21,61 17,40 37,79 60,116 12,18 25,36 38,53 7,8 14,16 21,25 7,8 15,17 23,25 -40,32 -86,62 -122,84 0,0 0,0 -1,0 -1,-1 -2,-3 -3,-4 -1,0 -1,-1 -2,-1 -3,-2 -5,-4 -8,-6 -1,0 -1,-1 -2,-1 -1,0 -1,-1 -2,-1 -1,-1 -3,-2 -4,-2 0,-1 -1,-1 -2,-1 -1,-1 -3,-1 -4,-2 -1,0 -2,0 -2,-1 -2,0 -3,0 -4,-1 -1,0 -2,0 -3,0 -1,-1 -2,-1 -3,-1 -1,0 -2,0 -3,0 -1,0 -2,-1 -3,-1 -1,0 -2,0 -3,0 -1,0 -2,1 -3,1 -1,0 -2,0 -3,0 -1,0 -2,0 -4,1 0,0 -1,0 -2,0 -1,1 -2,1 -3,2 -1,0 -2,0 -3,1 -1,0 -2,1 -3,2 -1,0 -2,1 -3,1 -1,1 -2,2 -3,3 -1,0 -2,1 -2,1 -1,1 -2,2 -3,4 -1,0 -2,1 -2,2 -2,1 -3,2 -4,4 0,1 -1,1 -1,2 -2,2 -4,5 -5,7 -2,4 -4,8 -5,11 0,1 0,1 -1,2 -1,4 -2,8 -2,11 0,1 0,1 0,1 -10,74 89,162 128,87 3,-5 6,-11 7,-17 0,0 0,0 0,0 4,-15 4,-30 0,-45 0,0 0,0 0,0 0,-2 -1,-5 -2,-7 33,-31 80,-71 126,-102 35,32 74,61 114,86 24,14 48,27 73,39 2,66 -28,162 -51,225 -2,0 -4,0 -6,0 0,0 0,0 0,0 -4,0 -9,0 -13,1 0,0 0,0 0,0 -4,0 -8,1 -12,2 0,1 -1,1 -1,1 -3,1 -7,2 -10,4 0,0 -1,0 -1,1 -3,1 -6,3 -8,6 -1,0 -1,0 -2,1 -2,2 -4,5 -6,7 0,1 0,1 -1,2 -2,3 -3,6 -4,10 0,0 0,1 0,1 -1,4 -2,8 -2,12 0,1 0,1 0,1 0,5 0,10 1,15 0,4 1,8 3,12 0,0 0,1 0,1 2,4 3,7 5,11 0,0 1,0 1,0 37,63 167,69 151,-12 -1,-6 -3,-12 -6,-17l0 0c0,0 0,0 0,0 -6,-14 -15,-26 -27,-35 0,0 0,0 0,0 -2,-1 -4,-2 -6,-4 10,-63 28,-158 59,-218 34,13 69,23 104,32 42,9 86,16 129,18 19,1 39,2 58,1 26,81 32,197 33,277 -1,0 -1,0 -1,1 -3,0 -5,1 -7,2 0,0 -1,0 -2,0 -4,2 -8,4 -12,6 -1,0 -1,0 -2,1 -1,0 -2,1 -4,2 -1,0 -2,1 -3,2 -2,1 -3,1 -4,2 -1,1 -2,2 -3,3 -1,1 -2,2 -3,2 -1,1 -3,2 -4,3 -1,1 -1,2 -2,3 -1,1 -2,2 -3,3 -1,1 -2,2 -2,3 -1,1 -2,3 -3,4 0,1 -1,2 -2,3 0,1 -1,2 -2,4 0,1 0,2 -1,3 0,1 -1,3 -1,4 -1,1 -1,2 -1,4 -1,1 -1,2 -1,4 0,1 0,2 -1,4 0,1 0,3 0,4 0,2 0,3 0,4 0,2 1,3 1,5 0,1 0,2 0,4 1,2 1,3 2,5 0,2 0,3 1,4 0,2 1,4 2,6 1,1 1,2 1,4 2,3 3,6 5,9 3,5 6,9 9,13 1,1 1,1 2,2 3,4 7,7 11,10 0,0 0,1 1,1 74,59 236,9 179,-84z"/>
  <path class="fil1" d="M12833 12160c-253,240 -304,665 -115,957 190,293 598,421 920,290 245,-100 427,-335 468,-596 45,-281 -72,-643 -350,-758 -308,-127 -666,-137 -923,107z"/>
  <path class="fil1" d="M13638 13407c175,-72 317,-212 400,-381 -52,40 -109,74 -170,99 -323,131 -731,3 -920,-290 -140,-216 -149,-503 -42,-736 -25,18 -50,39 -73,61 -253,240 -304,665 -115,957 190,293 598,421 920,290z"/>
  <path class="fil2" d="M13977 12864c-65,133 394,272 394,272l-43 89c0,0 -393,-274 -457,-141l106 -220z"/>
  <path class="fil2" d="M14315 13276c111,4 178,-201 57,-203 -118,-1 -185,198 -57,203z"/>
  <path class="fil2" d="M14408 13165c26,-27 -10,-88 -37,-59 -26,29 8,89 37,59z"/>
  <path class="fil2" d="M14377 13255c-7,2 -13,2 -20,2 -102,-4 -81,-130 -9,-181 -102,22 -153,196 -33,200 23,1 44,-7 62,-21z"/>
  <path class="fil2" d="M13530 13339c-147,15 -22,478 -22,478l-99 10c0,0 26,-479 -122,-462l243 -26z"/>
  <path class="fil2" d="M13360 13843c55,97 265,45 201,-59 -61,-100 -265,-52 -201,59z"/>
  <path class="fil2" d="M13503 13864c36,7 70,-55 30,-63 -38,-7 -71,54 -30,63z"/>
  <path class="fil2" d="M13410 13885c-5,-5 -9,-10 -12,-16 -51,-89 67,-137 149,-103 -73,-75 -247,-27 -187,77 11,20 29,33 50,42z"/>
  <path class="fil2" d="M12992 13226c-69,-93 -329,177 -329,177l-47 -62c0,0 331,-175 261,-267l115 152z"/>
  <path class="fil2" d="M12585 13314c-42,76 76,196 121,112 43,-81 -72,-200 -121,-112z"/>
  <path class="fil2" d="M12629 13419c9,27 65,24 54,-5 -10,-29 -65,-27 -54,5z"/>
  <path class="fil2" d="M12577 13364c2,-5 4,-9 6,-14 39,-70 119,-10 129,59 21,-80 -81,-177 -127,-95 -9,16 -10,33 -8,50z"/>
  <path class="fil2" d="M12758 12989c-32,-144 -477,34 -477,34l-22 -97c0,0 478,-31 445,-175l54 238z"/>
  <path class="fil2" d="M12237 12878c-89,66 -14,269 82,194 93,-72 21,-270 -82,-194z"/>
  <path class="fil2" d="M12202 12933c4,-5 9,-10 14,-14 82,-60 144,52 120,137 66,-82 -3,-249 -99,-178 -18,14 -29,33 -35,55z"/>
  <path class="fil2" d="M13884 12287c81,124 434,-202 434,-202l55 83c0,0 -436,199 -354,322l-135 -203z"/>
  <path class="fil2" d="M14410 12205c60,-94 -82,-256 -146,-152 -61,101 77,260 146,152z"/>
  <path class="fil2" d="M14362 12068c-10,-35 -81,-36 -70,2 11,38 81,39 70,-2z"/>
  <path class="fil2" d="M14424 12142c-3,6 -5,12 -9,17 -55,86 -153,4 -160,-84 -33,100 90,231 155,130 12,-19 16,-41 14,-63z"/>
  <path class="fil2" d="M13334 12072c146,22 138,-458 138,-458l99 14c0,0 -142,459 5,479l-242 -35z"/>
  <path class="fil2" d="M13623 11625c-30,-107 -246,-109 -210,8 34,112 245,116 210,-8z"/>
  <path class="fil2" d="M13489 11570c-33,-16 -81,36 -45,53 35,17 83,-34 45,-53z"/>
  <path class="fil2" d="M13585 11573c3,6 5,12 7,18 28,98 -99,116 -170,63 53,91 233,87 201,-29 -6,-22 -20,-39 -38,-52z"/>
  <path class="fil2" d="M12795 12413c101,-108 -298,-375 -298,-375l68 -73c0,0 296,378 396,269l-166 179z"/>
  <path class="fil2" d="M12592 11920c-105,-36 -229,140 -113,177 112,36 235,-135 113,-177z"/>
  <path class="fil2" d="M12471 11999c-33,18 -17,87 18,67 33,-19 19,-87 -18,-67z"/>
  <path class="fil2" d="M12527 11922c7,1 13,2 20,4 96,34 39,148 -45,176 104,8 204,-142 90,-182 -21,-7 -44,-6 -65,2z"/>
  <path class="fil2" d="M14031 12609c-4,113 359,63 359,63l-1 76c0,0 -361,-66 -363,47l5 -186z"/>
  <path class="fil2" d="M14396 12787c78,-32 60,-196 -25,-158 -82,36 -66,196 25,158z"/>
  <path class="fil2" d="M14425 12681c10,-27 -35,-58 -44,-29 -9,28 33,59 44,29z"/>
  <path class="fil2" d="M14432 12754c-4,3 -9,5 -13,7 -72,30 -97,-65 -64,-123 -64,48 -44,184 41,149 16,-6 28,-18 36,-33z"/>
  <path class="fil2" d="M13798 13178c-81,79 214,297 214,297l-54 53c0,0 -212,-299 -293,-219l133 -131z"/>
  <path class="fil2" d="M13936 13561c78,31 180,-99 92,-131 -84,-31 -184,95 -92,131z"/>
  <path class="fil2" d="M14031 13505c25,-12 16,-66 -11,-52 -27,14 -18,66 11,52z"/>
  <path class="fil2" d="M13985 13562c-5,-1 -10,-2 -14,-4 -73,-29 -25,-114 40,-132 -80,-11 -160,101 -75,135 16,6 33,6 49,1z"/>
  <path class="fil2" d="M12693 12691c45,-104 -311,-193 -311,-193l30 -70c0,0 310,196 354,91l-73 172z"/>
  <path class="fil2" d="M12420 12389c-85,1 -129,160 -36,156 90,-3 134,-157 36,-156z"/>
  <path class="fil2" d="M12353 12477c-18,21 11,67 30,44 20,-23 -8,-68 -30,-44z"/>
  <path class="fil2" d="M12374 12407c5,-1 10,-2 15,-2 78,-1 66,96 13,138 77,-21 110,-155 18,-154 -17,0 -33,7 -46,18z"/>
  <path class="fil2" d="M13163 13353c-110,-28 -142,337 -142,337l-74 -19c0,0 145,-336 35,-364l181 46z"/>
  <path class="fil2" d="M12907 13669c14,84 178,103 160,11 -17,-88 -176,-108 -160,-11z"/>
  <path class="fil2" d="M13004 13722c24,15 65,-21 39,-37 -26,-15 -66,19 -39,37z"/>
  <path class="fil2" d="M12932 13712c-2,-5 -4,-9 -4,-14 -13,-77 84,-81 134,-35 -33,-73 -170,-84 -155,6 3,17 12,32 25,43z"/>
  <path class="fil2" d="M13648 12085c95,61 243,-274 243,-274l64 42c0,0 -245,272 -150,333l-157 -101z"/>
  <path class="fil2" d="M13992 11867c13,-84 -136,-154 -148,-62 -12,89 132,159 148,62z"/>
  <path class="fil2" d="M13916 11786c-17,-22 -67,-1 -48,23 20,22 69,2 48,-23z"/>
  <path class="fil2" d="M13982 11819c0,4 0,10 -1,15 -12,76 -106,48 -138,-11 8,80 134,134 149,44 2,-17 -2,-34 -10,-48z"/>
  <path class="fil2" d="M13007 12153c108,-35 -61,-360 -61,-360l72 -24c0,0 59,362 166,326l-177 58z"/>
  <path class="fil2" d="M13053 11749c-57,-63 -205,9 -141,77 62,65 207,-4 141,-77z"/>
  <path class="fil2" d="M12943 11757c-28,0 -43,53 -13,52 30,-1 45,-52 13,-52z"/>
  <path class="fil2" d="M13009 11727c4,2 8,6 11,9 53,58 -28,114 -94,101 67,45 188,-20 127,-88 -12,-13 -27,-20 -44,-22z"/>
  <path class="fil2" d="M13584 12204c1,-15 -1,-30 -9,-42 -8,-12 -23,-20 -38,-21 -15,-2 -30,2 -44,7 -54,21 -95,72 -103,129 -10,59 43,135 109,99 54,-29 84,-115 85,-172z"/>
  <path class="fil2" d="M13460 13077c18,6 38,10 57,3 19,-6 33,-23 41,-41 7,-19 7,-40 5,-60 -8,-76 -60,-146 -130,-177 -74,-33 -189,8 -166,106 20,80 119,148 193,169z"/>
  <path class="fil2" d="M13207 12327c1,-22 1,-45 -11,-65 -12,-20 -35,-32 -58,-36 -23,-3 -47,1 -69,9 -85,29 -151,105 -169,193 -18,91 58,212 163,161 86,-42 138,-172 144,-262z"/>
  <path class="fil2" d="M13360 12476c-9,-8 -19,-15 -31,-16 -13,-1 -25,4 -34,13 -9,9 -15,21 -19,33 -14,46 -3,99 30,134 34,38 110,43 122,-18 9,-51 -31,-115 -68,-146z"/>
  <path class="fil2" d="M13015 12700c-10,3 -21,9 -27,18 -7,9 -8,22 -5,33 3,11 10,21 18,29 30,33 77,47 120,38 45,-10 85,-69 41,-105 -36,-31 -105,-28 -147,-13z"/>
  <path class="fil2" d="M13892 12443c-11,-27 -26,-54 -52,-69 -27,-15 -64,-15 -97,-4 -33,11 -61,32 -86,55 -96,89 -141,222 -114,335 28,119 198,210 307,81 90,-106 84,-290 42,-398z"/>
  <path class="fil2" d="M12858 12238c-11,43 -18,86 -22,130l125 -134c-25,27 -62,24 -103,4z"/>
  <path class="fil2" d="M14019 13062c-27,-5 -53,-10 -80,-10 -13,0 -26,2 -39,7 -5,3 -11,6 -16,10 -5,4 -9,10 -13,15 2,-6 5,-12 10,-18 4,-5 10,-10 16,-13 7,-4 14,-6 21,-7 7,-2 14,-3 21,-3 14,0 28,2 41,5 14,4 27,8 39,14z"/>
  <path class="fil2" d="M13977 12864c-5,14 -5,27 -1,40 3,12 10,24 18,34 8,11 18,20 28,30 10,8 20,17 30,27 -12,-7 -23,-14 -35,-22 -11,-9 -21,-18 -30,-29 -8,-12 -15,-24 -18,-39 -1,-7 -1,-14 0,-21 2,-7 4,-14 8,-20z"/>
  <path class="fil2" d="M13379 13458c-5,-10 -11,-21 -16,-31 -5,-11 -11,-21 -18,-30 -7,-9 -15,-17 -25,-23 -9,-5 -21,-9 -33,-9 12,-3 25,-2 36,3 12,5 21,14 29,24 15,20 23,43 27,66z"/>
  <path class="fil2" d="M13530 13339c-12,3 -23,9 -31,17 -8,8 -14,18 -19,29 -5,11 -9,22 -12,34 -3,12 -5,23 -8,36 -1,-13 0,-25 2,-38 1,-12 5,-24 10,-36 5,-11 12,-22 23,-30 10,-9 23,-13 35,-12z"/>
  <path class="fil3 str0" d="M14053 12373c-12,18 -25,36 -34,56 -4,9 -6,20 -7,30 0,11 2,21 7,31 -7,-8 -13,-19 -14,-31 -1,-11 2,-23 6,-34 9,-21 25,-38 42,-52z"/>
  <path class="fil2" d="M13884 12287c8,9 18,16 29,20 10,3 22,4 34,4 11,-1 23,-3 35,-6 11,-2 23,-5 35,-8 -21,12 -45,21 -70,22 -12,1 -25,-1 -37,-6 -12,-5 -21,-15 -26,-26z"/>
  <path class="fil2 str0" d="M13509 11981c2,12 5,25 7,38 2,12 5,25 10,36 4,12 10,23 18,32 8,9 19,16 32,20 -13,0 -27,-5 -37,-15 -10,-9 -17,-21 -22,-34 -4,-12 -7,-25 -8,-38 -1,-13 -1,-26 0,-39z"/>
  <path class="fil2" d="M13334 12072c13,1 25,-3 36,-9 10,-7 19,-16 26,-26 8,-10 14,-21 20,-32 6,-12 11,-23 17,-35 -3,13 -6,25 -11,38 -5,12 -11,24 -19,34 -8,11 -17,21 -30,27 -12,6 -27,7 -39,3z"/>
  <path class="fil2" d="M12795 12413c9,-12 13,-27 13,-41 -1,-15 -5,-29 -11,-42 -12,-27 -29,-51 -46,-77 22,21 41,45 54,73 6,15 10,30 9,46 0,16 -8,31 -19,41z"/>
  <path class="fil2" d="M14114 12734c-18,6 -37,11 -54,20 -8,4 -16,9 -22,16 -6,7 -10,15 -12,25 -1,-10 1,-21 7,-29 6,-9 14,-15 23,-20 9,-5 19,-8 29,-10 10,-2 19,-3 29,-2z"/>
  <path class="fil2" d="M14031 12609c1,9 5,18 10,25 6,7 13,12 20,17 16,9 34,15 52,22 -10,0 -20,-1 -29,-4 -9,-2 -19,-6 -27,-11 -9,-5 -16,-12 -22,-21 -5,-8 -7,-19 -4,-28z"/>
  <path class="fil2" d="M13778 13331c-19,-10 -37,-20 -56,-27 -9,-3 -19,-5 -29,-5 -9,1 -19,4 -28,10 6,-9 17,-15 28,-17 11,-2 22,1 32,4 10,3 20,8 28,14 9,6 17,13 25,21z"/>
  <path class="fil2" d="M13798 13178c-6,9 -10,20 -10,30 0,10 2,20 6,30 7,20 19,39 29,59 -16,-16 -29,-34 -37,-56 -4,-10 -7,-22 -5,-34 2,-12 8,-22 17,-29z"/>
  <path class="fil2" d="M12625 12533c25,5 50,11 76,12 12,1 25,0 36,-3 12,-4 22,-11 29,-23 -3,13 -14,24 -26,29 -13,6 -27,7 -40,6 -27,-2 -52,-10 -75,-21z"/>
  <path class="fil2" d="M12693 12691c3,-12 2,-24 -3,-34 -5,-10 -12,-19 -20,-28 -16,-16 -36,-30 -55,-44 22,8 44,21 61,38 9,9 17,19 21,32 4,12 2,26 -4,36z"/>
  <path class="fil2" d="M12800 13221c21,-22 43,-43 61,-67 9,-12 16,-25 21,-38 4,-14 3,-29 -5,-42 5,5 10,12 11,20 2,4 1,8 2,12 0,4 -1,8 -2,11 -3,16 -11,30 -20,42 -19,25 -42,45 -68,62z"/>
  <path class="fil2" d="M12992 13226c-10,-10 -23,-16 -37,-16 -14,0 -28,4 -41,8 -27,10 -52,24 -78,37 23,-19 47,-35 75,-45 14,-5 29,-8 44,-7 15,2 30,10 37,23z"/>
  <path class="fil2" d="M12615 12856c11,-7 22,-13 32,-20 10,-7 20,-14 29,-22 9,-8 17,-17 22,-28 5,-10 7,-22 6,-35 4,12 5,26 0,38 -4,12 -13,23 -22,32 -19,17 -43,28 -67,35z"/>
  <path class="fil2" d="M12758 12989c-4,-11 -12,-21 -21,-29 -9,-7 -19,-12 -31,-15 -11,-4 -23,-6 -35,-8 -12,-1 -24,-3 -36,-4 12,-2 24,-3 37,-3 12,1 25,2 37,6 12,4 24,10 33,19 9,10 15,22 16,34z"/>
  <path class="fil2" d="M13023 13379c-4,-14 -7,-29 -12,-41 -3,-7 -7,-13 -12,-18 -4,-5 -10,-9 -17,-13 8,0 16,3 22,8 6,5 11,12 15,19 3,7 5,15 5,23 1,7 1,15 -1,22z"/>
  <path class="fil2" d="M13163 13353c-9,0 -17,1 -24,4 -7,3 -14,7 -20,13 -12,10 -21,24 -32,37 2,-8 6,-16 10,-24 5,-7 10,-14 17,-20 6,-6 14,-11 23,-13 9,-2 18,-1 26,3z"/>
  <path class="fil2 str0" d="M13800 12075c-4,20 -10,39 -12,58 -1,10 -1,19 2,28 2,9 7,18 15,25 -10,-4 -18,-12 -22,-22 -4,-10 -5,-21 -4,-32 1,-10 4,-20 7,-30 4,-10 9,-19 14,-27z"/>
  <path class="fil2" d="M13648 12085c9,3 18,5 27,4 9,-1 17,-4 25,-8 16,-9 30,-21 46,-32 -5,8 -11,16 -18,22 -7,7 -15,13 -24,17 -9,5 -19,8 -29,8 -10,-1 -20,-5 -27,-11z"/>
  <path class="fil2" d="M13084 12006c13,21 25,42 41,60 7,9 16,17 25,23 10,6 22,8 34,6 -11,5 -25,6 -37,0 -11,-5 -21,-14 -29,-23 -16,-19 -27,-42 -34,-66z"/>
  <path class="fil2" d="M13007 12153c11,-5 19,-14 24,-24 5,-10 7,-22 7,-33 2,-23 -1,-47 -2,-71 8,23 13,47 11,72 -1,12 -3,24 -10,35 -6,11 -18,19 -30,21z"/>
  <path class="fil2" d="M12792 12197c27,16 54,33 82,44 15,5 30,9 45,9 15,0 30,-6 42,-16 -9,13 -25,21 -42,23 -16,1 -33,-3 -48,-8 -30,-12 -56,-31 -79,-52z"/>
  <path class="fil2" d="M12233 13023c-3,37 63,63 66,23 3,-39 -61,-65 -66,-23z"/>
  <path class="fil0" d="M13083 17542c-20,-33 -51,-54 -86,-65 0,0 0,0 0,0 -3,-1 -7,-2 -11,-3 -22,-103 -48,-258 -39,-374 0,-1 1,-1 1,-2 22,-3 43,-6 65,-11 5,-1 11,-2 16,-3 21,-4 42,-10 63,-16 9,-2 17,-5 25,-7 23,-7 46,-16 69,-25 0,0 0,0 0,0 18,-7 36,-15 54,-24 5,-2 10,-5 15,-7 14,-7 27,-15 41,-23 4,-2 8,-4 12,-6 16,-10 33,-20 49,-31 4,-3 8,-5 12,-8 1,-1 2,-2 3,-2 67,50 137,130 184,188 0,1 0,1 -1,2 -1,1 -2,3 -3,5 -1,1 -1,2 -2,2 -2,4 -4,8 -6,12 0,0 -1,1 -1,2 0,1 -1,3 -1,4 -1,1 -2,3 -2,4 -1,2 -1,3 -1,4 -1,2 -1,3 -2,5 0,1 0,2 0,3 -1,2 -1,4 -1,5 0,1 0,2 0,4 -1,1 -1,3 -1,4 0,2 0,3 0,4 0,1 1,3 1,4 0,2 0,3 0,4 0,1 1,3 1,4 0,2 1,3 1,4 0,1 1,3 2,4 0,1 0,2 1,3 1,2 1,3 2,4 1,1 1,3 2,4 1,1 2,2 3,3 1,1 1,2 2,3 1,2 3,3 4,4 1,1 2,2 3,3 1,1 3,2 4,3 1,1 2,2 3,3 2,1 4,2 6,3 1,1 2,1 3,2 4,2 7,3 11,5 0,0 0,0 0,0 5,2 10,3 15,4 1,0 1,0 2,1 5,1 10,1 15,1 1,0 1,0 2,0 97,1 194,-143 90,-181 -8,-3 -16,-5 -23,-6 0,0 0,0 0,0 0,0 0,0 0,0 -20,-3 -40,0 -59,8 0,0 0,0 0,0 -3,1 -6,2 -8,3 -56,-46 -134,-116 -185,-184 10,-8 20,-17 30,-25 2,-2 3,-3 5,-4 13,-12 26,-25 39,-37 5,-5 9,-9 14,-14 10,-10 20,-20 29,-31 4,-4 8,-8 12,-12 12,-14 24,-29 36,-44 3,-4 7,-9 11,-14 8,-11 16,-22 24,-33 4,-6 8,-12 12,-17 9,-14 19,-29 28,-43 2,-5 5,-9 8,-14 5,-8 10,-17 15,-26 104,33 225,100 309,151 0,1 0,1 -1,2 0,3 -1,6 -2,8 0,1 0,3 0,4 -1,5 -2,11 -3,17 0,1 0,2 0,3 0,2 0,3 0,5 0,2 -1,4 -1,7 0,1 1,3 1,5 0,2 0,4 0,6 0,2 1,3 1,5 0,2 1,4 1,6 0,1 1,3 1,5 1,2 1,3 2,5 0,2 1,3 2,5 0,2 1,3 2,5 1,2 1,3 2,4 1,2 2,4 3,5 1,2 2,3 3,4 1,2 2,3 4,5 1,1 2,2 3,3 1,2 3,3 4,4 1,1 3,2 4,3 2,2 3,3 5,4 2,1 3,2 4,2 2,2 4,2 7,3 1,1 3,2 4,2 2,1 5,2 7,3 2,0 4,1 5,1 3,1 6,2 9,2 2,0 3,1 5,1 4,1 9,1 15,1 0,0 0,0 0,0 7,0 13,0 20,-1 1,0 2,0 3,0 7,-2 13,-3 20,-5 0,0 1,-1 1,-1 120,-42 177,-262 31,-264 -10,0 -21,1 -31,4 0,0 0,0 0,0 -26,5 -49,18 -69,35 0,0 0,0 0,0 -3,3 -6,5 -8,8 -93,-34 -226,-88 -319,-152 34,-78 59,-161 72,-246 6,-34 9,-68 11,-103 84,-13 196,-4 274,5 0,1 0,1 0,2 0,2 0,4 1,6 0,1 0,2 1,2 1,5 2,9 3,13 0,1 1,2 1,2 0,2 1,3 2,4 0,2 1,3 1,5 1,1 2,2 2,3 1,2 2,3 2,4 1,1 2,3 3,4 0,1 1,2 2,3 1,1 2,2 3,3 1,1 1,3 3,4 0,1 1,1 2,2 1,1 2,2 3,3 1,1 2,2 3,3 1,0 3,1 4,2 1,1 2,1 3,2 1,1 3,1 4,2 1,0 2,1 3,1 2,1 3,1 5,2 1,0 2,0 3,1 2,0 4,0 5,0 1,1 3,1 4,1 2,0 3,0 5,0 1,0 3,0 4,0 2,0 4,0 6,-1 1,0 2,0 4,0 2,-1 4,-1 6,-2 1,0 3,0 4,-1 3,-1 7,-2 10,-4 5,-2 10,-4 14,-7 1,0 2,-1 2,-1 5,-3 9,-6 12,-10 1,0 1,0 1,-1 8,-7 15,-16 20,-26 0,0 0,0 0,0 43,-76 9,-207 -82,-167 -7,4 -14,8 -20,12 0,0 0,0 0,0 0,0 0,0 0,0 -16,13 -28,29 -37,47 0,0 0,0 0,0 -1,3 -2,5 -3,8 -79,6 -196,11 -282,-6 -3,-136 -30,-276 -83,-403 79,-84 219,-167 317,-219 1,1 1,1 2,1 2,2 4,5 6,6 1,1 1,2 2,3 5,4 9,8 14,11 1,0 1,1 2,1 2,2 3,2 5,3 2,2 3,3 5,4 2,1 3,1 5,2 2,1 3,2 5,3 2,1 3,1 5,2 2,0 4,1 6,2 1,0 3,1 4,1 2,1 4,1 6,2 2,0 3,0 5,1 2,0 4,0 6,0 1,0 3,0 4,0 2,1 4,1 6,0 2,0 3,0 5,0 2,0 4,0 6,-1 1,0 3,0 4,-1 2,0 4,-1 6,-2 2,0 3,-1 5,-1 1,-1 3,-2 5,-3 2,-1 3,-1 5,-2 2,-1 3,-3 5,-4 2,-1 3,-2 4,-3 2,-2 4,-3 6,-5 1,-1 3,-2 4,-3 2,-3 4,-5 6,-7 1,-1 2,-2 3,-4 3,-3 6,-7 9,-12 3,-6 6,-12 9,-18 0,-1 1,-2 1,-3 3,-6 5,-13 6,-19 0,-1 0,-1 0,-2 25,-125 -135,-286 -211,-161 -6,9 -10,19 -13,29 0,0 0,0 0,0 0,0 0,0 0,0 -8,25 -9,51 -5,77 0,0 0,0 0,0 1,4 2,8 3,11 -83,68 -209,164 -317,209 -69,-125 -166,-230 -289,-297 34,-77 98,-165 146,-225 2,1 4,2 7,3 0,0 0,0 0,0 6,2 12,3 17,5 0,0 0,0 0,0 6,1 11,1 16,1 1,0 1,0 2,0 5,0 9,0 14,-1 1,0 1,0 2,0 4,-1 9,-2 13,-4 1,0 1,-1 2,-1 4,-2 8,-4 11,-7 1,-1 1,-1 2,-2 4,-3 7,-6 10,-10 0,-1 0,-1 1,-2 3,-4 5,-9 7,-14 1,-1 1,-1 1,-2 2,-6 4,-12 5,-19 1,-5 1,-11 1,-16 0,-1 0,-2 0,-2 0,-6 -1,-11 -2,-15 0,-1 0,-1 0,-2 -21,-95 -182,-158 -197,-48 -1,8 -1,16 -1,24 0,0 0,0 0,0 2,20 10,39 21,55 0,0 0,0 0,0 1,3 3,5 5,8 -37,71 -95,176 -156,240 -103,-42 -209,-73 -317,-92 -2,-111 26,-253 50,-352 1,0 1,-1 2,-1 3,0 6,0 8,0 2,0 3,0 4,0 6,-1 12,-2 17,-3 1,0 2,-1 3,-1 2,0 4,-1 5,-1 2,-1 4,-1 6,-2 2,-1 3,-1 5,-2 2,-1 4,-1 6,-2 1,-1 3,-2 4,-2 2,-1 4,-2 6,-3 1,-1 2,-2 4,-3 1,-1 3,-2 5,-3 1,-1 2,-2 3,-3 2,-1 4,-3 5,-4 1,-1 2,-2 3,-3 2,-2 3,-3 4,-5 1,-1 2,-2 3,-4 1,-1 2,-3 3,-4 1,-2 2,-3 2,-5 1,-1 2,-3 3,-5 1,-2 1,-3 2,-4 0,-2 1,-5 1,-7 1,-1 1,-3 2,-4 0,-3 0,-5 1,-7 0,-2 0,-3 0,-5 0,-3 0,-5 0,-8 0,-2 0,-3 0,-5 0,-3 0,-6 -1,-9 0,-2 0,-3 0,-4 -1,-5 -2,-10 -4,-15 -2,-7 -4,-13 -7,-19 -1,-1 -1,-2 -2,-3 -3,-6 -6,-12 -10,-17 0,0 -1,-1 -1,-1 -77,-102 -304,-89 -261,50 3,10 8,20 13,29l0 0c0,0 0,0 0,0 13,23 32,41 54,55 0,0 0,0 0,0 4,2 7,4 11,6 -4,102 -16,252 -51,361 -159,-16 -318,-2 -466,49 0,0 -1,0 -1,0 -31,-71 -55,-159 -69,-225 0,0 1,0 1,0 2,-1 4,-2 6,-4 0,0 1,-1 2,-1 4,-2 7,-5 10,-8 1,0 2,-1 2,-1 1,-1 2,-2 4,-3 1,-1 2,-2 3,-3 1,-1 2,-2 3,-3 1,-1 2,-2 3,-4 1,-1 1,-2 2,-3 1,-1 2,-2 3,-3 1,-1 1,-2 2,-4 1,-1 1,-2 2,-4 1,-1 1,-2 2,-3 0,-1 1,-3 1,-4 1,-1 1,-2 1,-3 1,-2 1,-3 2,-5 0,-1 0,-2 0,-3 0,-2 1,-3 1,-5 0,-1 0,-2 0,-3 0,-2 0,-3 0,-5 0,-1 0,-2 -1,-4 0,-1 0,-3 0,-4 -1,-2 -1,-3 -1,-4 -1,-2 -1,-3 -2,-5 0,-1 -1,-2 -1,-4 -1,-1 -2,-3 -3,-5 0,-1 -1,-2 -1,-3 -2,-2 -3,-4 -4,-6 -1,-1 -1,-2 -2,-3 -2,-3 -5,-6 -7,-9 -4,-4 -8,-7 -12,-10 -1,-1 -1,-1 -2,-2 -4,-3 -8,-6 -13,-8 0,0 -1,0 -1,-1 -87,-43 -238,43 -161,124 5,6 12,11 18,15 0,0 0,0 0,0 17,11 36,17 56,19 0,0 0,0 0,0 3,0 6,0 9,0 28,63 65,153 82,233 -60,26 -118,58 -173,98l0 0c-15,11 -30,23 -45,35 -3,3 -6,5 -10,8 -14,12 -29,25 -43,39 -18,16 -34,34 -50,52 -2,-1 -4,-2 -5,-3 -82,-62 -165,-149 -224,-216 0,0 1,-1 1,-1 2,-3 3,-5 5,-7 0,-1 1,-3 1,-4 3,-5 5,-10 7,-15 1,-1 1,-2 2,-3 0,-2 1,-3 2,-5 0,-2 1,-4 2,-6 0,-2 0,-3 1,-5 0,-2 1,-4 1,-6 1,-2 1,-3 1,-5 0,-2 1,-4 1,-6 0,-2 0,-3 0,-5 0,-2 0,-4 0,-6 0,-2 0,-3 0,-5 0,-2 -1,-4 -1,-6 0,-1 0,-3 -1,-4 0,-2 -1,-4 -1,-6 -1,-1 -1,-3 -2,-4 0,-2 -1,-4 -2,-6 -1,-1 -1,-3 -2,-4 -1,-2 -2,-3 -3,-5 -1,-2 -2,-3 -3,-4 -1,-2 -2,-3 -4,-5 -1,-1 -2,-3 -3,-4 -1,-1 -3,-3 -5,-4 -1,-2 -2,-3 -4,-4 -2,-1 -4,-3 -6,-4 -1,-1 -3,-2 -4,-3 -3,-2 -5,-3 -8,-4 -2,-1 -3,-2 -4,-2 -5,-2 -9,-4 -14,-6 -7,-2 -13,-4 -20,-5 -1,0 -2,0 -3,0 -7,-1 -14,-2 -20,-1 -1,0 -1,0 -2,0 -127,5 -246,198 -107,243 10,3 20,5 31,6 0,0 0,0 0,0 26,2 52,-3 76,-14 0,0 0,0 0,0 3,-1 7,-3 11,-5 73,56 176,139 246,222 -81,111 -137,239 -168,374 -71,-24 -148,-62 -204,-93 1,-1 1,-1 1,-2 1,-4 1,-7 2,-10 0,-3 0,-6 0,-9 1,-3 1,-6 1,-9 0,-3 -1,-6 -1,-8 0,-4 -1,-7 -1,-10 -1,-2 -1,-5 -2,-7 -1,-3 -2,-6 -4,-8 -1,-3 -2,-5 -3,-7 -1,-2 -4,-5 -6,-7 -1,-2 -2,-4 -4,-5 -2,-2 -5,-4 -8,-6 -2,-1 -4,-3 -6,-4 -3,-1 -8,-3 -12,-4 -2,0 -3,-1 -6,-2 -6,-1 -13,-2 -21,-2 -6,0 -11,1 -16,2 -1,0 -2,0 -2,1 -5,1 -10,2 -15,4 0,0 -1,0 -1,0 -10,4 -20,10 -28,17 -68,56 -85,189 13,186 9,-1 17,-2 24,-4 0,0 0,0 0,0 3,-1 5,-2 8,-3 10,-3 19,-8 27,-13 0,0 1,-1 1,-1 3,-2 6,-5 9,-8 3,-1 5,-3 7,-5 2,-2 4,-4 5,-6 66,21 157,53 228,92 -7,44 -12,88 -14,133 0,14 0,29 0,44 0,14 0,29 1,43 1,29 3,58 7,87 2,18 5,37 8,55 0,0 -1,0 -1,1 -103,44 -251,69 -355,82 0,-1 0,-1 0,-2 -2,-3 -3,-5 -4,-8 0,-1 -1,-2 -1,-3 -3,-5 -6,-10 -9,-15 -1,-1 -1,-1 -2,-2 -1,-2 -2,-3 -3,-5 -1,-1 -2,-3 -4,-5 -1,-1 -2,-2 -3,-3 -2,-2 -3,-4 -4,-5 -2,-1 -3,-2 -4,-3 -2,-2 -3,-3 -5,-5 -1,-1 -2,-2 -3,-2 -2,-2 -4,-3 -5,-4 -2,-1 -3,-2 -4,-2 -2,-1 -4,-2 -6,-3 -1,-1 -3,-1 -4,-2 -2,-1 -4,-1 -6,-2 -1,-1 -3,-1 -4,-1 -2,-1 -4,-1 -6,-2 -1,0 -3,0 -4,0 -2,-1 -4,-1 -7,-1 -1,0 -3,0 -4,0 -2,0 -4,0 -7,1 -1,0 -3,0 -4,0 -3,1 -5,1 -7,2 -2,0 -3,1 -5,1 -2,1 -5,2 -7,3 -2,0 -3,1 -5,2 -3,1 -5,2 -8,4 -1,1 -3,1 -4,2 -4,2 -8,5 -12,8 -6,4 -11,9 -16,14 0,1 -1,2 -2,2 -4,5 -8,11 -12,16 0,1 -1,1 -1,2 -67,108 25,315 140,225 9,-6 16,-14 22,-22 0,0 0,0 0,0 17,-20 27,-44 32,-70 0,0 0,0 0,0 1,-4 2,-8 2,-12 100,-34 251,-77 367,-82 1,4 2,7 3,11 8,28 18,55 29,82 21,53 48,105 80,154 15,25 32,48 50,71 9,11 19,23 28,33 10,12 21,23 31,34 -53,44 -114,84 -163,113 0,0 -1,0 -1,-1 -2,-1 -3,-3 -5,-4 -1,-1 -1,-1 -2,-2 -4,-3 -7,-5 -11,-8 -1,0 -1,0 -2,-1 -1,-1 -2,-1 -4,-2 -1,-1 -3,-2 -4,-2 -1,-1 -2,-1 -4,-2 -1,-1 -3,-1 -4,-2 -1,0 -3,-1 -4,-1 -1,-1 -3,-1 -4,-2 -2,0 -3,0 -4,0 -2,-1 -3,-1 -5,-1 -1,0 -2,-1 -3,-1 -2,0 -4,0 -5,0 -1,0 -2,0 -4,0 -1,0 -3,0 -4,0 -2,1 -3,1 -4,1 -1,0 -3,0 -4,1 -2,0 -3,0 -4,1 -1,0 -3,1 -4,1 -2,1 -3,1 -4,2 -1,1 -3,2 -4,2 -1,1 -2,2 -3,2 -2,1 -3,2 -5,4 -1,0 -2,1 -3,2 -1,1 -3,3 -4,4 -1,1 -2,2 -3,3 -1,2 -3,4 -4,6 -1,1 -2,2 -2,3 -3,3 -5,6 -7,9 -2,5 -4,10 -6,15 0,1 -1,2 -1,3 -2,5 -3,10 -4,15 0,0 0,1 0,1 -13,99 119,217 173,116 4,-7 6,-15 8,-23 0,0 0,0 0,0 6,-20 5,-40 1,-60 0,0 0,0 0,0 -1,-3 -2,-6 -3,-9 44,-41 106,-95 168,-136 47,42 99,81 153,114 32,19 64,37 97,52 3,89 -37,217 -67,302 -3,0 -6,0 -8,0 0,0 -1,0 -1,0 -6,0 -12,0 -17,1 0,0 0,0 0,0 -6,0 -11,2 -16,3 0,0 -1,0 -1,0 -5,2 -9,4 -14,6 0,0 -1,1 -1,1 -4,2 -8,5 -11,8 -1,0 -1,1 -2,1 -3,4 -6,7 -8,11 -1,0 -1,1 -2,2 -2,4 -4,8 -5,13 -1,1 -1,1 -1,2 -1,5 -2,10 -2,16 0,1 0,1 0,2 -1,6 0,12 1,20 1,5 2,10 4,15 0,0 1,1 1,2 2,5 4,9 7,14 0,0 0,1 0,1 50,83 223,92 202,-17 -1,-8 -4,-16 -7,-23l0 0c0,0 0,0 0,0 -8,-18 -21,-34 -37,-46 0,0 0,0 0,0 -2,-2 -5,-4 -7,-5 12,-85 37,-212 78,-292 46,17 92,31 140,42 56,13 114,21 172,25 26,1 52,2 78,1 35,108 43,263 44,371 -1,0 -1,0 -2,0 -3,1 -6,2 -8,3 -1,0 -2,1 -3,1 -6,2 -12,5 -17,7 -1,1 -1,1 -2,1 -2,1 -3,2 -5,3 -2,1 -3,2 -5,3 -2,1 -3,2 -4,3 -2,1 -4,3 -5,4 -2,1 -3,2 -4,3 -2,1 -3,3 -5,4 -1,1 -2,2 -3,4 -2,1 -3,3 -4,4 -1,1 -2,3 -3,4 -1,1 -2,3 -3,5 -1,1 -2,2 -3,4 -1,2 -2,3 -2,5 -1,1 -2,3 -2,4 -1,2 -2,4 -2,6 -1,1 -1,3 -1,4 -1,2 -1,4 -1,6 -1,2 -1,4 -1,5 0,2 0,4 0,7 0,1 0,3 0,4 0,3 0,5 0,7 1,2 1,4 1,5 1,3 1,5 2,8 0,1 1,3 1,5 1,2 2,5 3,8 1,1 2,3 2,4 2,5 4,9 7,14 3,6 7,11 12,16 0,1 1,2 2,3 4,5 9,10 14,14 1,0 1,0 2,1 99,79 316,12 240,-113z"/>
  <path class="fil1" d="M12219 15256c-338,321 -406,890 -153,1282 253,392 799,563 1231,387 327,-134 571,-448 627,-797 59,-377 -97,-861 -469,-1014 -413,-171 -892,-184 -1236,142z"/>
  <path class="fil1" d="M13297 16925c234,-96 425,-283 535,-509 -70,53 -146,98 -228,131 -431,177 -978,5 -1231,-387 -187,-289 -198,-674 -56,-985 -34,24 -66,51 -98,81 -338,321 -406,890 -153,1282 253,392 799,563 1231,387z"/>
  <path class="fil2" d="M13751 16199c-88,178 527,363 527,363l-58 120c0,0 -526,-367 -612,-188l143 -295z"/>
  <path class="fil2" d="M14203 16750c149,5 239,-269 76,-271 -158,-2 -248,265 -76,271z"/>
  <path class="fil2" d="M14328 16601c34,-35 -13,-118 -50,-78 -35,38 10,119 50,78z"/>
  <path class="fil2" d="M14285 16722c-8,2 -17,3 -26,2 -136,-4 -108,-173 -11,-242 -138,30 -205,262 -45,268 30,1 58,-10 82,-28z"/>
  <path class="fil2" d="M13153 16834c-198,20 -29,640 -29,640l-133 14c0,0 34,-641 -163,-619l325 -35z"/>
  <path class="fil2" d="M12924 17509c74,129 355,61 270,-79 -81,-134 -355,-70 -270,79z"/>
  <path class="fil2" d="M13117 17537c48,10 93,-74 40,-84 -51,-10 -96,72 -40,84z"/>
  <path class="fil2" d="M12991 17565c-6,-7 -11,-14 -15,-22 -69,-118 90,-183 199,-137 -98,-101 -331,-36 -251,103 16,27 39,45 67,56z"/>
  <path class="fil2" d="M12433 16683c-93,-124 -442,238 -442,238l-62 -84c0,0 444,-235 350,-358l154 204z"/>
  <path class="fil2" d="M11888 16801c-57,101 101,262 161,150 58,-109 -96,-267 -161,-150z"/>
  <path class="fil2" d="M11946 16941c13,36 87,33 73,-6 -14,-39 -87,-36 -73,6z"/>
  <path class="fil2" d="M11877 16868c2,-6 5,-13 8,-19 52,-93 160,-13 173,79 28,-107 -109,-236 -170,-127 -12,21 -14,44 -11,67z"/>
  <path class="fil2" d="M12119 16366c-43,-193 -639,46 -639,46l-29 -130c0,0 640,-41 596,-234l72 318z"/>
  <path class="fil2" d="M11422 16218c-120,88 -19,359 109,259 125,-97 29,-362 -109,-259z"/>
  <path class="fil2" d="M11375 16291c5,-7 12,-13 19,-18 110,-82 192,68 160,182 89,-109 -3,-333 -132,-237 -25,18 -40,44 -47,73z"/>
  <path class="fil2" d="M13626 15426c109,166 581,-270 581,-270l74 111c0,0 -585,267 -474,432l-181 -273z"/>
  <path class="fil2" d="M14330 15317c80,-126 -110,-343 -195,-203 -81,134 102,348 195,203z"/>
  <path class="fil2" d="M14265 15134c-13,-48 -108,-49 -92,3 15,49 108,51 92,-3z"/>
  <path class="fil2" d="M14348 15232c-3,8 -6,16 -11,24 -74,115 -205,4 -215,-114 -44,134 122,310 208,175 16,-26 21,-56 18,-85z"/>
  <path class="fil2" d="M12890 15139c196,29 185,-613 185,-613l132 19c0,0 -190,613 7,640l-324 -46z"/>
  <path class="fil2" d="M13277 14541c-41,-144 -329,-146 -282,10 47,150 328,155 282,-10z"/>
  <path class="fil2" d="M13097 14467c-44,-22 -108,48 -60,71 48,22 111,-46 60,-71z"/>
  <path class="fil2" d="M13226 14470c4,8 7,16 9,25 37,131 -132,155 -227,84 71,122 312,116 269,-38 -9,-30 -27,-53 -51,-71z"/>
  <path class="fil2" d="M12168 15595c136,-145 -398,-502 -398,-502l91 -98c0,0 395,506 530,360l-223 240z"/>
  <path class="fil2" d="M11897 14936c-140,-49 -307,187 -152,236 150,48 315,-180 152,-236z"/>
  <path class="fil2" d="M11734 15041c-43,24 -22,117 25,90 45,-26 25,-117 -25,-90z"/>
  <path class="fil2" d="M11811 14938c8,1 17,2 25,5 129,45 52,198 -60,235 140,12 273,-190 121,-242 -29,-10 -58,-8 -86,2z"/>
  <path class="fil2" d="M13822 15857c-4,151 482,85 482,85l-3 102c0,0 -482,-89 -484,62l5 -249z"/>
  <path class="fil2" d="M14311 16096c105,-43 81,-262 -33,-212 -110,48 -89,262 33,212z"/>
  <path class="fil2" d="M14350 15953c13,-35 -46,-78 -59,-39 -12,38 45,80 59,39z"/>
  <path class="fil2" d="M14359 16051c-5,4 -11,7 -17,10 -97,40 -130,-87 -85,-165 -86,64 -59,247 54,200 21,-9 37,-25 48,-45z"/>
  <path class="fil2" d="M13512 16619c-109,106 286,397 286,397l-73 71c0,0 -284,-399 -391,-293l178 -175z"/>
  <path class="fil2" d="M13695 17131c106,42 241,-132 124,-175 -112,-42 -246,127 -124,175z"/>
  <path class="fil2" d="M13823 17057c34,-17 21,-89 -15,-70 -36,19 -24,89 15,70z"/>
  <path class="fil2" d="M13761 17133c-6,-1 -13,-3 -19,-5 -97,-39 -33,-153 54,-178 -106,-13 -215,136 -101,181 22,9 45,8 66,2z"/>
  <path class="fil2" d="M12031 15967c61,-139 -415,-258 -415,-258l40 -94c0,0 415,262 474,122l-99 230z"/>
  <path class="fil2" d="M11667 15563c-113,1 -173,214 -48,209 120,-4 179,-210 48,-209z"/>
  <path class="fil2" d="M11577 15681c-25,28 14,89 41,58 25,-30 -12,-91 -41,-58z"/>
  <path class="fil2" d="M11605 15587c7,-2 13,-3 20,-3 104,-1 88,129 17,185 104,-28 147,-207 25,-206 -23,0 -44,9 -62,24z"/>
  <path class="fil2" d="M12661 16853c-147,-37 -191,451 -191,451l-98 -25c0,0 194,-450 47,-487l242 61z"/>
  <path class="fil2" d="M12318 17276c19,112 238,138 215,15 -23,-118 -236,-144 -215,-15z"/>
  <path class="fil2" d="M12449 17347c31,20 86,-28 51,-49 -34,-21 -88,25 -51,49z"/>
  <path class="fil2" d="M12352 17334c-3,-7 -5,-13 -6,-20 -17,-103 113,-107 179,-45 -43,-99 -227,-114 -207,7 4,23 17,42 34,58z"/>
  <path class="fil2" d="M13311 15156c126,82 324,-366 324,-366l86 55c0,0 -328,364 -201,446l-209 -135z"/>
  <path class="fil2" d="M13770 14864c18,-112 -181,-206 -198,-83 -16,120 178,213 198,83z"/>
  <path class="fil2" d="M13669 14756c-23,-29 -90,-1 -64,30 26,30 92,4 64,-30z"/>
  <path class="fil2" d="M13757 14799c1,7 0,14 -1,20 -16,103 -141,66 -184,-14 10,107 179,180 198,59 4,-23 -2,-45 -13,-65z"/>
  <path class="fil2" d="M12453 15247c144,-47 -82,-482 -82,-482l97 -32c0,0 78,484 222,436l-237 78z"/>
  <path class="fil2" d="M12514 14707c-76,-84 -274,12 -189,102 83,88 277,-5 189,-102z"/>
  <path class="fil2" d="M12366 14717c-37,0 -57,70 -16,69 39,-1 60,-69 16,-69z"/>
  <path class="fil2" d="M12455 14676c6,4 11,8 15,14 70,77 -38,151 -126,135 89,59 252,-27 170,-118 -16,-18 -36,-27 -59,-31z"/>
  <path class="fil2" d="M13225 15315c0,-19 -1,-40 -12,-56 -11,-17 -31,-26 -51,-29 -20,-2 -40,3 -59,10 -72,28 -127,96 -139,172 -12,80 58,182 146,134 73,-40 113,-154 115,-231z"/>
  <path class="fil2" d="M13059 16484c24,8 51,12 75,4 26,-8 45,-30 55,-56 10,-25 11,-53 8,-79 -11,-103 -80,-197 -174,-238 -99,-43 -254,12 -222,142 26,108 159,198 258,227z"/>
  <path class="fil2" d="M12720 15480c2,-29 1,-61 -15,-87 -16,-27 -46,-43 -77,-48 -31,-4 -63,2 -93,12 -113,38 -202,140 -225,258 -25,122 77,284 217,216 116,-57 184,-231 193,-351z"/>
  <path class="fil2" d="M12925 15679c-12,-10 -26,-20 -42,-21 -17,-2 -34,6 -46,18 -11,12 -19,27 -24,43 -20,62 -4,133 39,180 46,50 148,58 163,-25 13,-68 -41,-153 -90,-195z"/>
  <path class="fil2" d="M12463 15979c-13,5 -27,12 -36,24 -9,12 -10,29 -6,44 4,15 13,28 23,39 40,44 104,64 161,51 61,-14 113,-92 55,-141 -49,-41 -141,-37 -197,-17z"/>
  <path class="fil2" d="M13636 15635c-14,-36 -34,-72 -69,-92 -36,-21 -86,-20 -129,-5 -44,15 -83,42 -116,74 -128,119 -188,296 -152,447 38,159 264,281 411,109 120,-141 112,-389 55,-533z"/>
  <path class="fil2" d="M12252 15361c-14,57 -23,115 -28,173l167 -179c-34,36 -83,32 -139,6z"/>
  <path class="fil2" d="M13807 16464c-36,-7 -72,-14 -107,-14 -18,0 -36,3 -52,9 -8,4 -15,8 -22,14 -7,6 -12,13 -18,21 3,-9 8,-17 14,-25 6,-7 14,-13 22,-18 9,-4 18,-7 27,-9 10,-2 19,-3 28,-3 19,-1 38,2 56,6 18,5 35,11 52,19z"/>
  <path class="fil2" d="M13751 16199c-6,18 -7,36 -2,53 5,17 14,32 25,46 11,14 23,27 36,39 14,12 28,24 41,37 -16,-9 -31,-19 -47,-30 -14,-11 -28,-24 -40,-39 -11,-15 -21,-32 -24,-51 -2,-10 -2,-19 0,-29 2,-9 6,-18 11,-26z"/>
  <path class="fil2" d="M12950 16994c-7,-14 -14,-29 -21,-42 -7,-14 -15,-28 -25,-40 -9,-12 -20,-23 -32,-31 -13,-7 -28,-12 -44,-12 15,-4 33,-3 48,4 15,7 28,19 38,32 20,26 31,58 36,89z"/>
  <path class="fil2" d="M13153 16834c-17,4 -31,12 -42,23 -11,11 -20,24 -26,39 -6,14 -11,30 -15,45 -4,16 -8,32 -11,48 -1,-17 -1,-33 2,-50 2,-16 7,-33 13,-48 7,-16 17,-30 31,-41 14,-11 31,-16 48,-16z"/>
  <path class="fil3 str0" d="M13853 15541c-17,25 -35,49 -46,75 -5,13 -9,27 -9,41 0,14 3,28 9,42 -10,-11 -17,-26 -18,-42 -2,-16 2,-31 7,-46 13,-28 33,-51 57,-70z"/>
  <path class="fil2" d="M13626 15426c11,13 24,21 39,26 14,5 29,7 45,6 16,-1 31,-4 47,-7 15,-4 31,-8 47,-12 -28,17 -60,28 -93,31 -17,0 -34,-2 -50,-9 -16,-7 -28,-20 -35,-35z"/>
  <path class="fil2 str0" d="M13125 15016c2,17 5,34 8,51 4,17 8,34 13,49 6,16 14,31 25,43 11,12 26,21 43,26 -18,0 -36,-7 -50,-19 -13,-12 -22,-29 -29,-46 -6,-16 -9,-34 -11,-51 -1,-18 -1,-35 1,-53z"/>
  <path class="fil2" d="M12890 15139c17,0 34,-4 48,-13 14,-8 26,-21 35,-34 10,-13 19,-28 27,-44 7,-15 15,-30 22,-46 -3,17 -7,34 -14,50 -6,17 -15,32 -25,47 -11,14 -24,27 -41,35 -16,8 -35,10 -52,5z"/>
  <path class="fil2" d="M12168 15595c12,-17 18,-36 17,-55 0,-19 -6,-38 -14,-56 -16,-36 -39,-69 -61,-103 29,28 55,60 72,98 8,19 14,40 13,61 -1,21 -11,42 -27,55z"/>
  <path class="fil2" d="M13934 16024c-25,9 -50,15 -72,27 -11,6 -21,13 -29,22 -8,9 -14,20 -16,33 -3,-13 1,-27 9,-39 7,-12 19,-20 31,-26 12,-7 25,-11 38,-13 13,-3 26,-4 39,-4z"/>
  <path class="fil2" d="M13822 15857c2,13 7,24 14,33 8,10 17,17 28,23 20,13 44,21 68,31 -13,-1 -26,-3 -38,-6 -13,-3 -25,-8 -36,-15 -12,-7 -22,-16 -29,-28 -7,-11 -10,-26 -7,-38z"/>
  <path class="fil2" d="M13484 16823c-25,-12 -49,-27 -74,-35 -13,-5 -26,-7 -39,-7 -13,1 -26,5 -37,13 8,-12 21,-20 36,-22 15,-3 30,0 43,5 14,4 27,11 38,19 12,8 23,17 33,27z"/>
  <path class="fil2" d="M13512 16619c-9,12 -14,26 -14,40 -1,14 3,27 8,41 9,27 24,52 38,78 -21,-21 -39,-46 -50,-74 -4,-15 -8,-30 -5,-46 2,-16 10,-30 23,-39z"/>
  <path class="fil2" d="M11941 15756c34,6 67,14 101,16 17,1 34,0 49,-4 16,-5 30,-15 39,-31 -5,17 -18,32 -35,39 -17,7 -36,9 -54,8 -35,-2 -69,-13 -100,-28z"/>
  <path class="fil2" d="M12031 15967c5,-16 3,-32 -3,-46 -6,-13 -16,-25 -27,-36 -22,-23 -48,-41 -74,-60 30,11 59,28 83,51 11,12 22,26 27,42 5,17 3,35 -6,49z"/>
  <path class="fil2" d="M12176 16676c28,-30 57,-57 81,-89 11,-16 22,-33 28,-51 6,-19 4,-39 -6,-57 6,8 12,17 15,27 1,5 1,11 1,16 0,5 0,11 -1,16 -5,21 -16,39 -28,56 -25,33 -56,60 -90,82z"/>
  <path class="fil2" d="M12433 16683c-14,-14 -32,-21 -50,-21 -19,0 -37,5 -55,11 -36,13 -69,31 -104,49 30,-25 63,-47 100,-60 19,-6 39,-11 59,-9 20,2 40,13 50,30z"/>
  <path class="fil2" d="M11928 16187c15,-8 29,-17 43,-26 13,-9 27,-18 38,-29 12,-11 23,-23 30,-37 6,-15 9,-31 8,-47 6,15 6,34 0,50 -6,17 -17,31 -30,43 -25,23 -57,37 -89,46z"/>
  <path class="fil2" d="M12119 16366c-6,-15 -15,-28 -27,-38 -12,-10 -27,-17 -42,-21 -15,-5 -31,-8 -47,-10 -16,-3 -32,-4 -49,-6 16,-3 33,-4 50,-4 16,1 33,3 50,8 16,5 32,13 44,26 12,12 20,29 21,45z"/>
  <path class="fil2" d="M12474 16889c-6,-20 -9,-39 -17,-56 -4,-9 -9,-17 -15,-24 -6,-7 -14,-12 -23,-17 10,0 21,4 29,10 9,7 15,16 20,26 4,9 6,20 7,30 1,10 1,20 -1,31z"/>
  <path class="fil2" d="M12661 16853c-12,0 -22,2 -32,5 -10,4 -18,10 -26,17 -16,15 -29,33 -44,50 4,-11 8,-21 14,-31 6,-10 13,-19 22,-27 9,-8 19,-15 31,-17 12,-3 25,-2 35,3z"/>
  <path class="fil2 str0" d="M13514 15142c-6,27 -14,52 -17,78 -1,13 -1,26 3,38 3,12 10,24 20,33 -12,-5 -23,-16 -29,-30 -6,-13 -7,-28 -5,-42 1,-14 5,-27 10,-40 4,-13 11,-25 18,-37z"/>
  <path class="fil2" d="M13311 15156c12,4 24,6 35,5 12,-1 23,-5 34,-11 21,-11 40,-27 61,-42 -7,11 -15,21 -24,30 -10,9 -20,16 -32,23 -11,5 -25,10 -38,9 -14,0 -27,-5 -36,-14z"/>
  <path class="fil2" d="M12556 15051c17,27 33,56 54,80 10,12 21,23 34,30 14,8 30,11 46,8 -15,7 -34,8 -50,1 -16,-7 -29,-19 -39,-32 -22,-25 -36,-56 -45,-87z"/>
  <path class="fil2" d="M12453 15247c15,-7 25,-18 32,-32 6,-14 8,-29 9,-44 3,-31 -1,-63 -3,-95 11,30 17,63 15,96 -1,16 -4,33 -13,47 -9,15 -24,26 -40,28z"/>
  <path class="fil2" d="M12164 15305c37,22 72,45 111,59 19,8 39,13 59,13 20,-1 40,-8 57,-22 -13,17 -34,29 -56,31 -22,2 -44,-3 -64,-11 -41,-16 -76,-41 -107,-70z"/>
  <path class="fil2" d="M11417 16412c-5,49 84,84 88,30 4,-52 -83,-87 -88,-30z"/>
 </g>
</svg>
