<?xml version="1.0" encoding="UTF-8"?>
<!DOCTYPE svg PUBLIC "-//W3C//DTD SVG 1.1//EN" "http://www.w3.org/Graphics/SVG/1.1/DTD/svg11.dtd">
<!-- Creator: CorelDRAW X7 -->
<svg xmlns="http://www.w3.org/2000/svg" xml:space="preserve" width="8.5in" height="11in" version="1.1" style="shape-rendering:geometricPrecision; text-rendering:geometricPrecision; image-rendering:optimizeQuality; fill-rule:evenodd; clip-rule:evenodd"
viewBox="0 0 8500 11000"
 xmlns:xlink="http://www.w3.org/1999/xlink">
 <defs>
  <style type="text/css">
   <![CDATA[
    .fil8 {fill:#110038}
    .fil1 {fill:#24D8FF}
    .fil2 {fill:#30D2F4}
    .fil4 {fill:#52C3C8}
    .fil0 {fill:#B3EBF7}
    .fil3 {fill:#BF8570}
    .fil7 {fill:#EBEBEB}
    .fil9 {fill:#F9BA95}
    .fil5 {fill:white}
    .fil14 {fill:#BF8570;fill-opacity:0.341176}
    .fil6 {fill:#BF8570;fill-opacity:0.400000}
    .fil13 {fill:#F9BA95;fill-opacity:0.490196}
    .fil12 {fill:#BF8570;fill-opacity:0.501961}
    .fil10 {fill:#F9BA95;fill-opacity:0.501961}
    .fil11 {fill:#F9BA95;fill-opacity:0.588235}
   ]]>
  </style>
 </defs>
 <g id="Layer_x0020_1">
  <metadata id="CorelCorpID_0Corel-Layer"/>
  <g id="_429542728">
   <path class="fil0" d="M5636 4971c-27,113 -100,216 -201,290 -50,36 -107,66 -168,86 -78,25 -162,35 -245,38 -90,3 -179,1 -269,0 -93,-1 -186,-2 -279,-3 -186,-2 -372,-3 -559,-5 -184,-2 -369,-4 -554,-5 -3,0 -3,-2 -3,-4 4,-8 -161,-157 -182,-179 -65,-67 -129,-137 -163,-221 -41,-99 -32,-222 54,-297 123,-106 336,-103 315,-298 -13,-112 -99,-200 -138,-305 -97,-266 30,-583 342,-692 130,-45 279,-44 412,-6 105,30 179,96 252,164 69,63 168,170 282,140 79,-22 135,-78 209,-107 79,-32 169,-45 255,-32 114,17 219,79 275,166 105,166 -23,301 -82,454 -21,55 -27,119 6,170 53,82 175,108 252,169 51,39 94,86 126,138 64,103 89,224 63,339z"/>
   <path class="fil1" d="M3078 3623c0,6 -5,11 -11,11 -6,0 -10,-5 -10,-11 0,-6 4,-11 10,-11 6,0 11,5 11,11z"/>
   <path class="fil1" d="M3126 3623c0,6 -5,11 -11,11 -6,0 -10,-5 -10,-11 0,-6 4,-11 10,-11 6,0 11,5 11,11z"/>
   <path class="fil1" d="M3078 3575c0,6 -5,11 -11,11 -6,0 -10,-5 -10,-11 0,-6 4,-11 10,-11 6,0 11,5 11,11z"/>
   <path class="fil1" d="M3174 3623c0,6 -5,11 -11,11 -6,0 -11,-5 -11,-11 0,-6 5,-11 11,-11 6,0 11,5 11,11z"/>
   <path class="fil1" d="M3126 3575c0,6 -5,11 -11,11 -6,0 -10,-5 -10,-11 0,-6 4,-11 10,-11 6,0 11,5 11,11z"/>
   <path class="fil1" d="M3078 3527c0,6 -5,11 -11,11 -6,0 -10,-5 -10,-11 0,-6 4,-11 10,-11 6,0 11,5 11,11z"/>
   <path class="fil1" d="M3222 3623c0,6 -5,11 -11,11 -6,0 -11,-5 -11,-11 0,-6 5,-11 11,-11 6,0 11,5 11,11z"/>
   <path class="fil1" d="M3174 3575c0,6 -5,11 -11,11 -6,0 -11,-5 -11,-11 0,-6 5,-11 11,-11 6,0 11,5 11,11z"/>
   <path class="fil1" d="M3126 3527c0,6 -5,11 -11,11 -6,0 -10,-5 -10,-11 0,-6 4,-11 10,-11 6,0 11,5 11,11z"/>
   <path class="fil1" d="M3078 3479c0,6 -5,11 -11,11 -6,0 -10,-5 -10,-11 0,-6 4,-11 10,-11 6,0 11,5 11,11z"/>
   <path class="fil1" d="M3270 3623c0,6 -5,11 -11,11 -6,0 -11,-5 -11,-11 0,-6 5,-11 11,-11 6,0 11,5 11,11z"/>
   <path class="fil1" d="M3222 3575c0,6 -5,11 -11,11 -6,0 -11,-5 -11,-11 0,-6 5,-11 11,-11 6,0 11,5 11,11z"/>
   <path class="fil1" d="M3174 3527c0,6 -5,11 -11,11 -6,0 -11,-5 -11,-11 0,-6 5,-11 11,-11 6,0 11,5 11,11z"/>
   <path class="fil1" d="M3126 3479c0,6 -5,11 -11,11 -6,0 -10,-5 -10,-11 0,-6 4,-11 10,-11 6,0 11,5 11,11z"/>
   <path class="fil1" d="M3078 3431c0,6 -5,11 -11,11 -6,0 -10,-5 -10,-11 0,-6 4,-10 10,-10 6,0 11,4 11,10z"/>
   <path class="fil1" d="M3318 3623c0,6 -5,11 -11,11 -6,0 -11,-5 -11,-11 0,-6 5,-11 11,-11 6,0 11,5 11,11z"/>
   <path class="fil1" d="M3270 3575c0,6 -5,11 -11,11 -6,0 -11,-5 -11,-11 0,-6 5,-11 11,-11 6,0 11,5 11,11z"/>
   <path class="fil1" d="M3222 3527c0,6 -5,11 -11,11 -6,0 -11,-5 -11,-11 0,-6 5,-11 11,-11 6,0 11,5 11,11z"/>
   <path class="fil1" d="M3174 3479c0,6 -5,11 -11,11 -6,0 -11,-5 -11,-11 0,-6 5,-11 11,-11 6,0 11,5 11,11z"/>
   <path class="fil1" d="M3126 3431c0,6 -5,11 -11,11 -6,0 -10,-5 -10,-11 0,-6 4,-10 10,-10 6,0 11,4 11,10z"/>
   <path class="fil1" d="M3078 3383c0,6 -5,11 -11,11 -6,0 -10,-5 -10,-11 0,-6 4,-10 10,-10 6,0 11,4 11,10z"/>
   <path class="fil1" d="M3366 3623c0,6 -5,11 -11,11 -6,0 -11,-5 -11,-11 0,-6 5,-11 11,-11 6,0 11,5 11,11z"/>
   <path class="fil1" d="M3318 3575c0,6 -5,11 -11,11 -6,0 -11,-5 -11,-11 0,-6 5,-11 11,-11 6,0 11,5 11,11z"/>
   <path class="fil1" d="M3270 3527c0,6 -5,11 -11,11 -6,0 -11,-5 -11,-11 0,-6 5,-11 11,-11 6,0 11,5 11,11z"/>
   <path class="fil1" d="M3222 3479c0,6 -5,11 -11,11 -6,0 -11,-5 -11,-11 0,-6 5,-11 11,-11 6,0 11,5 11,11z"/>
   <path class="fil1" d="M3174 3431c0,6 -5,11 -11,11 -6,0 -11,-5 -11,-11 0,-6 5,-10 11,-10 6,0 11,4 11,10z"/>
   <path class="fil1" d="M3126 3383c0,6 -5,11 -11,11 -6,0 -10,-5 -10,-11 0,-6 4,-10 10,-10 6,0 11,4 11,10z"/>
   <path class="fil1" d="M3078 3335c0,6 -5,11 -11,11 -6,0 -10,-5 -10,-11 0,-6 4,-10 10,-10 6,0 11,4 11,10z"/>
   <path class="fil1" d="M3414 3623c0,6 -5,11 -11,11 -6,0 -11,-5 -11,-11 0,-6 5,-11 11,-11 6,0 11,5 11,11z"/>
   <path class="fil1" d="M3366 3575c0,6 -5,11 -11,11 -6,0 -11,-5 -11,-11 0,-6 5,-11 11,-11 6,0 11,5 11,11z"/>
   <path class="fil1" d="M3318 3527c0,6 -5,11 -11,11 -6,0 -11,-5 -11,-11 0,-6 5,-11 11,-11 6,0 11,5 11,11z"/>
   <path class="fil1" d="M3270 3479c0,6 -5,11 -11,11 -6,0 -11,-5 -11,-11 0,-6 5,-11 11,-11 6,0 11,5 11,11z"/>
   <path class="fil1" d="M3222 3431c0,6 -5,11 -11,11 -6,0 -11,-5 -11,-11 0,-6 5,-10 11,-10 6,0 11,4 11,10z"/>
   <path class="fil1" d="M3174 3383c0,6 -5,11 -11,11 -6,0 -11,-5 -11,-11 0,-6 5,-10 11,-10 6,0 11,4 11,10z"/>
   <path class="fil1" d="M3126 3335c0,6 -5,11 -11,11 -6,0 -10,-5 -10,-11 0,-6 4,-10 10,-10 6,0 11,4 11,10z"/>
   <path class="fil1" d="M3078 3287c0,6 -5,11 -11,11 -6,0 -10,-5 -10,-11 0,-5 4,-10 10,-10 6,0 11,5 11,10z"/>
   <path class="fil1" d="M3462 3623c0,6 -5,11 -11,11 -6,0 -11,-5 -11,-11 0,-6 5,-11 11,-11 6,0 11,5 11,11z"/>
   <path class="fil1" d="M3414 3575c0,6 -5,11 -11,11 -6,0 -11,-5 -11,-11 0,-6 5,-11 11,-11 6,0 11,5 11,11z"/>
   <path class="fil1" d="M3366 3527c0,6 -5,11 -11,11 -6,0 -11,-5 -11,-11 0,-6 5,-11 11,-11 6,0 11,5 11,11z"/>
   <path class="fil1" d="M3318 3479c0,6 -5,11 -11,11 -6,0 -11,-5 -11,-11 0,-6 5,-11 11,-11 6,0 11,5 11,11z"/>
   <path class="fil1" d="M3270 3431c0,6 -5,11 -11,11 -6,0 -11,-5 -11,-11 0,-6 5,-10 11,-10 6,0 11,4 11,10z"/>
   <path class="fil1" d="M3222 3383c0,6 -5,11 -11,11 -6,0 -11,-5 -11,-11 0,-6 5,-10 11,-10 6,0 11,4 11,10z"/>
   <path class="fil1" d="M3174 3335c0,6 -5,11 -11,11 -6,0 -11,-5 -11,-11 0,-6 5,-10 11,-10 6,0 11,4 11,10z"/>
   <path class="fil1" d="M3126 3287c0,6 -5,11 -11,11 -6,0 -10,-5 -10,-11 0,-5 4,-10 10,-10 6,0 11,5 11,10z"/>
   <path class="fil1" d="M3462 3575c0,6 -5,11 -11,11 -6,0 -11,-5 -11,-11 0,-6 5,-11 11,-11 6,0 11,5 11,11z"/>
   <path class="fil1" d="M3414 3527c0,6 -5,11 -11,11 -6,0 -11,-5 -11,-11 0,-6 5,-11 11,-11 6,0 11,5 11,11z"/>
   <path class="fil1" d="M3366 3479c0,6 -5,11 -11,11 -6,0 -11,-5 -11,-11 0,-6 5,-11 11,-11 6,0 11,5 11,11z"/>
   <path class="fil1" d="M3318 3431c0,6 -5,11 -11,11 -6,0 -11,-5 -11,-11 0,-6 5,-10 11,-10 6,0 11,4 11,10z"/>
   <path class="fil1" d="M3270 3383c0,6 -5,11 -11,11 -6,0 -11,-5 -11,-11 0,-6 5,-10 11,-10 6,0 11,4 11,10z"/>
   <path class="fil1" d="M3222 3335c0,6 -5,11 -11,11 -6,0 -11,-5 -11,-11 0,-6 5,-10 11,-10 6,0 11,4 11,10z"/>
   <path class="fil1" d="M3174 3287c0,6 -5,11 -11,11 -6,0 -11,-5 -11,-11 0,-2 2,-5 3,-7l19 5c0,1 0,2 0,2z"/>
   <path class="fil1" d="M3453 3538c-1,0 -1,0 -2,0 -6,0 -11,-5 -11,-11 0,-5 3,-8 7,-10l6 21z"/>
   <path class="fil1" d="M3414 3479c0,6 -5,11 -11,11 -6,0 -11,-5 -11,-11 0,-6 5,-11 11,-11 6,0 11,5 11,11z"/>
   <path class="fil1" d="M3366 3431c0,6 -5,11 -11,11 -6,0 -11,-5 -11,-11 0,-6 5,-10 11,-10 6,0 11,4 11,10z"/>
   <path class="fil1" d="M3318 3383c0,6 -5,11 -11,11 -6,0 -11,-5 -11,-11 0,-6 5,-10 11,-10 6,0 11,4 11,10z"/>
   <path class="fil1" d="M3270 3335c0,6 -5,11 -11,11 -6,0 -11,-5 -11,-11 0,-6 5,-10 11,-10 6,0 11,4 11,10z"/>
   <path class="fil1" d="M3217 3297c-2,1 -4,1 -6,1 -4,0 -7,-2 -9,-5l15 4z"/>
   <path class="fil1" d="M3411 3438c-2,3 -5,4 -8,4 -6,0 -11,-5 -11,-11 0,-3 2,-6 4,-8l15 15z"/>
   <path class="fil1" d="M3363 3390c-2,3 -5,4 -8,4 -6,0 -11,-5 -11,-11 0,-3 2,-6 4,-8l15 15z"/>
   <path class="fil1" d="M3315 3343c-2,2 -5,3 -8,3 -6,0 -11,-5 -11,-11 0,-3 2,-6 4,-8l15 16z"/>
   <path class="fil1" d="M3078 3671c0,6 -5,11 -11,11 -6,0 -10,-5 -10,-11 0,-6 4,-11 10,-11 6,0 11,5 11,11z"/>
   <path class="fil1" d="M3078 3719c0,6 -5,11 -11,11 -6,0 -10,-5 -10,-11 0,-6 4,-11 10,-11 6,0 11,5 11,11z"/>
   <path class="fil1" d="M3126 3671c0,6 -5,11 -11,11 -6,0 -10,-5 -10,-11 0,-6 4,-11 10,-11 6,0 11,5 11,11z"/>
   <path class="fil1" d="M3078 3767c0,6 -5,11 -11,11 -6,0 -10,-5 -10,-11 0,-6 4,-11 10,-11 6,0 11,5 11,11z"/>
   <path class="fil1" d="M3126 3719c0,6 -5,11 -11,11 -6,0 -10,-5 -10,-11 0,-6 4,-11 10,-11 6,0 11,5 11,11z"/>
   <path class="fil1" d="M3174 3671c0,6 -5,11 -11,11 -6,0 -11,-5 -11,-11 0,-6 5,-11 11,-11 6,0 11,5 11,11z"/>
   <path class="fil1" d="M3078 3815c0,6 -5,11 -11,11 -6,0 -10,-5 -10,-11 0,-6 4,-11 10,-11 6,0 11,5 11,11z"/>
   <path class="fil1" d="M3126 3767c0,6 -5,11 -11,11 -6,0 -10,-5 -10,-11 0,-6 4,-11 10,-11 6,0 11,5 11,11z"/>
   <path class="fil1" d="M3174 3719c0,6 -5,11 -11,11 -6,0 -11,-5 -11,-11 0,-6 5,-11 11,-11 6,0 11,5 11,11z"/>
   <path class="fil1" d="M3222 3671c0,6 -5,11 -11,11 -6,0 -11,-5 -11,-11 0,-6 5,-11 11,-11 6,0 11,5 11,11z"/>
   <path class="fil1" d="M3078 3863c0,6 -5,10 -11,10 -6,0 -10,-4 -10,-10 0,-6 4,-11 10,-11 6,0 11,5 11,11z"/>
   <path class="fil1" d="M3126 3815c0,6 -5,11 -11,11 -6,0 -10,-5 -10,-11 0,-6 4,-11 10,-11 6,0 11,5 11,11z"/>
   <path class="fil1" d="M3174 3767c0,6 -5,11 -11,11 -6,0 -11,-5 -11,-11 0,-6 5,-11 11,-11 6,0 11,5 11,11z"/>
   <path class="fil1" d="M3222 3719c0,6 -5,11 -11,11 -6,0 -11,-5 -11,-11 0,-6 5,-11 11,-11 6,0 11,5 11,11z"/>
   <path class="fil1" d="M3270 3671c0,6 -5,11 -11,11 -6,0 -11,-5 -11,-11 0,-6 5,-11 11,-11 6,0 11,5 11,11z"/>
   <path class="fil1" d="M3078 3911c0,6 -5,10 -11,10 -6,0 -10,-4 -10,-10 0,-6 4,-11 10,-11 6,0 11,5 11,11z"/>
   <path class="fil1" d="M3126 3863c0,6 -5,10 -11,10 -6,0 -10,-4 -10,-10 0,-6 4,-11 10,-11 6,0 11,5 11,11z"/>
   <path class="fil1" d="M3174 3815c0,6 -5,11 -11,11 -6,0 -11,-5 -11,-11 0,-6 5,-11 11,-11 6,0 11,5 11,11z"/>
   <path class="fil1" d="M3222 3767c0,6 -5,11 -11,11 -6,0 -11,-5 -11,-11 0,-6 5,-11 11,-11 6,0 11,5 11,11z"/>
   <path class="fil1" d="M3270 3719c0,6 -5,11 -11,11 -6,0 -11,-5 -11,-11 0,-6 5,-11 11,-11 6,0 11,5 11,11z"/>
   <path class="fil1" d="M3318 3671c0,6 -5,11 -11,11 -6,0 -11,-5 -11,-11 0,-6 5,-11 11,-11 6,0 11,5 11,11z"/>
   <path class="fil1" d="M3078 3959c0,5 -5,10 -11,10 -6,0 -10,-5 -10,-10 0,-6 4,-11 10,-11 6,0 11,5 11,11z"/>
   <path class="fil1" d="M3126 3911c0,6 -5,10 -11,10 -6,0 -10,-4 -10,-10 0,-6 4,-11 10,-11 6,0 11,5 11,11z"/>
   <path class="fil1" d="M3174 3863c0,6 -5,10 -11,10 -6,0 -11,-4 -11,-10 0,-6 5,-11 11,-11 6,0 11,5 11,11z"/>
   <path class="fil1" d="M3222 3815c0,6 -5,11 -11,11 -6,0 -11,-5 -11,-11 0,-6 5,-11 11,-11 6,0 11,5 11,11z"/>
   <path class="fil1" d="M3270 3767c0,6 -5,11 -11,11 -6,0 -11,-5 -11,-11 0,-6 5,-11 11,-11 6,0 11,5 11,11z"/>
   <path class="fil1" d="M3318 3719c0,6 -5,11 -11,11 -6,0 -11,-5 -11,-11 0,-6 5,-11 11,-11 6,0 11,5 11,11z"/>
   <path class="fil1" d="M3366 3671c0,6 -5,11 -11,11 -6,0 -11,-5 -11,-11 0,-6 5,-11 11,-11 6,0 11,5 11,11z"/>
   <path class="fil1" d="M3078 4006c0,6 -5,11 -11,11 -6,0 -10,-5 -10,-11 0,-5 4,-10 10,-10 6,0 11,5 11,10z"/>
   <path class="fil1" d="M3126 3959c0,5 -5,10 -11,10 -6,0 -10,-5 -10,-10 0,-6 4,-11 10,-11 6,0 11,5 11,11z"/>
   <path class="fil1" d="M3174 3911c0,6 -5,10 -11,10 -6,0 -11,-4 -11,-10 0,-6 5,-11 11,-11 6,0 11,5 11,11z"/>
   <path class="fil1" d="M3222 3863c0,6 -5,10 -11,10 -6,0 -11,-4 -11,-10 0,-6 5,-11 11,-11 6,0 11,5 11,11z"/>
   <path class="fil1" d="M3270 3815c0,6 -5,11 -11,11 -6,0 -11,-5 -11,-11 0,-6 5,-11 11,-11 6,0 11,5 11,11z"/>
   <path class="fil1" d="M3318 3767c0,6 -5,11 -11,11 -6,0 -11,-5 -11,-11 0,-6 5,-11 11,-11 6,0 11,5 11,11z"/>
   <path class="fil1" d="M3366 3719c0,6 -5,11 -11,11 -6,0 -11,-5 -11,-11 0,-6 5,-11 11,-11 6,0 11,5 11,11z"/>
   <path class="fil1" d="M3414 3671c0,6 -5,11 -11,11 -6,0 -11,-5 -11,-11 0,-6 5,-11 11,-11 6,0 11,5 11,11z"/>
   <path class="fil1" d="M3059 4048c2,-3 5,-4 8,-4 6,0 10,4 11,9l-19 -5z"/>
   <path class="fil1" d="M3126 4006c0,6 -5,11 -11,11 -6,0 -10,-5 -10,-11 0,-5 4,-10 10,-10 6,0 11,5 11,10z"/>
   <path class="fil1" d="M3174 3959c0,5 -5,10 -11,10 -6,0 -11,-5 -11,-10 0,-6 5,-11 11,-11 6,0 11,5 11,11z"/>
   <path class="fil1" d="M3222 3911c0,6 -5,10 -11,10 -6,0 -11,-4 -11,-10 0,-6 5,-11 11,-11 6,0 11,5 11,11z"/>
   <path class="fil1" d="M3270 3863c0,6 -5,10 -11,10 -6,0 -11,-4 -11,-10 0,-6 5,-11 11,-11 6,0 11,5 11,11z"/>
   <path class="fil1" d="M3318 3815c0,6 -5,11 -11,11 -6,0 -11,-5 -11,-11 0,-6 5,-11 11,-11 6,0 11,5 11,11z"/>
   <path class="fil1" d="M3366 3767c0,6 -5,11 -11,11 -6,0 -11,-5 -11,-11 0,-6 5,-11 11,-11 6,0 11,5 11,11z"/>
   <path class="fil1" d="M3414 3719c0,6 -5,11 -11,11 -6,0 -11,-5 -11,-11 0,-6 5,-11 11,-11 6,0 11,5 11,11z"/>
   <path class="fil1" d="M3462 3671c0,6 -5,11 -11,11 -6,0 -11,-5 -11,-11 0,-6 5,-11 11,-11 6,0 11,5 11,11z"/>
   <path class="fil1" d="M3105 4052c1,-5 5,-8 10,-8 3,0 6,1 8,3l-18 5z"/>
   <path class="fil1" d="M3174 4006c0,6 -5,11 -11,11 -6,0 -11,-5 -11,-11 0,-5 5,-10 11,-10 6,0 11,5 11,10z"/>
   <path class="fil1" d="M3222 3959c0,5 -5,10 -11,10 -6,0 -11,-5 -11,-10 0,-6 5,-11 11,-11 6,0 11,5 11,11z"/>
   <path class="fil1" d="M3270 3911c0,6 -5,10 -11,10 -6,0 -11,-4 -11,-10 0,-6 5,-11 11,-11 6,0 11,5 11,11z"/>
   <path class="fil1" d="M3318 3863c0,6 -5,10 -11,10 -6,0 -11,-4 -11,-10 0,-6 5,-11 11,-11 6,0 11,5 11,11z"/>
   <path class="fil1" d="M3366 3815c0,6 -5,11 -11,11 -6,0 -11,-5 -11,-11 0,-6 5,-11 11,-11 6,0 11,5 11,11z"/>
   <path class="fil1" d="M3414 3767c0,6 -5,11 -11,11 -6,0 -11,-5 -11,-11 0,-6 5,-11 11,-11 6,0 11,5 11,11z"/>
   <path class="fil1" d="M3462 3719c0,6 -5,11 -11,11 -6,0 -11,-5 -11,-11 0,-6 5,-11 11,-11 6,0 11,5 11,11z"/>
   <path class="fil1" d="M3222 4006c0,6 -5,11 -11,11 -6,0 -11,-5 -11,-11 0,-5 5,-10 11,-10 6,0 11,5 11,10z"/>
   <path class="fil1" d="M3270 3959c0,5 -5,10 -11,10 -6,0 -11,-5 -11,-10 0,-6 5,-11 11,-11 6,0 11,5 11,11z"/>
   <path class="fil1" d="M3318 3911c0,6 -5,10 -11,10 -6,0 -11,-4 -11,-10 0,-6 5,-11 11,-11 6,0 11,5 11,11z"/>
   <path class="fil1" d="M3366 3863c0,6 -5,10 -11,10 -6,0 -11,-4 -11,-10 0,-6 5,-11 11,-11 6,0 11,5 11,11z"/>
   <path class="fil1" d="M3414 3815c0,6 -5,11 -11,11 -6,0 -11,-5 -11,-11 0,-6 5,-11 11,-11 6,0 11,5 11,11z"/>
   <path class="fil1" d="M3454 3777c-1,0 -2,1 -3,1 -6,0 -11,-5 -11,-11 0,-6 5,-11 11,-11 3,0 6,1 8,3l-5 18z"/>
   <path class="fil1" d="M3270 4006c0,1 0,1 0,1l-20 5c-1,-1 -2,-3 -2,-6 0,-5 5,-10 11,-10 6,0 11,5 11,10z"/>
   <path class="fil1" d="M3318 3959c0,5 -5,10 -11,10 -6,0 -11,-5 -11,-10 0,-6 5,-11 11,-11 6,0 11,5 11,11z"/>
   <path class="fil1" d="M3366 3911c0,6 -5,10 -11,10 -6,0 -11,-4 -11,-10 0,-6 5,-11 11,-11 6,0 11,5 11,11z"/>
   <path class="fil1" d="M3414 3863c0,6 -5,10 -11,10 -6,0 -11,-4 -11,-10 0,-6 5,-11 11,-11 6,0 11,5 11,11z"/>
   <path class="fil1" d="M3442 3821c-1,-2 -2,-4 -2,-6 0,-4 3,-8 6,-10l-4 16z"/>
   <path class="fil1" d="M3030 3623c0,6 -5,11 -11,11 -6,0 -10,-5 -10,-11 0,-6 4,-11 10,-11 6,0 11,5 11,11z"/>
   <path class="fil1" d="M2982 3623c0,6 -5,11 -11,11 -6,0 -10,-5 -10,-11 0,-6 4,-11 10,-11 6,0 11,5 11,11z"/>
   <path class="fil1" d="M3030 3671c0,6 -5,11 -11,11 -6,0 -10,-5 -10,-11 0,-6 4,-11 10,-11 6,0 11,5 11,11z"/>
   <path class="fil1" d="M2934 3623c0,6 -5,11 -11,11 -5,0 -10,-5 -10,-11 0,-6 5,-11 10,-11 6,0 11,5 11,11z"/>
   <path class="fil1" d="M2982 3671c0,6 -5,11 -11,11 -6,0 -10,-5 -10,-11 0,-6 4,-11 10,-11 6,0 11,5 11,11z"/>
   <path class="fil1" d="M3030 3719c0,6 -5,11 -11,11 -6,0 -10,-5 -10,-11 0,-6 4,-11 10,-11 6,0 11,5 11,11z"/>
   <path class="fil1" d="M2886 3623c0,6 -5,11 -11,11 -5,0 -10,-5 -10,-11 0,-6 5,-11 10,-11 6,0 11,5 11,11z"/>
   <path class="fil1" d="M2934 3671c0,6 -5,11 -11,11 -5,0 -10,-5 -10,-11 0,-6 5,-11 10,-11 6,0 11,5 11,11z"/>
   <path class="fil1" d="M2982 3719c0,6 -5,11 -11,11 -6,0 -10,-5 -10,-11 0,-6 4,-11 10,-11 6,0 11,5 11,11z"/>
   <path class="fil1" d="M3030 3767c0,6 -5,11 -11,11 -6,0 -10,-5 -10,-11 0,-6 4,-11 10,-11 6,0 11,5 11,11z"/>
   <path class="fil1" d="M2838 3623c0,6 -5,11 -10,11 -6,0 -11,-5 -11,-11 0,-6 5,-11 11,-11 5,0 10,5 10,11z"/>
   <path class="fil1" d="M2886 3671c0,6 -5,11 -11,11 -5,0 -10,-5 -10,-11 0,-6 5,-11 10,-11 6,0 11,5 11,11z"/>
   <path class="fil1" d="M2934 3719c0,6 -5,11 -11,11 -5,0 -10,-5 -10,-11 0,-6 5,-11 10,-11 6,0 11,5 11,11z"/>
   <path class="fil1" d="M2982 3767c0,6 -5,11 -11,11 -6,0 -10,-5 -10,-11 0,-6 4,-11 10,-11 6,0 11,5 11,11z"/>
   <path class="fil1" d="M3030 3815c0,6 -5,11 -11,11 -6,0 -10,-5 -10,-11 0,-6 4,-11 10,-11 6,0 11,5 11,11z"/>
   <path class="fil1" d="M2790 3623c0,6 -5,11 -10,11 -6,0 -11,-5 -11,-11 0,-6 5,-11 11,-11 5,0 10,5 10,11z"/>
   <path class="fil1" d="M2838 3671c0,6 -5,11 -10,11 -6,0 -11,-5 -11,-11 0,-6 5,-11 11,-11 5,0 10,5 10,11z"/>
   <path class="fil1" d="M2886 3719c0,6 -5,11 -11,11 -5,0 -10,-5 -10,-11 0,-6 5,-11 10,-11 6,0 11,5 11,11z"/>
   <path class="fil1" d="M2934 3767c0,6 -5,11 -11,11 -5,0 -10,-5 -10,-11 0,-6 5,-11 10,-11 6,0 11,5 11,11z"/>
   <path class="fil1" d="M2982 3815c0,6 -5,11 -11,11 -6,0 -10,-5 -10,-11 0,-6 4,-11 10,-11 6,0 11,5 11,11z"/>
   <path class="fil1" d="M3030 3863c0,6 -5,10 -11,10 -6,0 -10,-4 -10,-10 0,-6 4,-11 10,-11 6,0 11,5 11,11z"/>
   <path class="fil1" d="M2742 3623c0,6 -4,11 -10,11 -6,0 -11,-5 -11,-11 0,-6 5,-11 11,-11 6,0 10,5 10,11z"/>
   <path class="fil1" d="M2790 3671c0,6 -5,11 -10,11 -6,0 -11,-5 -11,-11 0,-6 5,-11 11,-11 5,0 10,5 10,11z"/>
   <path class="fil1" d="M2838 3719c0,6 -5,11 -10,11 -6,0 -11,-5 -11,-11 0,-6 5,-11 11,-11 5,0 10,5 10,11z"/>
   <path class="fil1" d="M2886 3767c0,6 -5,11 -11,11 -5,0 -10,-5 -10,-11 0,-6 5,-11 10,-11 6,0 11,5 11,11z"/>
   <path class="fil1" d="M2934 3815c0,6 -5,11 -11,11 -5,0 -10,-5 -10,-11 0,-6 5,-11 10,-11 6,0 11,5 11,11z"/>
   <path class="fil1" d="M2982 3863c0,6 -5,10 -11,10 -6,0 -10,-4 -10,-10 0,-6 4,-11 10,-11 6,0 11,5 11,11z"/>
   <path class="fil1" d="M3030 3911c0,6 -5,10 -11,10 -6,0 -10,-4 -10,-10 0,-6 4,-11 10,-11 6,0 11,5 11,11z"/>
   <path class="fil1" d="M2742 3671c0,6 -4,11 -10,11 -6,0 -11,-5 -11,-11 0,-6 5,-11 11,-11 6,0 10,5 10,11z"/>
   <path class="fil1" d="M2790 3719c0,6 -5,11 -10,11 -6,0 -11,-5 -11,-11 0,-6 5,-11 11,-11 5,0 10,5 10,11z"/>
   <path class="fil1" d="M2838 3767c0,6 -5,11 -10,11 -6,0 -11,-5 -11,-11 0,-6 5,-11 11,-11 5,0 10,5 10,11z"/>
   <path class="fil1" d="M2886 3815c0,6 -5,11 -11,11 -5,0 -10,-5 -10,-11 0,-6 5,-11 10,-11 6,0 11,5 11,11z"/>
   <path class="fil1" d="M2934 3863c0,6 -5,10 -11,10 -5,0 -10,-4 -10,-10 0,-6 5,-11 10,-11 6,0 11,5 11,11z"/>
   <path class="fil1" d="M2982 3911c0,6 -5,10 -11,10 -6,0 -10,-4 -10,-10 0,-6 4,-11 10,-11 6,0 11,5 11,11z"/>
   <path class="fil1" d="M3030 3959c0,5 -5,10 -11,10 -6,0 -10,-5 -10,-10 0,-6 4,-11 10,-11 6,0 11,5 11,11z"/>
   <path class="fil1" d="M2693 3666c1,1 1,3 1,4l-1 -4z"/>
   <path class="fil1" d="M2742 3719c0,6 -4,11 -10,11 -6,0 -11,-5 -11,-11 0,-6 5,-11 11,-11 6,0 10,5 10,11z"/>
   <path class="fil1" d="M2790 3767c0,6 -5,11 -10,11 -6,0 -11,-5 -11,-11 0,-6 5,-11 11,-11 5,0 10,5 10,11z"/>
   <path class="fil1" d="M2838 3815c0,6 -5,11 -10,11 -6,0 -11,-5 -11,-11 0,-6 5,-11 11,-11 5,0 10,5 10,11z"/>
   <path class="fil1" d="M2886 3863c0,6 -5,10 -11,10 -5,0 -10,-4 -10,-10 0,-6 5,-11 10,-11 6,0 11,5 11,11z"/>
   <path class="fil1" d="M2934 3911c0,6 -5,10 -11,10 -5,0 -10,-4 -10,-10 0,-6 5,-11 10,-11 6,0 11,5 11,11z"/>
   <path class="fil1" d="M2982 3959c0,5 -5,10 -11,10 -6,0 -10,-5 -10,-10 0,-6 4,-11 10,-11 6,0 11,5 11,11z"/>
   <path class="fil1" d="M3030 4006c0,6 -5,11 -11,11 -6,0 -10,-5 -10,-11 0,-5 4,-10 10,-10 6,0 11,5 11,10z"/>
   <path class="fil1" d="M2742 3767c0,6 -4,11 -10,11 -5,0 -9,-3 -10,-7l-1 -3c0,0 0,-1 0,-1 0,-6 5,-11 11,-11 6,0 10,5 10,11z"/>
   <path class="fil1" d="M2790 3815c0,6 -5,11 -10,11 -6,0 -11,-5 -11,-11 0,-6 5,-11 11,-11 5,0 10,5 10,11z"/>
   <path class="fil1" d="M2838 3863c0,6 -5,10 -10,10 -6,0 -11,-4 -11,-10 0,-6 5,-11 11,-11 5,0 10,5 10,11z"/>
   <path class="fil1" d="M2886 3911c0,6 -5,10 -11,10 -5,0 -10,-4 -10,-10 0,-6 5,-11 10,-11 6,0 11,5 11,11z"/>
   <path class="fil1" d="M2934 3959c0,5 -5,10 -11,10 -5,0 -10,-5 -10,-10 0,-6 5,-11 10,-11 6,0 11,5 11,11z"/>
   <path class="fil1" d="M2982 4006c0,6 -5,11 -11,11 -6,0 -10,-5 -10,-11 0,-5 4,-10 10,-10 6,0 11,5 11,10z"/>
   <path class="fil1" d="M2742 3815c0,4 -2,8 -6,9l-5 -20c0,0 0,0 1,0 6,0 10,5 10,11z"/>
   <path class="fil1" d="M2790 3863c0,6 -5,10 -10,10 -6,0 -11,-4 -11,-10 0,-6 5,-11 11,-11 5,0 10,5 10,11z"/>
   <path class="fil1" d="M2838 3911c0,6 -5,10 -10,10 -6,0 -11,-4 -11,-10 0,-6 5,-11 11,-11 5,0 10,5 10,11z"/>
   <path class="fil1" d="M2886 3959c0,5 -5,10 -11,10 -5,0 -10,-5 -10,-10 0,-6 5,-11 10,-11 6,0 11,5 11,11z"/>
   <path class="fil1" d="M2934 4006c0,3 -1,6 -3,8l-18 -5c0,-1 0,-2 0,-3 0,-5 5,-10 10,-10 6,0 11,5 11,10z"/>
   <path class="fil1" d="M3030 3575c0,6 -5,11 -11,11 -6,0 -10,-5 -10,-11 0,-6 4,-11 10,-11 6,0 11,5 11,11z"/>
   <path class="fil1" d="M3030 3527c0,6 -5,11 -11,11 -6,0 -10,-5 -10,-11 0,-6 4,-11 10,-11 6,0 11,5 11,11z"/>
   <path class="fil1" d="M2982 3575c0,6 -5,11 -11,11 -6,0 -10,-5 -10,-11 0,-6 4,-11 10,-11 6,0 11,5 11,11z"/>
   <path class="fil1" d="M3030 3479c0,6 -5,11 -11,11 -6,0 -10,-5 -10,-11 0,-6 4,-11 10,-11 6,0 11,5 11,11z"/>
   <path class="fil1" d="M2982 3527c0,6 -5,11 -11,11 -6,0 -10,-5 -10,-11 0,-6 4,-11 10,-11 6,0 11,5 11,11z"/>
   <path class="fil1" d="M2934 3575c0,6 -5,11 -11,11 -5,0 -10,-5 -10,-11 0,-6 5,-11 10,-11 6,0 11,5 11,11z"/>
   <path class="fil1" d="M3030 3431c0,6 -5,11 -11,11 -6,0 -10,-5 -10,-11 0,-6 4,-10 10,-10 6,0 11,4 11,10z"/>
   <path class="fil1" d="M2982 3479c0,6 -5,11 -11,11 -6,0 -10,-5 -10,-11 0,-6 4,-11 10,-11 6,0 11,5 11,11z"/>
   <path class="fil1" d="M2934 3527c0,6 -5,11 -11,11 -5,0 -10,-5 -10,-11 0,-6 5,-11 10,-11 6,0 11,5 11,11z"/>
   <path class="fil1" d="M2886 3575c0,6 -5,11 -11,11 -5,0 -10,-5 -10,-11 0,-6 5,-11 10,-11 6,0 11,5 11,11z"/>
   <path class="fil1" d="M3030 3383c0,6 -5,11 -11,11 -6,0 -10,-5 -10,-11 0,-6 4,-10 10,-10 6,0 11,4 11,10z"/>
   <path class="fil1" d="M2982 3431c0,6 -5,11 -11,11 -6,0 -10,-5 -10,-11 0,-6 4,-10 10,-10 6,0 11,4 11,10z"/>
   <path class="fil1" d="M2934 3479c0,6 -5,11 -11,11 -5,0 -10,-5 -10,-11 0,-6 5,-11 10,-11 6,0 11,5 11,11z"/>
   <path class="fil1" d="M2886 3527c0,6 -5,11 -11,11 -5,0 -10,-5 -10,-11 0,-6 5,-11 10,-11 6,0 11,5 11,11z"/>
   <path class="fil1" d="M2838 3575c0,6 -5,11 -10,11 -6,0 -11,-5 -11,-11 0,-6 5,-11 11,-11 5,0 10,5 10,11z"/>
   <path class="fil1" d="M3030 3335c0,6 -5,11 -11,11 -6,0 -10,-5 -10,-11 0,-6 4,-10 10,-10 6,0 11,4 11,10z"/>
   <path class="fil1" d="M2982 3383c0,6 -5,11 -11,11 -6,0 -10,-5 -10,-11 0,-6 4,-10 10,-10 6,0 11,4 11,10z"/>
   <path class="fil1" d="M2934 3431c0,6 -5,11 -11,11 -5,0 -10,-5 -10,-11 0,-6 5,-10 10,-10 6,0 11,4 11,10z"/>
   <path class="fil1" d="M2886 3479c0,6 -5,11 -11,11 -5,0 -10,-5 -10,-11 0,-6 5,-11 10,-11 6,0 11,5 11,11z"/>
   <path class="fil1" d="M2838 3527c0,6 -5,11 -10,11 -6,0 -11,-5 -11,-11 0,-6 5,-11 11,-11 5,0 10,5 10,11z"/>
   <path class="fil1" d="M2790 3575c0,6 -5,11 -10,11 -6,0 -11,-5 -11,-11 0,-6 5,-11 11,-11 5,0 10,5 10,11z"/>
   <path class="fil1" d="M3030 3287c0,6 -5,11 -11,11 -6,0 -10,-5 -10,-11 0,-1 0,-2 0,-3l17 -5c3,2 4,5 4,8z"/>
   <path class="fil1" d="M2982 3335c0,6 -5,11 -11,11 -6,0 -10,-5 -10,-11 0,-6 4,-10 10,-10 6,0 11,4 11,10z"/>
   <path class="fil1" d="M2934 3383c0,6 -5,11 -11,11 -5,0 -10,-5 -10,-11 0,-6 5,-10 10,-10 6,0 11,4 11,10z"/>
   <path class="fil1" d="M2886 3431c0,6 -5,11 -11,11 -5,0 -10,-5 -10,-11 0,-6 5,-10 10,-10 6,0 11,4 11,10z"/>
   <path class="fil1" d="M2838 3479c0,6 -5,11 -10,11 -6,0 -11,-5 -11,-11 0,-6 5,-11 11,-11 5,0 10,5 10,11z"/>
   <path class="fil1" d="M2790 3527c0,6 -5,11 -10,11 -6,0 -11,-5 -11,-11 0,-6 5,-11 11,-11 5,0 10,5 10,11z"/>
   <path class="fil1" d="M2742 3575c0,6 -4,11 -10,11 -6,0 -11,-5 -11,-11 0,-6 5,-11 11,-11 6,0 10,5 10,11z"/>
   <path class="fil1" d="M2982 3291c-2,4 -6,7 -11,7 -2,0 -5,-1 -6,-2l17 -5z"/>
   <path class="fil1" d="M2934 3335c0,6 -5,11 -11,11 -5,0 -10,-5 -10,-11 0,-6 5,-10 10,-10 6,0 11,4 11,10z"/>
   <path class="fil1" d="M2886 3383c0,6 -5,11 -11,11 -5,0 -10,-5 -10,-11 0,-6 5,-10 10,-10 6,0 11,4 11,10z"/>
   <path class="fil1" d="M2838 3431c0,6 -5,11 -10,11 -6,0 -11,-5 -11,-11 0,-6 5,-10 11,-10 5,0 10,4 10,10z"/>
   <path class="fil1" d="M2790 3479c0,6 -5,11 -10,11 -6,0 -11,-5 -11,-11 0,-6 5,-11 11,-11 5,0 10,5 10,11z"/>
   <path class="fil1" d="M2742 3527c0,6 -4,11 -10,11 -3,0 -5,-1 -7,-3l5 -18c1,-1 1,-1 2,-1 6,0 10,5 10,11z"/>
   <path class="fil1" d="M2886 3335c0,6 -5,11 -11,11 -4,0 -8,-3 -10,-7l14 -14c4,2 7,6 7,10z"/>
   <path class="fil1" d="M2838 3383c0,6 -5,11 -10,11 -5,0 -9,-3 -11,-7l14 -14c4,2 7,6 7,10z"/>
   <path class="fil1" d="M2790 3431c0,6 -5,11 -10,11 -5,0 -9,-3 -10,-7l13 -14c4,2 7,6 7,10z"/>
   <path class="fil1" d="M2742 3479c0,4 -1,7 -4,9l3 -13c1,1 1,3 1,4z"/>
   <path class="fil1" d="M5908 4965c0,6 -5,11 -11,11 -6,0 -10,-5 -10,-11 0,-6 4,-11 10,-11 6,0 11,5 11,11z"/>
   <path class="fil1" d="M5956 4965c0,6 -5,11 -11,11 -6,0 -10,-5 -10,-11 0,-6 4,-11 10,-11 6,0 11,5 11,11z"/>
   <path class="fil1" d="M5908 4917c0,6 -5,11 -11,11 -6,0 -10,-5 -10,-11 0,-6 4,-11 10,-11 6,0 11,5 11,11z"/>
   <path class="fil1" d="M6004 4965c0,6 -5,11 -11,11 -6,0 -11,-5 -11,-11 0,-6 5,-11 11,-11 6,0 11,5 11,11z"/>
   <path class="fil1" d="M5956 4917c0,6 -5,11 -11,11 -6,0 -10,-5 -10,-11 0,-6 4,-11 10,-11 6,0 11,5 11,11z"/>
   <path class="fil1" d="M5908 4869c0,6 -5,11 -11,11 -6,0 -10,-5 -10,-11 0,-6 4,-10 10,-10 6,0 11,4 11,10z"/>
   <path class="fil1" d="M6052 4965c0,6 -5,11 -11,11 -6,0 -11,-5 -11,-11 0,-6 5,-11 11,-11 6,0 11,5 11,11z"/>
   <path class="fil1" d="M6004 4917c0,6 -5,11 -11,11 -6,0 -11,-5 -11,-11 0,-6 5,-11 11,-11 6,0 11,5 11,11z"/>
   <path class="fil1" d="M5956 4869c0,6 -5,11 -11,11 -6,0 -10,-5 -10,-11 0,-6 4,-10 10,-10 6,0 11,4 11,10z"/>
   <path class="fil1" d="M5908 4821c0,6 -5,11 -11,11 -6,0 -10,-5 -10,-11 0,-6 4,-10 10,-10 6,0 11,4 11,10z"/>
   <path class="fil1" d="M6100 4965c0,6 -5,11 -11,11 -6,0 -11,-5 -11,-11 0,-6 5,-11 11,-11 6,0 11,5 11,11z"/>
   <path class="fil1" d="M6052 4917c0,6 -5,11 -11,11 -6,0 -11,-5 -11,-11 0,-6 5,-11 11,-11 6,0 11,5 11,11z"/>
   <path class="fil1" d="M6004 4869c0,6 -5,11 -11,11 -6,0 -11,-5 -11,-11 0,-6 5,-10 11,-10 6,0 11,4 11,10z"/>
   <path class="fil1" d="M5956 4821c0,6 -5,11 -11,11 -6,0 -10,-5 -10,-11 0,-6 4,-10 10,-10 6,0 11,4 11,10z"/>
   <path class="fil1" d="M5908 4773c0,6 -5,11 -11,11 -6,0 -10,-5 -10,-11 0,-6 4,-10 10,-10 6,0 11,4 11,10z"/>
   <path class="fil1" d="M6148 4965c0,6 -5,11 -11,11 -6,0 -11,-5 -11,-11 0,-6 5,-11 11,-11 6,0 11,5 11,11z"/>
   <path class="fil1" d="M6100 4917c0,6 -5,11 -11,11 -6,0 -11,-5 -11,-11 0,-6 5,-11 11,-11 6,0 11,5 11,11z"/>
   <path class="fil1" d="M6052 4869c0,6 -5,11 -11,11 -6,0 -11,-5 -11,-11 0,-6 5,-10 11,-10 6,0 11,4 11,10z"/>
   <path class="fil1" d="M6004 4821c0,6 -5,11 -11,11 -6,0 -11,-5 -11,-11 0,-6 5,-10 11,-10 6,0 11,4 11,10z"/>
   <path class="fil1" d="M5956 4773c0,6 -5,11 -11,11 -6,0 -10,-5 -10,-11 0,-6 4,-10 10,-10 6,0 11,4 11,10z"/>
   <path class="fil1" d="M5908 4725c0,6 -5,11 -11,11 -6,0 -10,-5 -10,-11 0,-5 4,-10 10,-10 6,0 11,5 11,10z"/>
   <path class="fil1" d="M6196 4965c0,6 -5,11 -11,11 -6,0 -11,-5 -11,-11 0,-6 5,-11 11,-11 6,0 11,5 11,11z"/>
   <path class="fil1" d="M6148 4917c0,6 -5,11 -11,11 -6,0 -11,-5 -11,-11 0,-6 5,-11 11,-11 6,0 11,5 11,11z"/>
   <path class="fil1" d="M6100 4869c0,6 -5,11 -11,11 -6,0 -11,-5 -11,-11 0,-6 5,-10 11,-10 6,0 11,4 11,10z"/>
   <path class="fil1" d="M6052 4821c0,6 -5,11 -11,11 -6,0 -11,-5 -11,-11 0,-6 5,-10 11,-10 6,0 11,4 11,10z"/>
   <path class="fil1" d="M6004 4773c0,6 -5,11 -11,11 -6,0 -11,-5 -11,-11 0,-6 5,-10 11,-10 6,0 11,4 11,10z"/>
   <path class="fil1" d="M5956 4725c0,6 -5,11 -11,11 -6,0 -10,-5 -10,-11 0,-5 4,-10 10,-10 6,0 11,5 11,10z"/>
   <path class="fil1" d="M5908 4678c0,5 -5,10 -11,10 -6,0 -10,-5 -10,-10 0,-6 4,-11 10,-11 6,0 11,5 11,11z"/>
   <path class="fil1" d="M6244 4965c0,6 -5,11 -11,11 -6,0 -11,-5 -11,-11 0,-6 5,-11 11,-11 6,0 11,5 11,11z"/>
   <path class="fil1" d="M6196 4917c0,6 -5,11 -11,11 -6,0 -11,-5 -11,-11 0,-6 5,-11 11,-11 6,0 11,5 11,11z"/>
   <path class="fil1" d="M6148 4869c0,6 -5,11 -11,11 -6,0 -11,-5 -11,-11 0,-6 5,-10 11,-10 6,0 11,4 11,10z"/>
   <path class="fil1" d="M6100 4821c0,6 -5,11 -11,11 -6,0 -11,-5 -11,-11 0,-6 5,-10 11,-10 6,0 11,4 11,10z"/>
   <path class="fil1" d="M6052 4773c0,6 -5,11 -11,11 -6,0 -11,-5 -11,-11 0,-6 5,-10 11,-10 6,0 11,4 11,10z"/>
   <path class="fil1" d="M6004 4725c0,6 -5,11 -11,11 -6,0 -11,-5 -11,-11 0,-5 5,-10 11,-10 6,0 11,5 11,10z"/>
   <path class="fil1" d="M5956 4678c0,5 -5,10 -11,10 -6,0 -10,-5 -10,-10 0,-6 4,-11 10,-11 6,0 11,5 11,11z"/>
   <path class="fil1" d="M5908 4630c0,6 -5,10 -11,10 -6,0 -10,-4 -10,-10 0,-4 1,-7 4,-9l16 5c1,1 1,2 1,4z"/>
   <path class="fil1" d="M6244 4917c0,6 -5,11 -11,11 -6,0 -11,-5 -11,-11 0,-6 5,-11 11,-11 6,0 11,5 11,11z"/>
   <path class="fil1" d="M6196 4869c0,6 -5,11 -11,11 -6,0 -11,-5 -11,-11 0,-6 5,-10 11,-10 6,0 11,4 11,10z"/>
   <path class="fil1" d="M6148 4821c0,6 -5,11 -11,11 -6,0 -11,-5 -11,-11 0,-6 5,-10 11,-10 6,0 11,4 11,10z"/>
   <path class="fil1" d="M6100 4773c0,6 -5,11 -11,11 -6,0 -11,-5 -11,-11 0,-6 5,-10 11,-10 6,0 11,4 11,10z"/>
   <path class="fil1" d="M6052 4725c0,6 -5,11 -11,11 -6,0 -11,-5 -11,-11 0,-5 5,-10 11,-10 6,0 11,5 11,10z"/>
   <path class="fil1" d="M6004 4678c0,5 -5,10 -11,10 -6,0 -11,-5 -11,-10 0,-6 5,-11 11,-11 6,0 11,5 11,11z"/>
   <path class="fil1" d="M5952 4638c-2,1 -4,2 -7,2 -5,0 -9,-3 -10,-7l17 5z"/>
   <path class="fil1" d="M6244 4870c-1,6 -5,10 -11,10 -6,0 -11,-5 -11,-11 0,-6 5,-10 11,-10 4,0 7,1 9,4l2 7z"/>
   <path class="fil1" d="M6196 4821c0,6 -5,11 -11,11 -6,0 -11,-5 -11,-11 0,-6 5,-10 11,-10 6,0 11,4 11,10z"/>
   <path class="fil1" d="M6148 4773c0,6 -5,11 -11,11 -6,0 -11,-5 -11,-11 0,-6 5,-10 11,-10 6,0 11,4 11,10z"/>
   <path class="fil1" d="M6100 4725c0,6 -5,11 -11,11 -6,0 -11,-5 -11,-11 0,-5 5,-10 11,-10 6,0 11,5 11,10z"/>
   <path class="fil1" d="M6052 4678c0,5 -5,10 -11,10 -6,0 -11,-5 -11,-10 0,-6 5,-11 11,-11 6,0 11,5 11,11z"/>
   <path class="fil1" d="M6233 4832l0 0c-6,0 -11,-5 -11,-11 0,-3 2,-6 4,-8l3 3 4 16z"/>
   <path class="fil1" d="M6193 4780c-2,3 -5,4 -8,4 -6,0 -11,-5 -11,-11 0,-3 2,-6 4,-8l15 15z"/>
   <path class="fil1" d="M6145 4732c-2,3 -5,4 -8,4 -6,0 -11,-5 -11,-11 0,-3 2,-6 4,-8l15 15z"/>
   <path class="fil1" d="M6097 4685c-2,2 -5,3 -8,3 -6,0 -11,-5 -11,-10 0,-2 1,-4 2,-6l7 2 10 11z"/>
   <path class="fil1" d="M5908 5013c0,6 -5,11 -11,11 -6,0 -10,-5 -10,-11 0,-6 4,-11 10,-11 6,0 11,5 11,11z"/>
   <path class="fil1" d="M5908 5061c0,6 -5,11 -11,11 -6,0 -10,-5 -10,-11 0,-6 4,-11 10,-11 6,0 11,5 11,11z"/>
   <path class="fil1" d="M5956 5013c0,6 -5,11 -11,11 -6,0 -10,-5 -10,-11 0,-6 4,-11 10,-11 6,0 11,5 11,11z"/>
   <path class="fil1" d="M5908 5109c0,6 -5,11 -11,11 -6,0 -10,-5 -10,-11 0,-6 4,-11 10,-11 6,0 11,5 11,11z"/>
   <path class="fil1" d="M5956 5061c0,6 -5,11 -11,11 -6,0 -10,-5 -10,-11 0,-6 4,-11 10,-11 6,0 11,5 11,11z"/>
   <path class="fil1" d="M6004 5013c0,6 -5,11 -11,11 -6,0 -11,-5 -11,-11 0,-6 5,-11 11,-11 6,0 11,5 11,11z"/>
   <path class="fil1" d="M5908 5157c0,6 -5,11 -11,11 -6,0 -10,-5 -10,-11 0,-6 4,-11 10,-11 6,0 11,5 11,11z"/>
   <path class="fil1" d="M5956 5109c0,6 -5,11 -11,11 -6,0 -10,-5 -10,-11 0,-6 4,-11 10,-11 6,0 11,5 11,11z"/>
   <path class="fil1" d="M6004 5061c0,6 -5,11 -11,11 -6,0 -11,-5 -11,-11 0,-6 5,-11 11,-11 6,0 11,5 11,11z"/>
   <path class="fil1" d="M6052 5013c0,6 -5,11 -11,11 -6,0 -11,-5 -11,-11 0,-6 5,-11 11,-11 6,0 11,5 11,11z"/>
   <path class="fil1" d="M5908 5205c0,6 -5,11 -11,11 -6,0 -10,-5 -10,-11 0,-6 4,-11 10,-11 6,0 11,5 11,11z"/>
   <path class="fil1" d="M5956 5157c0,6 -5,11 -11,11 -6,0 -10,-5 -10,-11 0,-6 4,-11 10,-11 6,0 11,5 11,11z"/>
   <path class="fil1" d="M6004 5109c0,6 -5,11 -11,11 -6,0 -11,-5 -11,-11 0,-6 5,-11 11,-11 6,0 11,5 11,11z"/>
   <path class="fil1" d="M6052 5061c0,6 -5,11 -11,11 -6,0 -11,-5 -11,-11 0,-6 5,-11 11,-11 6,0 11,5 11,11z"/>
   <path class="fil1" d="M6100 5013c0,6 -5,11 -11,11 -6,0 -11,-5 -11,-11 0,-6 5,-11 11,-11 6,0 11,5 11,11z"/>
   <path class="fil1" d="M5908 5253c0,6 -5,11 -11,11 -6,0 -10,-5 -10,-11 0,-6 4,-11 10,-11 6,0 11,5 11,11z"/>
   <path class="fil1" d="M5956 5205c0,6 -5,11 -11,11 -6,0 -10,-5 -10,-11 0,-6 4,-11 10,-11 6,0 11,5 11,11z"/>
   <path class="fil1" d="M6004 5157c0,6 -5,11 -11,11 -6,0 -11,-5 -11,-11 0,-6 5,-11 11,-11 6,0 11,5 11,11z"/>
   <path class="fil1" d="M6052 5109c0,6 -5,11 -11,11 -6,0 -11,-5 -11,-11 0,-6 5,-11 11,-11 6,0 11,5 11,11z"/>
   <path class="fil1" d="M6100 5061c0,6 -5,11 -11,11 -6,0 -11,-5 -11,-11 0,-6 5,-11 11,-11 6,0 11,5 11,11z"/>
   <path class="fil1" d="M6148 5013c0,6 -5,11 -11,11 -6,0 -11,-5 -11,-11 0,-6 5,-11 11,-11 6,0 11,5 11,11z"/>
   <path class="fil1" d="M5908 5301c0,6 -5,10 -11,10 -6,0 -10,-4 -10,-10 0,-6 4,-11 10,-11 6,0 11,5 11,11z"/>
   <path class="fil1" d="M5956 5253c0,6 -5,11 -11,11 -6,0 -10,-5 -10,-11 0,-6 4,-11 10,-11 6,0 11,5 11,11z"/>
   <path class="fil1" d="M6004 5205c0,6 -5,11 -11,11 -6,0 -11,-5 -11,-11 0,-6 5,-11 11,-11 6,0 11,5 11,11z"/>
   <path class="fil1" d="M6052 5157c0,6 -5,11 -11,11 -6,0 -11,-5 -11,-11 0,-6 5,-11 11,-11 6,0 11,5 11,11z"/>
   <path class="fil1" d="M6100 5109c0,6 -5,11 -11,11 -6,0 -11,-5 -11,-11 0,-6 5,-11 11,-11 6,0 11,5 11,11z"/>
   <path class="fil1" d="M6148 5061c0,6 -5,11 -11,11 -6,0 -11,-5 -11,-11 0,-6 5,-11 11,-11 6,0 11,5 11,11z"/>
   <path class="fil1" d="M6196 5013c0,6 -5,11 -11,11 -6,0 -11,-5 -11,-11 0,-6 5,-11 11,-11 6,0 11,5 11,11z"/>
   <path class="fil1" d="M5908 5349c0,6 -5,10 -11,10 -6,0 -10,-4 -10,-10 0,-6 4,-11 10,-11 6,0 11,5 11,11z"/>
   <path class="fil1" d="M5956 5301c0,6 -5,10 -11,10 -6,0 -10,-4 -10,-10 0,-6 4,-11 10,-11 6,0 11,5 11,11z"/>
   <path class="fil1" d="M6004 5253c0,6 -5,11 -11,11 -6,0 -11,-5 -11,-11 0,-6 5,-11 11,-11 6,0 11,5 11,11z"/>
   <path class="fil1" d="M6052 5205c0,6 -5,11 -11,11 -6,0 -11,-5 -11,-11 0,-6 5,-11 11,-11 6,0 11,5 11,11z"/>
   <path class="fil1" d="M6100 5157c0,6 -5,11 -11,11 -6,0 -11,-5 -11,-11 0,-6 5,-11 11,-11 6,0 11,5 11,11z"/>
   <path class="fil1" d="M6148 5109c0,6 -5,11 -11,11 -6,0 -11,-5 -11,-11 0,-6 5,-11 11,-11 6,0 11,5 11,11z"/>
   <path class="fil1" d="M6196 5061c0,6 -5,11 -11,11 -6,0 -11,-5 -11,-11 0,-6 5,-11 11,-11 6,0 11,5 11,11z"/>
   <path class="fil1" d="M6244 5013c0,6 -5,11 -11,11 -6,0 -11,-5 -11,-11 0,-6 5,-11 11,-11 6,0 11,5 11,11z"/>
   <path class="fil1" d="M5908 5397c0,5 -5,10 -11,10 -6,0 -10,-5 -10,-10 0,-6 4,-11 10,-11 6,0 11,5 11,11z"/>
   <path class="fil1" d="M5956 5349c0,6 -5,10 -11,10 -6,0 -10,-4 -10,-10 0,-6 4,-11 10,-11 6,0 11,5 11,11z"/>
   <path class="fil1" d="M6004 5301c0,6 -5,10 -11,10 -6,0 -11,-4 -11,-10 0,-6 5,-11 11,-11 6,0 11,5 11,11z"/>
   <path class="fil1" d="M6052 5253c0,6 -5,11 -11,11 -6,0 -11,-5 -11,-11 0,-6 5,-11 11,-11 6,0 11,5 11,11z"/>
   <path class="fil1" d="M6100 5205c0,6 -5,11 -11,11 -6,0 -11,-5 -11,-11 0,-6 5,-11 11,-11 6,0 11,5 11,11z"/>
   <path class="fil1" d="M6148 5157c0,6 -5,11 -11,11 -6,0 -11,-5 -11,-11 0,-6 5,-11 11,-11 6,0 11,5 11,11z"/>
   <path class="fil1" d="M6196 5109c0,6 -5,11 -11,11 -6,0 -11,-5 -11,-11 0,-6 5,-11 11,-11 6,0 11,5 11,11z"/>
   <path class="fil1" d="M6244 5061c0,6 -5,11 -11,11 -6,0 -11,-5 -11,-11 0,-6 5,-11 11,-11 6,0 11,5 11,11z"/>
   <path class="fil1" d="M6281 5024l0 0c-6,0 -11,-5 -11,-11 0,-5 4,-10 9,-11l4 15 -2 7z"/>
   <path class="fil1" d="M5935 5400c0,-1 0,-2 0,-3 0,-6 4,-11 10,-11 6,0 10,4 11,9l-21 5z"/>
   <path class="fil1" d="M6004 5349c0,6 -5,10 -11,10 -6,0 -11,-4 -11,-10 0,-6 5,-11 11,-11 6,0 11,5 11,11z"/>
   <path class="fil1" d="M6052 5301c0,6 -5,10 -11,10 -6,0 -11,-4 -11,-10 0,-6 5,-11 11,-11 6,0 11,5 11,11z"/>
   <path class="fil1" d="M6100 5253c0,6 -5,11 -11,11 -6,0 -11,-5 -11,-11 0,-6 5,-11 11,-11 6,0 11,5 11,11z"/>
   <path class="fil1" d="M6148 5205c0,6 -5,11 -11,11 -6,0 -11,-5 -11,-11 0,-6 5,-11 11,-11 6,0 11,5 11,11z"/>
   <path class="fil1" d="M6196 5157c0,6 -5,11 -11,11 -6,0 -11,-5 -11,-11 0,-6 5,-11 11,-11 6,0 11,5 11,11z"/>
   <path class="fil1" d="M6244 5109c0,6 -5,11 -11,11 -6,0 -11,-5 -11,-11 0,-6 5,-11 11,-11 6,0 11,5 11,11z"/>
   <path class="fil1" d="M6271 5064c-1,-1 -1,-2 -1,-3 0,-3 1,-6 4,-8l-3 11z"/>
   <path class="fil1" d="M6052 5349c0,6 -5,10 -11,10 -6,0 -11,-4 -11,-10 0,-6 5,-11 11,-11 6,0 11,5 11,11z"/>
   <path class="fil1" d="M6100 5301c0,6 -5,10 -11,10 -6,0 -11,-4 -11,-10 0,-6 5,-11 11,-11 6,0 11,5 11,11z"/>
   <path class="fil1" d="M6148 5253c0,6 -5,11 -11,11 -6,0 -11,-5 -11,-11 0,-6 5,-11 11,-11 6,0 11,5 11,11z"/>
   <path class="fil1" d="M6196 5205c0,6 -5,11 -11,11 -6,0 -11,-5 -11,-11 0,-6 5,-11 11,-11 6,0 11,5 11,11z"/>
   <path class="fil1" d="M6244 5157c0,6 -5,11 -11,11 -6,0 -11,-5 -11,-11 0,-6 5,-11 11,-11 6,0 11,5 11,11z"/>
   <path class="fil1" d="M6087 5359c-5,-1 -9,-5 -9,-10 0,-6 5,-11 11,-11 5,0 10,3 11,8l-13 13z"/>
   <path class="fil1" d="M6135 5311c-5,-1 -9,-5 -9,-10 0,-6 5,-11 11,-11 5,0 10,4 11,9l-13 12z"/>
   <path class="fil1" d="M6183 5263c-5,-1 -9,-5 -9,-10 0,-6 5,-11 11,-11 5,0 10,4 11,9l-13 12z"/>
   <path class="fil1" d="M6230 5215c-5,-1 -8,-5 -8,-10 0,-6 5,-11 11,-11 1,0 2,0 2,0l-5 21z"/>
   <path class="fil1" d="M5860 4965c0,6 -5,11 -11,11 -6,0 -10,-5 -10,-11 0,-6 4,-11 10,-11 6,0 11,5 11,11z"/>
   <path class="fil1" d="M5812 4965c0,6 -5,11 -11,11 -6,0 -10,-5 -10,-11 0,-6 4,-11 10,-11 6,0 11,5 11,11z"/>
   <path class="fil1" d="M5860 5013c0,6 -5,11 -11,11 -6,0 -10,-5 -10,-11 0,-6 4,-11 10,-11 6,0 11,5 11,11z"/>
   <path class="fil1" d="M5764 4965c0,6 -5,11 -11,11 -5,0 -10,-5 -10,-11 0,-6 5,-11 10,-11 6,0 11,5 11,11z"/>
   <path class="fil1" d="M5812 5013c0,6 -5,11 -11,11 -6,0 -10,-5 -10,-11 0,-6 4,-11 10,-11 6,0 11,5 11,11z"/>
   <path class="fil1" d="M5860 5061c0,6 -5,11 -11,11 -6,0 -10,-5 -10,-11 0,-6 4,-11 10,-11 6,0 11,5 11,11z"/>
   <path class="fil1" d="M5716 4965c0,6 -5,11 -11,11 -6,0 -10,-5 -10,-11 0,-6 4,-11 10,-11 6,0 11,5 11,11z"/>
   <path class="fil1" d="M5764 5013c0,6 -5,11 -11,11 -5,0 -10,-5 -10,-11 0,-6 5,-11 10,-11 6,0 11,5 11,11z"/>
   <path class="fil1" d="M5812 5061c0,6 -5,11 -11,11 -6,0 -10,-5 -10,-11 0,-6 4,-11 10,-11 6,0 11,5 11,11z"/>
   <path class="fil1" d="M5860 5109c0,6 -5,11 -11,11 -6,0 -10,-5 -10,-11 0,-6 4,-11 10,-11 6,0 11,5 11,11z"/>
   <path class="fil1" d="M5668 4965c0,6 -5,11 -10,11 -7,0 -11,-5 -11,-11 0,-6 4,-11 11,-11 5,0 10,5 10,11z"/>
   <path class="fil1" d="M5716 5013c0,6 -5,11 -11,11 -6,0 -10,-5 -10,-11 0,-6 4,-11 10,-11 6,0 11,5 11,11z"/>
   <path class="fil1" d="M5764 5061c0,6 -5,11 -11,11 -5,0 -10,-5 -10,-11 0,-6 5,-11 10,-11 6,0 11,5 11,11z"/>
   <path class="fil1" d="M5812 5109c0,6 -5,11 -11,11 -6,0 -10,-5 -10,-11 0,-6 4,-11 10,-11 6,0 11,5 11,11z"/>
   <path class="fil1" d="M5860 5157c0,6 -5,11 -11,11 -6,0 -10,-5 -10,-11 0,-6 4,-11 10,-11 6,0 11,5 11,11z"/>
   <path class="fil1" d="M5620 4965c0,6 -5,11 -10,11 -7,0 -11,-5 -11,-11 0,-6 4,-11 11,-11 5,0 10,5 10,11z"/>
   <path class="fil1" d="M5668 5013c0,6 -5,11 -10,11 -7,0 -11,-5 -11,-11 0,-6 4,-11 11,-11 5,0 10,5 10,11z"/>
   <path class="fil1" d="M5716 5061c0,6 -5,11 -11,11 -6,0 -10,-5 -10,-11 0,-6 4,-11 10,-11 6,0 11,5 11,11z"/>
   <path class="fil1" d="M5764 5109c0,6 -5,11 -11,11 -5,0 -10,-5 -10,-11 0,-6 5,-11 10,-11 6,0 11,5 11,11z"/>
   <path class="fil1" d="M5812 5157c0,6 -5,11 -11,11 -6,0 -10,-5 -10,-11 0,-6 4,-11 10,-11 6,0 11,5 11,11z"/>
   <path class="fil1" d="M5860 5205c0,6 -5,11 -11,11 -6,0 -10,-5 -10,-11 0,-6 4,-11 10,-11 6,0 11,5 11,11z"/>
   <path class="fil1" d="M5572 4965c0,6 -4,11 -10,11 -6,0 -11,-5 -11,-11 0,-6 5,-11 11,-11 6,0 10,5 10,11z"/>
   <path class="fil1" d="M5620 5013c0,6 -5,11 -10,11 -7,0 -11,-5 -11,-11 0,-6 4,-11 11,-11 5,0 10,5 10,11z"/>
   <path class="fil1" d="M5668 5061c0,6 -5,11 -10,11 -7,0 -11,-5 -11,-11 0,-6 4,-11 11,-11 5,0 10,5 10,11z"/>
   <path class="fil1" d="M5716 5109c0,6 -5,11 -11,11 -6,0 -10,-5 -10,-11 0,-6 4,-11 10,-11 6,0 11,5 11,11z"/>
   <path class="fil1" d="M5764 5157c0,6 -5,11 -11,11 -5,0 -10,-5 -10,-11 0,-6 5,-11 10,-11 6,0 11,5 11,11z"/>
   <path class="fil1" d="M5812 5205c0,6 -5,11 -11,11 -6,0 -10,-5 -10,-11 0,-6 4,-11 10,-11 6,0 11,5 11,11z"/>
   <path class="fil1" d="M5860 5253c0,6 -5,11 -11,11 -6,0 -10,-5 -10,-11 0,-6 4,-11 10,-11 6,0 11,5 11,11z"/>
   <path class="fil1" d="M5524 4965c0,6 -4,11 -11,11 -5,0 -10,-5 -10,-10l2 -7c1,-3 5,-5 8,-5 7,0 11,5 11,11z"/>
   <path class="fil1" d="M5572 5013c0,6 -4,11 -10,11 -6,0 -11,-5 -11,-11 0,-6 5,-11 11,-11 6,0 10,5 10,11z"/>
   <path class="fil1" d="M5620 5061c0,6 -5,11 -10,11 -7,0 -11,-5 -11,-11 0,-6 4,-11 11,-11 5,0 10,5 10,11z"/>
   <path class="fil1" d="M5668 5109c0,6 -5,11 -10,11 -7,0 -11,-5 -11,-11 0,-6 4,-11 11,-11 5,0 10,5 10,11z"/>
   <path class="fil1" d="M5716 5157c0,6 -5,11 -11,11 -6,0 -10,-5 -10,-11 0,-6 4,-11 10,-11 6,0 11,5 11,11z"/>
   <path class="fil1" d="M5764 5205c0,6 -5,11 -11,11 -5,0 -10,-5 -10,-11 0,-6 5,-11 10,-11 6,0 11,5 11,11z"/>
   <path class="fil1" d="M5812 5253c0,6 -5,11 -11,11 -6,0 -10,-5 -10,-11 0,-6 4,-11 10,-11 6,0 11,5 11,11z"/>
   <path class="fil1" d="M5860 5301c0,6 -5,10 -11,10 -6,0 -10,-4 -10,-10 0,-6 4,-11 10,-11 6,0 11,5 11,11z"/>
   <path class="fil1" d="M5524 5013c0,6 -4,11 -11,11 -5,0 -10,-5 -10,-11 0,-6 5,-11 10,-11 7,0 11,5 11,11z"/>
   <path class="fil1" d="M5572 5061c0,6 -4,11 -10,11 -6,0 -11,-5 -11,-11 0,-6 5,-11 11,-11 6,0 10,5 10,11z"/>
   <path class="fil1" d="M5620 5109c0,6 -5,11 -10,11 -7,0 -11,-5 -11,-11 0,-6 4,-11 11,-11 5,0 10,5 10,11z"/>
   <path class="fil1" d="M5668 5157c0,6 -5,11 -10,11 -7,0 -11,-5 -11,-11 0,-6 4,-11 11,-11 5,0 10,5 10,11z"/>
   <path class="fil1" d="M5716 5205c0,6 -5,11 -11,11 -6,0 -10,-5 -10,-11 0,-6 4,-11 10,-11 6,0 11,5 11,11z"/>
   <path class="fil1" d="M5764 5253c0,6 -5,11 -11,11 -5,0 -10,-5 -10,-11 0,-6 5,-11 10,-11 6,0 11,5 11,11z"/>
   <path class="fil1" d="M5812 5301c0,6 -5,10 -11,10 -6,0 -10,-4 -10,-10 0,-6 4,-11 10,-11 6,0 11,5 11,11z"/>
   <path class="fil1" d="M5860 5349c0,6 -5,10 -11,10 -6,0 -10,-4 -10,-10 0,-6 4,-11 10,-11 6,0 11,5 11,11z"/>
   <path class="fil1" d="M5524 5061c0,6 -4,11 -11,11 -5,0 -10,-5 -10,-11 0,-6 5,-11 10,-11 7,0 11,5 11,11z"/>
   <path class="fil1" d="M5572 5109c0,6 -4,11 -10,11 -6,0 -11,-5 -11,-11 0,-6 5,-11 11,-11 6,0 10,5 10,11z"/>
   <path class="fil1" d="M5620 5157c0,6 -5,11 -10,11 -7,0 -11,-5 -11,-11 0,-6 4,-11 11,-11 5,0 10,5 10,11z"/>
   <path class="fil1" d="M5668 5205c0,6 -5,11 -10,11 -7,0 -11,-5 -11,-11 0,-6 4,-11 11,-11 5,0 10,5 10,11z"/>
   <path class="fil1" d="M5716 5253c0,6 -5,11 -11,11 -6,0 -10,-5 -10,-11 0,-6 4,-11 10,-11 6,0 11,5 11,11z"/>
   <path class="fil1" d="M5764 5301c0,6 -5,10 -11,10 -5,0 -10,-4 -10,-10 0,-6 5,-11 10,-11 6,0 11,5 11,11z"/>
   <path class="fil1" d="M5812 5349c0,6 -5,10 -11,10 -6,0 -10,-4 -10,-10 0,-6 4,-11 10,-11 6,0 11,5 11,11z"/>
   <path class="fil1" d="M5860 5397c0,3 -2,7 -5,8l-15 -4c-1,-1 -1,-3 -1,-4 0,-6 4,-11 10,-11 6,0 11,5 11,11z"/>
   <path class="fil1" d="M5524 5109c0,5 -3,9 -7,10l-6 -21c1,0 2,0 2,0 7,0 11,5 11,11z"/>
   <path class="fil1" d="M5572 5157c0,6 -4,11 -10,11 -6,0 -11,-5 -11,-11 0,-6 5,-11 11,-11 6,0 10,5 10,11z"/>
   <path class="fil1" d="M5620 5205c0,6 -5,11 -10,11 -7,0 -11,-5 -11,-11 0,-6 4,-11 11,-11 5,0 10,5 10,11z"/>
   <path class="fil1" d="M5668 5253c0,6 -5,11 -10,11 -7,0 -11,-5 -11,-11 0,-6 4,-11 11,-11 5,0 10,5 10,11z"/>
   <path class="fil1" d="M5716 5301c0,6 -5,10 -11,10 -6,0 -10,-4 -10,-10 0,-6 4,-11 10,-11 6,0 11,5 11,11z"/>
   <path class="fil1" d="M5764 5349c0,6 -5,10 -11,10 -5,0 -10,-4 -10,-10 0,-6 5,-11 10,-11 6,0 11,5 11,11z"/>
   <path class="fil1" d="M5794 5389c2,-2 5,-3 7,-3 5,0 9,3 11,8l-18 -5z"/>
   <path class="fil1" d="M5572 5205c0,6 -4,11 -10,11 -6,0 -11,-5 -11,-11 0,-6 5,-11 11,-11 6,0 10,5 10,11z"/>
   <path class="fil1" d="M5620 5253c0,6 -5,11 -10,11 -7,0 -11,-5 -11,-11 0,-6 4,-11 11,-11 5,0 10,5 10,11z"/>
   <path class="fil1" d="M5668 5301c0,6 -5,10 -10,10 -7,0 -11,-4 -11,-10 0,-6 4,-11 11,-11 5,0 10,5 10,11z"/>
   <path class="fil1" d="M5716 5349c0,6 -5,10 -11,10 -6,0 -10,-4 -10,-10 0,-6 4,-11 10,-11 6,0 11,5 11,11z"/>
   <path class="fil1" d="M5860 4917c0,6 -5,11 -11,11 -6,0 -10,-5 -10,-11 0,-6 4,-11 10,-11 6,0 11,5 11,11z"/>
   <path class="fil1" d="M5860 4869c0,6 -5,11 -11,11 -6,0 -10,-5 -10,-11 0,-6 4,-10 10,-10 6,0 11,4 11,10z"/>
   <path class="fil1" d="M5812 4917c0,6 -5,11 -11,11 -6,0 -10,-5 -10,-11 0,-6 4,-11 10,-11 6,0 11,5 11,11z"/>
   <path class="fil1" d="M5860 4821c0,6 -5,11 -11,11 -6,0 -10,-5 -10,-11 0,-6 4,-10 10,-10 6,0 11,4 11,10z"/>
   <path class="fil1" d="M5812 4869c0,6 -5,11 -11,11 -6,0 -10,-5 -10,-11 0,-6 4,-10 10,-10 6,0 11,4 11,10z"/>
   <path class="fil1" d="M5764 4917c0,6 -5,11 -11,11 -5,0 -10,-5 -10,-11 0,-6 5,-11 10,-11 6,0 11,5 11,11z"/>
   <path class="fil1" d="M5860 4773c0,6 -5,11 -11,11 -6,0 -10,-5 -10,-11 0,-6 4,-10 10,-10 6,0 11,4 11,10z"/>
   <path class="fil1" d="M5812 4821c0,6 -5,11 -11,11 -6,0 -10,-5 -10,-11 0,-6 4,-10 10,-10 6,0 11,4 11,10z"/>
   <path class="fil1" d="M5764 4869c0,6 -5,11 -11,11 -5,0 -10,-5 -10,-11 0,-6 5,-10 10,-10 6,0 11,4 11,10z"/>
   <path class="fil1" d="M5716 4917c0,6 -5,11 -11,11 -6,0 -10,-5 -10,-11 0,-6 4,-11 10,-11 6,0 11,5 11,11z"/>
   <path class="fil1" d="M5860 4725c0,6 -5,11 -11,11 -6,0 -10,-5 -10,-11 0,-5 4,-10 10,-10 6,0 11,5 11,10z"/>
   <path class="fil1" d="M5812 4773c0,6 -5,11 -11,11 -6,0 -10,-5 -10,-11 0,-6 4,-10 10,-10 6,0 11,4 11,10z"/>
   <path class="fil1" d="M5764 4821c0,6 -5,11 -11,11 -5,0 -10,-5 -10,-11 0,-6 5,-10 10,-10 6,0 11,4 11,10z"/>
   <path class="fil1" d="M5716 4869c0,6 -5,11 -11,11 -6,0 -10,-5 -10,-11 0,-6 4,-10 10,-10 6,0 11,4 11,10z"/>
   <path class="fil1" d="M5668 4917c0,6 -5,11 -10,11 -7,0 -11,-5 -11,-11 0,-6 4,-11 11,-11 5,0 10,5 10,11z"/>
   <path class="fil1" d="M5860 4678c0,5 -5,10 -11,10 -6,0 -10,-5 -10,-10 0,-6 4,-11 10,-11 6,0 11,5 11,11z"/>
   <path class="fil1" d="M5812 4725c0,6 -5,11 -11,11 -6,0 -10,-5 -10,-11 0,-5 4,-10 10,-10 6,0 11,5 11,10z"/>
   <path class="fil1" d="M5764 4773c0,6 -5,11 -11,11 -5,0 -10,-5 -10,-11 0,-6 5,-10 10,-10 6,0 11,4 11,10z"/>
   <path class="fil1" d="M5716 4821c0,6 -5,11 -11,11 -6,0 -10,-5 -10,-11 0,-6 4,-10 10,-10 6,0 11,4 11,10z"/>
   <path class="fil1" d="M5668 4869c0,6 -5,11 -10,11 -7,0 -11,-5 -11,-11 0,-6 4,-10 11,-10 5,0 10,4 10,10z"/>
   <path class="fil1" d="M5620 4917c0,6 -5,11 -10,11 -7,0 -11,-5 -11,-11 0,-6 4,-11 11,-11 5,0 10,5 10,11z"/>
   <path class="fil1" d="M5860 4630c0,6 -5,10 -11,10 -5,0 -9,-3 -10,-8l21 -5c0,1 0,2 0,3z"/>
   <path class="fil1" d="M5812 4678c0,5 -5,10 -11,10 -6,0 -10,-5 -10,-10 0,-6 4,-11 10,-11 6,0 11,5 11,11z"/>
   <path class="fil1" d="M5764 4725c0,6 -5,11 -11,11 -5,0 -10,-5 -10,-11 0,-5 5,-10 10,-10 6,0 11,5 11,10z"/>
   <path class="fil1" d="M5716 4773c0,6 -5,11 -11,11 -6,0 -10,-5 -10,-11 0,-6 4,-10 10,-10 6,0 11,4 11,10z"/>
   <path class="fil1" d="M5668 4821c0,6 -5,11 -10,11 -7,0 -11,-5 -11,-11 0,-6 4,-10 11,-10 5,0 10,4 10,10z"/>
   <path class="fil1" d="M5620 4869c0,6 -5,11 -10,11 -7,0 -11,-5 -11,-11 0,-6 4,-10 11,-10 5,0 10,4 10,10z"/>
   <path class="fil1" d="M5572 4917c0,6 -4,11 -10,11 -6,0 -11,-5 -11,-11 0,-6 5,-11 11,-11 6,0 10,5 10,11z"/>
   <path class="fil1" d="M5764 4678c0,5 -5,10 -11,10 -5,0 -10,-5 -10,-10 0,-6 5,-11 10,-11 6,0 11,5 11,11z"/>
   <path class="fil1" d="M5716 4725c0,6 -5,11 -11,11 -6,0 -10,-5 -10,-11 0,-5 4,-10 10,-10 6,0 11,5 11,10z"/>
   <path class="fil1" d="M5668 4773c0,6 -5,11 -10,11 -7,0 -11,-5 -11,-11 0,-6 4,-10 11,-10 5,0 10,4 10,10z"/>
   <path class="fil1" d="M5620 4821c0,6 -5,11 -10,11 -7,0 -11,-5 -11,-11 0,-6 4,-10 11,-10 5,0 10,4 10,10z"/>
   <path class="fil1" d="M5572 4869c0,6 -4,11 -10,11 -6,0 -11,-5 -11,-11 0,-6 5,-10 11,-10 6,0 10,4 10,10z"/>
   <path class="fil1" d="M5524 4917c0,6 -4,11 -11,11l0 0 5 -20c4,1 6,5 6,9z"/>
   <path class="fil1" d="M5716 4678c0,5 -5,10 -11,10 -6,0 -10,-5 -10,-10 0,-3 0,-5 2,-7l12 -3c4,1 7,5 7,10z"/>
   <path class="fil1" d="M5668 4725c0,6 -5,11 -10,11 -7,0 -11,-5 -11,-11 0,-5 4,-10 11,-10 5,0 10,5 10,10z"/>
   <path class="fil1" d="M5620 4773c0,6 -5,11 -10,11 -7,0 -11,-5 -11,-11 0,-6 4,-10 11,-10 5,0 10,4 10,10z"/>
   <path class="fil1" d="M5572 4821c0,6 -4,11 -10,11 -6,0 -11,-5 -11,-11 0,-6 5,-10 11,-10 6,0 10,4 10,10z"/>
   <path class="fil0" d="M6153 4208c0,41 -33,73 -73,73 -40,0 -73,-32 -73,-73 0,-40 33,-73 73,-73 40,0 73,33 73,73z"/>
   <path class="fil0" d="M6292 4084c0,22 -17,39 -38,39 -21,0 -39,-17 -39,-39 0,-20 18,-38 39,-38 21,0 38,18 38,38z"/>
   <path class="fil0" d="M4968 3381c0,40 -33,73 -73,73 -41,0 -74,-33 -74,-73 0,-41 33,-73 74,-73 40,0 73,32 73,73z"/>
   <path class="fil0" d="M5106 3257c0,21 -17,38 -38,38 -21,0 -38,-17 -38,-38 0,-21 17,-38 38,-38 21,0 38,17 38,38z"/>
   <path class="fil0" d="M2674 5163c-38,12 -79,-10 -91,-48 -12,-39 10,-80 48,-92 39,-12 80,10 91,49 12,38 -9,79 -48,91z"/>
   <path class="fil0" d="M5487 3702c-20,6 -42,-5 -48,-25 -6,-21 5,-42 25,-48 20,-6 42,5 48,25 6,20 -5,41 -25,48z"/>
   <path class="fil0" d="M3491 3330c-20,6 -42,-5 -48,-25 -6,-20 5,-41 25,-48 20,-6 42,5 48,26 6,20 -5,41 -25,47z"/>
   <path class="fil0" d="M6060 5053c-21,6 -42,-5 -48,-25 -6,-20 5,-41 25,-48 20,-6 41,5 48,25 6,21 -5,42 -25,48z"/>
   <path class="fil0" d="M2577 4208c0,41 -33,73 -73,73 -41,0 -73,-32 -73,-73 0,-40 32,-73 73,-73 40,0 73,33 73,73z"/>
   <path class="fil0" d="M2716 4084c0,22 -18,39 -38,39 -22,0 -39,-17 -39,-39 0,-20 17,-38 39,-38 20,0 38,18 38,38z"/>
   <path class="fil0" d="M5509 5377c-1,-2 1,2 0,-2 -1,-3 -3,-8 -5,-13 -23,-64 -59,-113 -83,-179 -19,-51 -24,-117 -9,-171 1,-5 2,-8 4,-12 10,-17 17,-33 32,-49 37,-40 79,-69 99,-122 1,-3 1,-4 2,-8 0,-3 1,-11 1,-16 2,-26 -4,-56 -7,-81 -4,-32 -4,-70 23,-89 33,-23 70,2 106,-8 40,-12 61,-42 81,-78 3,-4 5,-10 8,-15 30,-56 54,-104 123,-114 39,-6 81,11 121,15 3,0 8,2 12,2 4,0 8,1 12,1 70,0 138,-15 208,-23 1,0 0,0 3,0 2,0 9,-1 13,-1 49,-1 97,0 138,29 12,8 17,18 24,30 1,3 3,6 4,9 8,32 9,64 -16,91 -24,27 -57,30 -91,36 -4,1 -9,2 -13,3 -15,3 -30,8 -41,16 -29,21 -35,60 -69,73 -34,13 -72,-12 -107,-1 -3,1 -6,2 -8,4 -3,2 -5,3 -8,6 -22,23 -26,56 -50,79 -18,16 -44,20 -67,30 -3,2 -5,2 -12,6 -1,0 15,-10 -5,3 -21,14 -20,68 -18,106 2,31 -48,38 -72,39 -8,0 -17,2 -24,3 -6,1 -11,2 -17,5 -13,7 -23,16 -25,32 -3,21 6,43 11,63 1,4 1,9 2,11 0,2 0,1 0,2 -2,29 -18,49 -38,70 -4,4 -7,8 -12,13 -70,84 -138,144 -230,205z"/>
   <path class="fil0" d="M5483 5373c-1,-5 -2,-9 -4,-14 17,-35 36,-69 54,-105 6,-12 14,-25 18,-39 -15,-19 -30,-40 -44,-59 -38,-51 -78,-101 -121,-148 2,-3 3,-7 5,-11 59,66 110,137 163,206 23,-73 49,-144 82,-213 0,-3 0,-5 2,-6 -12,-22 -26,-45 -40,-66 -22,-36 -47,-68 -75,-99 1,-5 2,-11 2,-16 45,53 84,110 119,171 1,-2 1,-4 2,-6 37,-64 78,-121 129,-174 -1,-3 0,-5 3,-6 -3,-22 -6,-44 -10,-65 -11,-60 -26,-118 -40,-177 3,-5 5,-10 8,-15 0,2 1,4 1,6 20,82 39,162 50,245 19,-17 39,-34 58,-51 30,-27 60,-53 93,-76 6,-26 12,-52 18,-78 10,-48 20,-96 23,-145 4,1 8,1 13,2 -7,72 -25,142 -42,212 50,-32 101,-59 158,-81 23,-10 50,-17 74,-25 1,0 1,0 1,0 -1,-47 8,-86 30,-128 5,0 10,-1 14,-1 -22,40 -33,80 -33,126 69,-17 132,-36 196,-67 0,2 4,6 3,9 -1,2 -5,2 -8,4 -61,28 -121,46 -187,63 29,21 58,41 88,60 -4,1 -8,2 -13,3 -30,-19 -58,-40 -87,-60 -35,11 -72,22 -106,37 -47,20 -91,45 -133,74 -1,1 0,2 0,3 -1,0 -1,0 -1,0 36,10 69,22 102,38 -2,2 -5,4 -7,6 -34,-15 -67,-26 -102,-37 -2,0 -2,-1 -3,-2 -39,29 -73,61 -109,93 -10,9 -21,18 -31,27 45,3 86,11 128,28 -4,1 -7,3 -11,5 0,0 0,0 0,0 -41,-15 -82,-22 -126,-24 -1,1 -2,2 -4,2 -52,55 -93,112 -130,178 47,-16 91,-17 140,-4 -6,1 -12,3 -17,5 -46,-8 -88,-5 -131,15 -2,4 -3,8 -5,12 -31,66 -55,136 -77,206 18,-15 37,-32 55,-47 45,-38 90,-67 144,-91 1,4 1,8 1,11 -75,35 -133,84 -195,137 0,1 0,1 1,1 2,6 -3,11 -8,6 -1,-1 -1,-2 -2,-3 -8,21 -20,41 -31,61 -16,28 -31,57 -45,87z"/>
   <path class="fil0" d="M5888 4138c1,81 -30,155 -68,227 -3,4 -5,8 -7,12 -13,25 -27,48 -40,72 -26,48 -51,101 -75,156 -2,5 -4,10 -6,14 -22,53 -43,108 -63,165 -1,5 -3,9 -4,14 -1,4 -3,8 -4,12 -2,6 -4,12 -6,18 -25,76 -46,155 -64,233 0,3 -1,6 -2,9 0,2 0,3 -1,5 -1,7 -3,13 -4,19 -1,6 -2,12 -4,18 -12,59 -22,117 -28,173 -2,15 -4,29 -5,44 -2,19 -4,37 -5,56l-7 2 -1 0c0,0 -1,0 -1,0l-104 0c-4,-92 -7,-184 -8,-275 0,-5 0,-9 0,-14 0,-93 2,-186 9,-278 0,-5 1,-10 1,-15 0,-1 0,-2 0,-4 3,-29 5,-58 9,-87 3,-25 6,-49 10,-74 1,-4 1,-8 2,-13 17,-104 43,-207 79,-305 1,-4 3,-9 5,-13 33,-87 75,-171 127,-247 0,0 0,0 0,-1 2,-3 5,-6 7,-9 31,-44 72,-85 123,-86 18,-1 36,4 52,13 4,1 7,4 11,6 14,9 28,22 38,37 16,23 26,50 31,78 0,4 1,8 1,12 1,9 2,17 2,26z"/>
   <path class="fil0" d="M5662 4398c52,-14 104,-25 158,-33 -3,4 -5,8 -7,12 -81,13 -160,33 -237,59 0,0 -1,0 -2,0 -11,31 -22,62 -31,93 -16,51 -30,103 -43,156 64,-30 130,-57 198,-80 -2,5 -4,10 -6,14 -66,23 -131,49 -194,79 -1,1 -1,0 -1,1 -10,41 -19,83 -26,126 -2,13 -4,26 -7,39 53,-31 108,-58 165,-80 -1,5 -3,9 -4,14 -56,22 -110,49 -162,80 0,0 0,0 -1,0 -3,18 -5,37 -7,55 -9,64 -14,128 -17,192 7,-4 13,-8 20,-12 1,-1 3,-2 4,-3 20,-12 40,-23 61,-34 5,-3 9,-5 14,-8 4,-2 7,-3 11,-5 1,-1 2,-1 3,-2 0,3 -1,6 -2,9 0,2 0,3 -1,5 -2,2 -5,3 -8,5 -4,2 -8,4 -12,6 -22,12 -43,24 -64,36 -3,2 -7,5 -10,7 -1,0 -2,1 -3,1 -4,3 -8,5 -12,8 -1,0 -1,0 -1,1 -1,0 -1,1 -1,1 1,1 1,2 0,2 0,11 0,23 0,34 -2,50 -1,100 1,150 0,7 0,14 1,21 1,13 1,26 2,40l-11 0c-1,-19 -2,-39 -3,-58 -1,-8 -1,-15 -1,-23 -1,-30 -2,-60 -1,-90 0,-24 0,-48 1,-72 -15,-11 -30,-22 -45,-32 0,-5 0,-9 0,-14 16,11 31,22 46,33 0,-15 1,-29 1,-44 4,-58 10,-115 18,-173 1,-11 3,-23 4,-34 -13,-14 -27,-28 -41,-42 -6,-6 -13,-12 -19,-18 0,-5 1,-10 1,-15 1,2 3,3 4,4 20,19 39,37 57,57 5,-28 10,-56 15,-84 5,-26 11,-51 16,-77 0,0 -1,0 -1,-1 -23,-22 -47,-44 -72,-64 1,-4 1,-8 2,-13 26,21 51,43 74,66 17,-71 37,-140 59,-209 6,-16 12,-32 17,-49 -23,-37 -47,-75 -71,-113 1,-4 3,-9 5,-13 24,38 48,75 71,113 28,-76 60,-150 95,-222 4,-7 7,-15 11,-23 -15,-39 -31,-77 -50,-115 0,0 0,0 0,-1 2,-3 5,-6 7,-9 19,36 35,74 50,112 17,-34 35,-68 55,-100 20,-32 42,-61 70,-85 4,1 7,4 11,6 -1,0 -1,0 -1,0 -40,33 -68,78 -92,123 -13,23 -25,46 -37,69 23,-11 45,-21 69,-31 42,-17 85,-32 130,-46 0,4 1,8 1,12 -69,21 -137,47 -202,78 -1,1 -3,1 -4,0 -9,18 -18,36 -26,54 -28,58 -52,118 -75,179 28,-9 55,-18 83,-25z"/>
   <path class="fil0" d="M3213 5377c1,-2 0,2 1,-2 1,-3 2,-8 4,-13 23,-64 59,-113 84,-179 18,-51 24,-117 8,-171 -1,-5 -2,-8 -4,-12 -9,-17 -17,-33 -31,-49 -38,-40 -80,-69 -100,-122 0,-3 -1,-4 -1,-8 -1,-3 -2,-11 -2,-16 -2,-26 4,-56 8,-81 4,-32 3,-70 -24,-89 -32,-23 -70,2 -105,-8 -41,-12 -61,-42 -82,-78 -3,-4 -5,-10 -8,-15 -30,-56 -53,-104 -123,-114 -39,-6 -81,11 -120,15 -4,0 -9,2 -13,2 -4,0 -8,1 -12,1 -70,0 -138,-15 -208,-23 -1,0 0,0 -2,0 -3,0 -9,-1 -14,-1 -49,-1 -96,0 -138,29 -12,8 -16,18 -23,30 -2,3 -4,6 -4,9 -9,32 -9,64 15,91 24,27 57,30 92,36 4,1 9,2 13,3 14,3 30,8 41,16 29,21 35,60 69,73 34,13 71,-12 106,-1 3,1 6,2 9,4 2,2 5,3 7,6 22,23 27,56 50,79 18,16 44,20 67,30 4,2 6,2 13,6 0,0 -16,-10 5,3 20,14 20,68 17,106 -2,31 49,38 72,39 8,0 17,2 24,3 7,1 12,2 17,5 13,7 24,16 26,32 2,21 -7,43 -12,63 -1,4 -1,9 -1,11 -1,2 -1,1 -1,2 2,29 18,49 38,70 4,4 8,8 12,13 70,84 138,144 230,205z"/>
   <path class="fil0" d="M3239 5373c1,-5 3,-9 4,-14 -17,-35 -36,-69 -53,-105 -7,-12 -15,-25 -19,-39 15,-19 30,-40 45,-59 38,-51 77,-101 120,-148 -1,-3 -3,-7 -4,-11 -60,66 -110,137 -164,206 -23,-73 -49,-144 -82,-213 1,-3 0,-5 -2,-6 12,-22 27,-45 40,-66 23,-36 48,-68 75,-99 -1,-5 -1,-11 -2,-16 -44,53 -84,110 -118,171 -1,-2 -2,-4 -3,-6 -37,-64 -77,-121 -128,-174 0,-3 -1,-5 -4,-6 3,-22 6,-44 10,-65 11,-60 26,-118 41,-177 -3,-5 -6,-10 -8,-15 -1,2 -1,4 -2,6 -19,82 -38,162 -50,245 -19,-17 -39,-34 -58,-51 -30,-27 -60,-53 -93,-76 -5,-26 -12,-52 -18,-78 -10,-48 -20,-96 -23,-145 -4,1 -8,1 -12,2 6,72 24,142 41,212 -50,-32 -101,-59 -157,-81 -24,-10 -50,-17 -75,-25 0,0 -1,0 -1,0 1,-47 -8,-86 -30,-128 -5,0 -9,-1 -14,-1 23,40 33,80 33,126 -69,-17 -131,-36 -195,-67 0,2 -5,6 -3,9 1,2 4,2 7,4 61,28 122,46 187,63 -29,21 -58,41 -88,60 4,1 9,2 13,3 30,-19 58,-40 87,-60 35,11 72,22 106,37 48,20 91,45 133,74 1,1 0,2 1,3 0,0 0,0 0,0 -35,10 -69,22 -102,38 3,2 5,4 8,6 33,-15 67,-26 102,-37 1,0 2,-1 3,-2 38,29 73,61 108,93 10,9 21,18 31,27 -44,3 -86,11 -128,28 4,1 8,3 11,5 1,0 0,0 1,0 41,-15 81,-22 125,-24 1,1 3,2 4,2 53,55 94,112 131,178 -48,-16 -92,-17 -140,-4 6,1 11,3 17,5 46,-8 88,-5 130,15 2,4 4,8 6,12 31,66 55,136 76,206 -18,-15 -37,-32 -54,-47 -46,-38 -91,-67 -144,-91 -1,4 -2,8 -2,11 76,35 133,84 195,137 0,1 0,1 0,1 -3,6 2,11 7,6 1,-1 2,-2 3,-3 8,21 20,41 30,61 16,28 31,57 45,87z"/>
   <path class="fil0" d="M2834 4138c-1,81 31,155 69,227 2,4 4,8 6,12 14,25 27,48 40,72 26,48 52,101 76,156 2,5 4,10 5,14 23,53 44,108 63,165 1,5 3,9 5,14 1,4 2,8 3,12 2,6 5,12 6,18 25,76 46,155 64,233 1,3 1,6 2,9 0,2 1,3 1,5 2,7 3,13 4,19 2,6 3,12 4,18 12,59 22,117 29,173 2,15 3,29 5,44 2,19 3,37 5,56l6 2 2 0c0,0 0,0 0,0l105 0c3,-92 6,-184 7,-275 0,-5 0,-9 0,-14 1,-93 -2,-186 -9,-278 0,-5 0,-10 -1,-15 0,-1 0,-2 0,-4 -2,-29 -5,-58 -9,-87 -3,-25 -6,-49 -10,-74 0,-4 -1,-8 -2,-13 -17,-104 -42,-207 -78,-305 -2,-4 -4,-9 -5,-13 -34,-87 -75,-171 -127,-247 -1,0 -1,0 -1,-1 -2,-3 -4,-6 -7,-9 -31,-44 -71,-85 -123,-86 -18,-1 -36,4 -52,13 -4,1 -7,4 -10,6 -15,9 -28,22 -39,37 -16,23 -26,50 -30,78 -1,4 -2,8 -2,12 -1,9 -2,17 -2,26z"/>
   <path class="fil0" d="M3060 4398c-51,-14 -104,-25 -157,-33 2,4 4,8 6,12 81,13 160,33 237,59 1,0 1,0 2,0 11,31 22,62 32,93 16,51 30,103 42,156 -64,-30 -130,-57 -197,-80 2,5 4,10 5,14 67,23 132,49 195,79 0,1 0,0 0,1 10,41 19,83 27,126 2,13 4,26 6,39 -53,-31 -108,-58 -165,-80 1,5 3,9 5,14 56,22 110,49 161,80 0,0 1,0 1,0 3,18 5,37 8,55 8,64 14,128 17,192 -7,-4 -14,-8 -21,-12 -1,-1 -2,-2 -4,-3 -20,-12 -40,-23 -60,-34 -5,-3 -10,-5 -15,-8 -3,-2 -7,-3 -10,-5 -2,-1 -3,-1 -4,-2 1,3 1,6 2,9 0,2 1,3 1,5 3,2 6,3 8,5 4,2 9,4 13,6 21,12 42,24 63,36 4,2 7,5 11,7 0,0 1,1 2,1 4,3 8,5 13,8 0,0 1,0 1,1 0,0 0,1 0,1 0,1 0,2 0,2 0,11 1,23 1,34 1,50 1,100 -1,150 -1,7 -1,14 -2,21 0,13 -1,26 -2,40l11 0c2,-19 3,-39 4,-58 0,-8 0,-15 1,-23 1,-30 1,-60 1,-90 0,-24 -1,-48 -2,-72 15,-11 30,-22 45,-32 0,-5 0,-9 0,-14 -15,11 -30,22 -45,33 -1,-15 -1,-29 -2,-44 -4,-58 -9,-115 -17,-173 -2,-11 -3,-23 -5,-34 13,-14 27,-28 41,-42 7,-6 13,-12 19,-18 0,-5 0,-10 -1,-15 -1,2 -2,3 -4,4 -19,19 -39,37 -57,57 -5,-28 -9,-56 -15,-84 -5,-26 -10,-51 -16,-77 1,0 1,0 1,-1 23,-22 47,-44 72,-64 0,-4 -1,-8 -2,-13 -25,21 -50,43 -74,66 -16,-71 -36,-140 -59,-209 -6,-16 -11,-32 -17,-49 24,-37 48,-75 72,-113 -2,-4 -4,-9 -5,-13 -24,38 -48,75 -72,113 -28,-76 -59,-150 -94,-222 -4,-7 -8,-15 -12,-23 15,-39 32,-77 51,-115 -1,0 -1,0 -1,-1 -2,-3 -4,-6 -7,-9 -18,36 -35,74 -49,112 -18,-34 -36,-68 -56,-100 -20,-32 -42,-61 -70,-85 -4,1 -7,4 -10,6 0,0 0,0 1,0 39,33 67,78 92,123 12,23 25,46 36,69 -22,-11 -45,-21 -68,-31 -43,-17 -86,-32 -130,-46 -1,4 -2,8 -2,12 69,21 137,47 202,78 2,1 3,1 5,0 9,18 17,36 26,54 27,58 52,118 74,179 -27,-9 -55,-18 -83,-25z"/>
   <path class="fil2" d="M4361 3036c-110,131 -240,206 -393,222l41 409c6,158 139,289 352,403 213,-114 346,-245 352,-403l41 -409c-152,-16 -283,-91 -393,-222z"/>
   <path class="fil2" d="M4361 3036c-110,131 -240,206 -393,222l41 409c6,158 139,289 352,403 213,-114 346,-245 352,-403l41 -409c-152,-16 -283,-91 -393,-222z"/>
   <path class="fil2" d="M4706 3294l-10 93 -10 107 -16 159c-5,139 -122,254 -309,354 -133,-72 -230,-150 -277,-240 -15,-29 -25,-58 -30,-89 -1,-9 -1,-17 -2,-25l-35 -359c133,-13 248,-79 344,-194 96,115 211,181 345,194z"/>
   <path class="fil2" d="M4369 3237c-1,-2 -3,-3 -5,-3 -10,-4 -21,-2 -30,3 -6,3 -12,12 -6,18 3,2 6,3 9,3 8,2 17,2 26,-1 2,-1 5,-2 7,-4 3,-2 4,-5 4,-8 0,-3 -2,-6 -5,-8z"/>
   <path class="fil2" d="M4588 3340c0,-2 -1,-4 -2,-6 -5,-9 -14,-16 -24,-18 -7,-2 -17,0 -16,9 0,3 2,6 3,8 5,7 12,13 20,17 3,1 5,3 8,3 3,0 7,-1 9,-3 2,-3 3,-6 2,-10z"/>
   <path class="fil2" d="M4471 3304c-1,-1 -1,-2 -2,-3 -3,-3 -6,-5 -10,-6 -3,-1 -6,-1 -10,-1 -4,0 -11,4 -8,10 0,1 2,3 4,4 4,3 9,6 15,6 0,1 1,1 1,1 2,0 4,0 6,-1 2,0 4,-1 5,-3 1,-2 0,-5 -1,-7z"/>
   <path class="fil2" d="M4637 3429c-5,-4 -15,-7 -18,2 -1,3 -1,6 -1,9 2,9 6,17 11,24 2,2 4,4 7,5 3,2 6,2 9,1 3,-1 5,-4 6,-8 0,-2 1,-4 0,-6 0,-11 -6,-21 -14,-27z"/>
   <path class="fil2" d="M4649 3670c-1,-6 -6,-15 -14,-11 -3,1 -5,3 -7,6 -5,7 -8,16 -8,25 -1,2 0,6 0,8 1,3 3,6 6,7 3,1 7,0 10,-1 2,-2 4,-3 5,-5 7,-8 10,-18 8,-29z"/>
   <path class="fil2" d="M4627 3557c-2,-4 -7,-8 -12,-4 -1,2 -2,4 -3,6 -1,5 -1,12 0,17 1,2 2,4 3,6 1,1 3,3 5,3 2,0 5,-1 6,-3 1,-1 2,-3 2,-4 3,-7 2,-14 -1,-21z"/>
   <path class="fil2" d="M4462 3781c-2,-1 -4,-1 -5,-1 -5,1 -9,3 -13,5 -2,1 -3,3 -4,4 0,1 -1,3 0,5 0,1 2,3 4,3 1,0 2,1 3,1 6,0 11,-3 15,-7 3,-3 4,-9 0,-10z"/>
   <path class="fil2" d="M4574 3758c-2,0 -5,1 -8,2 -7,4 -13,9 -18,16 -1,2 -3,5 -3,7 -1,3 0,6 1,8 2,3 6,4 9,4 2,0 4,-1 6,-1 9,-4 16,-11 20,-19 2,-6 2,-16 -7,-17z"/>
   <path class="fil2" d="M4135 3350c2,2 5,3 8,3 3,0 6,-2 8,-3 8,-4 15,-10 20,-17 2,-2 3,-5 3,-8 1,-9 -9,-11 -16,-9 -10,2 -19,9 -24,18 0,2 -1,4 -2,6 0,4 0,7 3,10z"/>
   <path class="fil2" d="M4271 3294c-7,-1 -14,2 -19,7 -1,1 -2,2 -3,3 -1,2 -1,5 0,7 0,2 2,3 4,3 2,1 4,1 6,1 6,-1 12,-3 17,-7 1,-1 3,-3 4,-4 2,-6 -4,-10 -9,-10z"/>
   <path class="fil2" d="M4097 3469c3,1 5,1 8,-1 2,-1 3,-3 5,-4 5,-6 8,-13 9,-20 1,-3 1,-5 0,-7 -2,-8 -11,-5 -16,-2 -6,5 -11,13 -11,22 0,2 0,4 0,6 1,2 3,5 5,6z"/>
   <path class="fil2" d="M4094 3705c3,-1 5,-4 6,-7 1,-2 1,-6 1,-8 -1,-9 -4,-18 -9,-25 -2,-3 -4,-5 -6,-6 -8,-4 -14,5 -15,11 -1,11 2,21 9,29 1,2 3,3 4,5 4,1 7,2 10,1z"/>
   <path class="fil2" d="M4100 3585c2,0 4,-2 5,-3 2,-2 2,-4 3,-6 2,-5 2,-12 0,-17 -1,-2 -1,-4 -3,-6 -4,-4 -10,0 -12,4 -3,7 -4,14 -1,21 1,1 1,3 2,4 2,2 4,3 6,3z"/>
   <path class="fil2" d="M4271 3827c-1,-3 -3,-5 -5,-6 -6,-5 -14,-8 -21,-9 -3,0 -6,0 -8,1 -8,3 -5,12 -1,17 6,7 15,11 24,11 2,0 4,0 6,-1 3,-1 6,-3 7,-6 0,-2 0,-5 -2,-7z"/>
   <path class="fil2" d="M4187 3765c1,-1 1,-3 1,-5 0,-2 -1,-4 -3,-6 -3,-5 -7,-9 -13,-12 -2,-1 -4,-1 -6,-1 -6,0 -6,7 -5,12 3,6 9,12 15,14 2,1 3,1 5,1 2,0 4,-1 6,-3z"/>
   <path class="fil2" d="M4636 3644c-8,0 -15,5 -18,12 -24,-1 -47,-10 -67,-24 7,-19 12,-39 13,-59 5,-1 10,-2 15,-2 4,0 7,1 10,1 4,1 7,1 9,2 3,2 5,4 6,7 1,3 2,5 4,8 3,4 9,6 14,4 6,-2 10,-7 11,-12 3,-6 2,-14 1,-20 0,-5 -2,-11 -6,-15 -4,-4 -10,-5 -15,-3 -5,2 -9,7 -9,13 -13,3 -27,3 -39,1 -1,-22 -4,-43 -10,-62 8,-7 17,-13 27,-18 5,-2 9,-4 14,-5 4,-1 9,-2 14,-2 4,0 8,2 11,5 3,3 6,6 10,8 7,4 16,2 21,-3 7,-6 9,-15 8,-23 -1,-10 -6,-19 -11,-28 -4,-6 -10,-12 -18,-15 -8,-3 -16,0 -22,6 -5,5 -7,14 -4,21 -18,15 -38,24 -61,28 -9,-19 -20,-36 -34,-51 5,-13 12,-26 22,-36 3,-4 6,-7 10,-10 3,-3 7,-6 11,-8 5,-2 9,-2 13,0 4,1 8,3 12,3 8,1 16,-4 19,-11 3,-8 2,-17 -3,-25 -5,-8 -13,-15 -21,-20 -7,-4 -14,-7 -22,-7 -9,1 -16,7 -18,14 -3,8 -1,16 4,22 -10,22 -27,40 -48,53 -1,1 -2,1 -4,2 -8,-7 -18,-13 -28,-19 -6,-3 -12,-6 -19,-9 1,-8 3,-16 6,-24 2,-3 3,-6 5,-8 1,-3 3,-6 5,-8 2,-1 4,-2 6,-3 0,0 1,0 2,0 3,0 6,0 9,0 5,-1 9,-7 9,-12 1,-6 -2,-11 -7,-15 -4,-4 -9,-6 -14,-7 -1,-1 -3,-1 -4,-1 -5,-2 -11,-2 -16,0 -5,3 -8,8 -8,13 0,6 3,11 7,13 -2,16 -8,32 -19,45 -16,-6 -33,-9 -51,-10 -6,-14 -9,-29 -10,-44 0,-5 0,-10 0,-15 0,-4 1,-9 3,-13 2,-4 5,-7 9,-9 4,-2 8,-3 11,-6 7,-5 8,-14 5,-21 -3,-8 -10,-14 -18,-16 -10,-3 -20,-2 -30,0 -7,2 -15,5 -21,11 -5,6 -6,15 -3,23 3,7 11,11 19,11 7,23 8,49 2,72 -1,3 -2,5 -2,8 -12,1 -23,3 -34,6 -9,-12 -15,-27 -17,-42 5,-2 8,-7 8,-13 0,-5 -3,-10 -9,-13 -5,-2 -10,-2 -16,0 -6,1 -13,3 -18,8 -4,4 -7,9 -7,15 1,5 4,11 9,12 3,0 6,0 9,0 3,0 6,1 8,3 2,2 4,5 6,8 1,2 3,5 4,8 3,7 4,13 5,20 -18,7 -36,16 -52,28 -20,-12 -36,-30 -46,-51 5,-6 7,-14 5,-22 -3,-7 -10,-13 -18,-14 -8,0 -16,3 -22,7 -9,5 -17,12 -22,20 -4,8 -6,17 -2,25 3,7 10,12 18,11 4,0 8,-2 12,-3 5,-2 9,-2 13,0 4,2 8,4 11,8 4,3 7,6 11,10 7,8 13,18 18,28 -16,16 -29,34 -40,55 -13,-4 -26,-11 -37,-20 3,-6 2,-13 -3,-18 -5,-5 -12,-7 -19,-5 -6,3 -11,8 -14,13 -5,7 -9,15 -9,23 -1,7 1,14 6,19 5,4 12,6 18,3 3,-2 5,-5 8,-7 3,-3 6,-4 10,-4 3,0 7,1 11,2 4,1 7,2 11,4 4,2 8,4 11,6 -9,24 -15,50 -15,77 -9,1 -19,0 -28,-2 -1,-6 -4,-11 -9,-13 -5,-2 -11,-1 -16,3 -4,4 -5,10 -6,15 -1,6 -1,14 1,20 2,5 6,10 11,12 5,2 11,0 15,-4 1,-3 2,-5 3,-8 1,-3 3,-5 6,-7 3,-1 6,-1 9,-2 3,0 6,-1 10,-1 1,0 3,1 5,1 1,23 6,45 15,66 -18,10 -38,17 -58,18 -3,-7 -10,-12 -18,-12 -9,-1 -16,4 -20,11 -4,7 -3,16 -2,24 2,9 5,19 11,27 5,7 13,12 21,11 8,0 16,-5 18,-12 2,-4 1,-9 1,-13 1,-5 2,-9 5,-12 3,-3 8,-5 11,-7 5,-3 9,-4 14,-6 9,-3 18,-5 27,-6 9,15 20,29 32,42 -7,12 -16,23 -28,31 -4,-3 -10,-4 -14,-1 -5,2 -9,7 -8,13 0,5 3,10 6,14 5,6 10,11 16,13 6,2 12,2 17,-1 4,-2 7,-8 6,-13 -1,-3 -2,-6 -4,-8 -1,-3 -1,-6 -1,-9 1,-3 3,-6 4,-8 2,-3 4,-6 6,-8 4,-4 8,-8 12,-11 15,14 33,25 51,34 -2,18 -10,36 -21,51 -7,-2 -14,0 -19,5 -5,5 -6,13 -4,20 3,7 9,11 15,15 7,4 16,8 25,9 7,0 15,-3 20,-8 4,-6 5,-14 1,-20 -2,-3 -5,-5 -7,-8 -3,-3 -5,-6 -5,-10 -1,-4 0,-8 1,-12 1,-4 2,-8 4,-12 3,-8 7,-15 11,-22 17,6 35,10 54,11 3,10 4,22 4,32 0,5 0,10 -1,15 0,4 -1,9 -3,13 -2,4 -6,7 -10,8 -4,2 -8,3 -12,6 -6,4 -8,13 -6,21 3,8 10,14 18,17 9,3 20,3 29,1 8,-1 16,-4 22,-9 5,-6 7,-15 4,-23 -3,-7 -10,-12 -18,-13 -5,-22 -5,-46 1,-68 23,-2 45,-7 66,-15 1,2 2,4 3,7 1,2 1,5 2,7 1,2 1,5 1,7 0,3 -1,5 -3,7 -2,1 -4,3 -5,5 -2,3 -2,8 1,12 3,3 8,5 12,4 6,0 11,-2 16,-5 3,-2 7,-5 9,-9 1,-4 0,-9 -3,-12 -3,-3 -7,-4 -11,-3 -6,-8 -10,-16 -12,-25l0 0c18,-9 36,-20 51,-34 10,7 20,15 28,24 3,4 6,7 8,11 3,3 5,7 6,11 1,4 0,8 -2,12 -1,3 -4,6 -5,10 -1,8 3,15 9,19 6,4 15,4 22,1 8,-4 16,-10 21,-17 5,-6 9,-12 10,-20 0,-7 -4,-14 -11,-18 -6,-3 -14,-2 -20,2 -19,-13 -33,-31 -42,-51 -1,-2 -2,-4 -3,-7 8,-9 16,-20 22,-31 13,0 25,2 37,7 5,2 10,3 14,6 4,2 8,4 11,7 3,3 5,7 5,12 0,4 0,9 1,13 2,7 10,12 18,12 8,1 16,-4 22,-11 6,-8 9,-18 10,-27 2,-8 2,-17 -2,-24 -3,-7 -11,-12 -19,-11z"/>
   <path class="fil2" d="M4372 3853c-2,-2 -5,-3 -8,-4 -9,-3 -18,-3 -26,0 -3,0 -6,2 -8,3 -3,2 -4,5 -5,8 0,3 2,6 5,9 2,1 4,2 6,3 9,4 20,3 29,-1 7,-4 13,-12 7,-18z"/>
   <path class="fil2" d="M4391 3432c0,17 -14,30 -31,30 -17,0 -30,-13 -30,-30 0,-17 13,-31 30,-31 17,0 31,14 31,31z"/>
   <path class="fil2" d="M4388 3559c0,12 -9,22 -21,22 -11,0 -20,-10 -20,-22 0,-12 9,-22 20,-22 12,0 21,10 21,22z"/>
   <path class="fil2" d="M4469 3636c0,12 -9,22 -20,22 -12,0 -21,-10 -21,-22 0,-12 9,-21 21,-21 11,0 20,9 20,21z"/>
   <path class="fil2" d="M4278 3491c0,12 -9,22 -21,22 -11,0 -20,-10 -20,-22 0,-12 9,-21 20,-21 12,0 21,9 21,21z"/>
   <path class="fil2" d="M4215 3551c-2,6 -8,9 -13,7 -6,-1 -9,-7 -7,-13 2,-6 8,-9 13,-7 6,2 9,8 7,13z"/>
   <path class="fil2" d="M4501 3562c-2,6 -8,9 -14,7 -5,-2 -8,-8 -6,-13 2,-6 8,-9 13,-7 5,2 8,7 7,13z"/>
   <path class="fil2" d="M4290 3693c-2,6 -8,9 -13,7 -6,-2 -8,-8 -7,-13 2,-6 8,-9 14,-7 5,1 8,7 6,13z"/>
   <path class="fil2" d="M4438 3571c-2,6 -8,9 -13,7 -6,-1 -8,-7 -6,-13 1,-6 7,-9 13,-7 5,2 8,8 6,13z"/>
   <path class="fil2" d="M4398 3699c0,13 -18,24 -40,24 -21,0 -39,-11 -39,-24 0,-14 18,-25 39,-25 22,0 40,11 40,25z"/>
   <path class="fil2" d="M4498 3478c0,25 -18,46 -40,46 -22,0 -39,-21 -39,-46 0,-25 17,-46 39,-46 22,0 40,21 40,46z"/>
   <path class="fil2" d="M4290 3601c9,24 -2,49 -22,56 -21,7 -45,-6 -53,-30 -8,-24 2,-50 23,-57 20,-7 44,6 52,31z"/>
   <path class="fil2" d="M4655 3655c4,7 4,16 2,24 -1,9 -4,19 -10,27 -6,7 -14,12 -22,11 -8,0 -16,-5 -18,-12 -1,-4 -1,-9 -1,-13 0,-5 -2,-9 -5,-12 -3,-3 -7,-5 -11,-7 -4,-3 -9,-4 -14,-6 -12,-5 -24,-7 -37,-7 -6,11 -14,22 -22,31 1,3 2,5 3,7 9,20 23,38 42,51 6,-4 14,-5 20,-2 7,4 11,11 11,18 -1,8 -5,14 -10,20 -5,7 -13,13 -21,17 -7,3 -16,3 -22,-1 -6,-4 -10,-11 -9,-19 1,-4 4,-7 5,-10 2,-4 3,-8 2,-12 -1,-4 -3,-8 -6,-11 -2,-4 -5,-7 -8,-11 -8,-9 -18,-17 -28,-24 -15,14 -33,25 -51,34l0 0c2,9 6,17 12,25 4,-1 8,0 11,3 3,3 4,8 3,12 -2,4 -6,7 -9,9 -5,3 -10,5 -16,5 -4,1 -9,-1 -12,-4 -3,-4 -3,-9 -1,-12 1,-2 3,-4 5,-5 2,-2 3,-4 3,-7 0,-2 0,-5 -1,-7 -1,-2 -1,-5 -2,-7 -1,-3 -2,-5 -3,-7 -21,8 -43,13 -66,15 -6,22 -6,46 -1,68 8,1 15,6 18,13 3,8 1,17 -4,23 -6,5 -14,8 -22,9 -9,2 -20,2 -29,-1 -8,-3 -15,-9 -18,-17 -2,-8 0,-17 6,-21 4,-3 8,-4 12,-6 4,-1 8,-4 10,-8 2,-4 3,-9 3,-13 1,-5 1,-10 1,-15 0,-10 -1,-22 -4,-32 -19,-1 -37,-5 -54,-11 -4,7 -8,14 -11,22 -2,4 -3,8 -4,12 -1,4 -2,8 -1,12 0,4 2,7 5,10 2,3 5,5 7,8 4,6 3,14 -1,20 -5,5 -13,8 -20,8 -9,-1 -18,-5 -25,-9 -6,-4 -12,-8 -15,-15 -2,-7 -1,-15 4,-20 5,-5 12,-7 19,-5 11,-15 19,-33 21,-51 -22,-11 -43,-25 -60,-42 122,-36 188,-113 222,-200 9,-24 16,-49 21,-74 4,-19 7,-38 8,-57 10,6 20,12 28,19 1,-1 3,-1 4,-2 21,-13 38,-31 48,-53 -5,-6 -7,-14 -4,-22 2,-7 9,-13 18,-14 8,0 15,3 22,7 8,5 16,12 21,20 5,8 6,17 3,25 -3,7 -11,12 -19,11 -4,0 -8,-2 -12,-3 -4,-2 -8,-2 -13,0 -4,2 -8,5 -11,8 -4,3 -7,6 -10,10 -10,10 -17,23 -22,36 14,15 25,32 34,51 23,-4 43,-13 61,-28 -3,-7 -1,-16 4,-21 6,-6 14,-9 22,-6 8,3 14,9 18,15 5,9 10,18 11,28 1,8 -1,17 -8,23 -5,5 -14,7 -21,3 -4,-2 -7,-5 -10,-8 -3,-3 -7,-5 -11,-5 -5,0 -10,1 -14,2 -5,1 -9,3 -14,5 -10,5 -19,11 -27,18 6,19 9,40 10,62 12,2 26,2 39,-1 0,-6 4,-11 9,-13 5,-2 11,-1 15,3 4,4 6,10 6,15 1,6 2,14 -1,20 -1,5 -5,10 -11,12 -5,2 -11,0 -14,-4 -2,-3 -3,-5 -4,-8 -1,-3 -3,-5 -6,-7 -2,-1 -5,-1 -9,-2 -3,0 -6,-1 -10,-1 -5,0 -10,1 -15,2 -1,20 -6,40 -13,59 20,14 43,23 67,24 3,-7 10,-12 18,-12 8,-1 16,4 19,11z"/>
   <path class="fil2" d="M4731 3373l-11 116 -644 291c-17,-30 -27,-62 -32,-95l687 -312z"/>
   <path class="fil2" d="M4731 3373l-11 116 -644 291c-17,-30 -27,-62 -32,-95l687 -312z"/>
   <path class="fil2" d="M4731 3373l-11 116 -644 291c-17,-30 -27,-62 -32,-95l687 -312z"/>
   <path class="fil3" d="M5893 5224c-26,25 -57,36 -90,36l-120 -494 -9 -39 -12 -48 -27 -359c32,8 62,21 89,40 42,30 76,72 93,123 1,4 3,9 4,14 20,72 39,149 56,230 23,110 44,228 63,351 8,53 -7,109 -47,146z"/>
   <path class="fil4" d="M5060 5374c12,-79 26,-149 42,-208l-72 -735c4,-40 20,-66 113,-104 69,-28 142,-42 216,-42 28,0 56,2 85,7l197 29c12,2 21,11 22,23l25 234c9,85 8,170 -3,254 -11,79 -22,168 -20,184l29 358 -634 0z"/>
   <path class="fil5" d="M5322 4621l-132 0c-11,0 -20,-9 -20,-20l0 0c0,-11 9,-19 20,-19l132 0c11,0 20,8 20,19l0 0c0,11 -9,20 -20,20z"/>
   <path class="fil3" d="M5262 4291l0 2c2,77 128,175 128,175 0,0 79,-100 80,-175l-37 -3 -36 -4 -22 0 -4 0c-12,0 -25,0 -38,0 -11,0 -22,1 -33,2 -13,0 -26,2 -38,3z"/>
   <path class="fil3" d="M5300 4317c1,28 17,53 42,66 6,3 13,5 20,6 39,6 77,-26 74,-69l0 -1 0 -2 -1 -3 -2 -20 -4 -49c-1,-6 -4,-10 -9,-13l-45 -21 -30 -19 -46 -27 -2 -1 1 12 2 94 0 22 0 25z"/>
   <path class="fil6" d="M5329 4185c-1,61 44,117 107,135l0 -1 0 -2 -1 -3 -2 -20 -4 -49c-1,-6 -4,-10 -9,-13l-45 -21 -30 -19 -16 -7z"/>
   <path class="fil3" d="M5543 4109c-4,23 -12,50 -28,76 -30,49 -90,74 -146,57 -28,-9 -61,-27 -99,-60 0,0 -41,-34 -59,-93 0,0 -60,3 -58,-59 0,0 2,-62 51,-41 -1,-3 -36,-122 33,-159 0,0 96,-82 205,-11 18,12 34,28 46,45 19,26 43,66 43,102 0,0 -3,30 7,64 4,15 6,30 7,45 0,11 0,22 -2,34z"/>
   <path class="fil6" d="M5443 4097c7,1 13,0 19,-3 3,-1 5,-3 8,-5 0,-1 1,-1 1,-2 0,0 0,0 0,0 0,-2 -2,-4 -3,-5 -7,-13 -16,-24 -25,-35 -2,-3 -3,-6 -1,-9 2,-1 7,-2 8,0 7,7 12,15 17,22 3,4 5,7 8,11 2,4 5,8 7,12 3,9 -6,16 -13,20 -8,4 -17,6 -25,6 -4,-1 -6,-3 -6,-6 0,-3 2,-6 5,-6z"/>
   <path class="fil7" d="M5545 4075c-10,-4 -21,-6 -31,-7 -65,-9 -130,-4 -194,9 -7,2 -14,4 -20,5 -1,0 -2,0 -2,0 -27,-28 -54,-55 -87,-76 -3,-3 -7,3 -3,5 28,18 52,41 75,65 3,3 6,6 9,9 1,1 2,2 4,3 1,5 1,9 1,14 0,25 -15,49 -24,72 -1,3 -2,5 -3,8 38,33 71,51 99,60 56,17 116,-8 146,-57 16,-26 24,-53 28,-76 2,-12 2,-23 2,-34z"/>
   <path class="fil7" d="M5517 4104c-62,-11 -127,-10 -189,2 -4,0 -3,6 1,6 62,-12 125,-13 187,-1 4,0 5,-6 1,-7z"/>
   <path class="fil7" d="M5464 4147c-39,1 -77,-2 -116,-7 -4,-1 -5,5 -1,6 39,5 78,8 117,7 4,0 4,-6 0,-6z"/>
   <path class="fil7" d="M5489 4182c-48,7 -97,4 -145,-7 -4,-1 -5,5 -1,6 48,12 98,14 148,7 4,-1 2,-7 -2,-6z"/>
   <path class="fil8" d="M5163 3975c0,3 1,5 2,8 4,8 11,15 19,20 1,1 2,2 3,2 6,4 12,8 17,14 1,2 2,5 3,7 1,5 2,11 2,16 0,17 -2,34 4,50 2,4 4,9 7,13 1,1 2,2 3,4 0,0 1,1 1,1 0,0 0,0 0,0l0 0c5,5 10,9 16,12 6,3 12,4 19,3 6,-1 11,-3 16,-6 13,-9 14,-23 14,-37 0,-3 0,-6 0,-9 0,0 0,0 0,0 3,-25 16,-46 29,-67 7,-12 13,-24 18,-37 2,-8 3,-17 3,-25 1,-7 1,-15 1,-23 0,-8 2,-17 6,-25 2,-4 7,-12 13,-10 2,1 4,2 5,3 10,9 6,29 6,41 0,14 4,28 15,36 10,8 23,10 35,5 12,-5 18,-18 17,-31 -1,-8 -4,-16 -7,-23 -3,-7 -7,-14 -9,-22 0,-4 0,-15 8,-13 1,1 2,2 3,3 2,1 3,4 4,6 1,5 2,10 3,13 3,7 8,13 13,17 3,2 6,3 9,5 18,9 46,11 52,35 1,1 1,3 2,5 0,0 0,0 0,0 1,5 2,9 3,14 0,0 0,0 0,0l0 0c2,5 5,9 9,13l0 0c5,3 10,4 15,4 5,-1 11,-3 16,-7 0,-1 1,-2 2,-2 9,-11 10,-26 8,-39 3,-8 5,-17 4,-25 -1,-54 -39,-107 -85,-133 -28,-16 -60,-23 -92,-24 -32,-1 -65,1 -97,8 -29,6 -58,19 -80,40 -22,20 -35,47 -44,75 -5,15 -9,29 -11,44 -2,14 -3,28 0,41z"/>
   <polygon class="fil7" points="5567,5147 5781,5207 6004,4794 5935,4798 5777,4808 5707,4813 "/>
   <path class="fil3" d="M5607 4968l29 -5c8,-1 13,7 9,14l-7 12 58 29c14,8 24,22 24,39l1 88c0,0 44,24 113,-34 43,32 52,77 32,133 0,0 -80,62 -221,-37l-91 -60c-12,-8 -20,-22 -20,-37l0 -48c0,-11 4,-21 11,-30l39 -50c6,-7 14,-12 23,-14z"/>
   <path class="fil3" d="M5630 4992c-7,-5 -12,1 -13,6 -1,9 5,18 10,24 13,14 29,24 45,34 7,4 1,15 -6,11 -21,-13 -44,-26 -56,-48 -6,-10 -8,-23 -1,-33 7,-10 21,-12 30,-3 5,6 -4,15 -9,9z"/>
   <path class="fil7" d="M5816 4894c38,17 86,-9 109,-59 5,-12 8,-25 10,-37l-158 10c-5,38 10,73 39,86z"/>
   <path class="fil4" d="M5877 4727l-203 0 -12 -48 -27 -359c32,8 62,21 89,40 42,30 76,72 93,123 1,4 3,9 4,14 20,72 39,149 56,230z"/>
   <path class="fil4" d="M5693 4542c-1,-25 -3,-51 -5,-76 0,-4 -7,-4 -7,0 8,89 10,179 6,268 -1,26 -2,51 -4,76 0,5 7,5 7,0 7,-89 8,-179 3,-268z"/>
   <path class="fil3" d="M5131 4654l-77 314 -4 15 -4 16 -46 189 -10 41 -36 145 -143 0c9,-95 19,-187 30,-274 22,-181 49,-343 84,-468l0 0c28,-100 61,-177 101,-225 24,-29 50,-46 80,-51l25 298z"/>
   <path class="fil4" d="M5131 4332c0,0 -231,47 -270,501 78,45 155,68 231,67l84 -229 -45 -339z"/>
   <path class="fil4" d="M5130 4565c0,-4 -7,-4 -6,0 5,88 -9,177 -39,260 -8,24 -18,47 -29,69 -2,3 3,7 5,3 40,-80 63,-167 69,-256 1,-26 1,-51 0,-76z"/>
   <path class="fil4" d="M5377 4497c-51,-35 -93,-81 -123,-133 -9,-15 -17,-31 -23,-47 -2,-4 -8,-2 -7,2 24,57 61,109 108,151 13,11 27,22 41,32 4,3 7,-3 4,-5z"/>
   <path class="fil4" d="M5478 4341c-11,54 -36,104 -73,145 -3,3 1,7 4,4 38,-41 64,-92 75,-148 1,-3 -6,-5 -6,-1z"/>
   <path class="fil8" d="M4806 4258c8,-7 17,-11 25,-18 13,-13 22,-36 26,-61 4,-24 3,-50 -1,-74 -7,-56 -26,-106 -45,-154 -15,-39 -32,-78 -54,-108 -22,-30 -50,-51 -79,-48 -38,3 -70,44 -92,91 -18,39 -32,82 -49,124 -16,40 -28,86 -28,135 0,38 10,78 31,97 8,7 17,11 24,18 8,7 16,18 17,32 1,15 -5,30 -13,39 -8,10 -16,16 -24,26 -19,23 -26,69 -16,103 11,34 41,51 62,33 1,34 15,65 35,78 20,12 44,5 59,-18 16,23 39,30 59,18 20,-13 34,-44 35,-77 21,16 50,1 61,-32 12,-33 5,-78 -13,-102 -7,-10 -17,-17 -25,-27 -8,-11 -15,-26 -13,-42 1,-15 9,-26 17,-33 1,0 1,0 1,0z"/>
   <path class="fil9" d="M4814 4391c27,51 103,37 111,-20l0 -5c6,-20 8,-39 7,-59l-2 -21 0 -4 -1 -67 -138 -15 2 56c0,10 0,20 1,30 1,3 1,14 1,27 0,3 0,6 0,9 1,24 8,47 19,69z"/>
   <path class="fil10" d="M4800 4322c21,3 42,2 64,-4 0,0 0,0 0,0 40,-11 66,-49 66,-90l-1 -13 -138 -15 2 56c0,10 0,20 1,30 1,3 1,16 1,29 2,3 3,5 5,7z"/>
   <path class="fil9" d="M5078 3968c-8,-1 -17,2 -26,8 -13,-54 -43,-111 -79,-150 -15,-19 -32,-32 -51,-39 -10,-5 -20,-8 -30,-8 -7,-1 -14,-1 -21,-1 -6,0 -13,1 -20,2 -10,1 -20,4 -30,9 -18,8 -35,22 -49,42 -35,40 -62,98 -73,153 -9,-5 -18,-8 -26,-7 -27,2 -35,45 -27,78 11,41 42,53 71,60 14,27 33,53 55,75 23,26 53,45 86,53 1,0 2,0 3,0 2,0 4,1 6,1 1,0 2,0 4,1 1,0 2,0 3,0 2,0 5,0 8,0 2,0 5,0 7,-1 2,0 3,0 4,0 1,0 2,0 4,0 2,-1 3,-1 5,-2 1,0 2,0 3,-1 33,-8 62,-29 84,-56 21,-22 39,-49 52,-77 28,-9 59,-22 67,-64 7,-32 -3,-75 -30,-76z"/>
   <path class="fil8" d="M4613 3920c15,3 31,-4 42,-15 11,-11 18,-25 26,-38 15,-27 33,-53 59,-71 17,-12 36,-19 55,-27 40,-16 82,-31 124,-23 40,9 72,39 103,66 31,27 67,54 109,54 -18,2 -36,5 -54,7 35,24 59,67 52,109 -3,26 -18,50 -28,75 -9,26 -12,57 5,78 -12,-4 -23,-13 -28,-25 3,22 -5,45 -21,60 -15,16 -38,24 -60,22 15,-8 22,-26 22,-42 -1,-17 -6,-33 -9,-49 -2,-15 -3,-31 4,-44 -4,7 -12,11 -20,11 23,-32 27,-75 13,-111 -41,-15 -77,-43 -102,-78 11,28 0,62 -25,78 -8,-36 -21,-71 -38,-103 5,23 -11,46 -29,63 -17,16 -39,30 -50,51 -12,21 -8,53 14,62 -15,8 -35,1 -43,-14 14,27 18,59 11,88 -1,8 -4,15 -3,23 1,8 6,16 14,17 -9,1 -18,-2 -24,-9 10,10 13,27 8,40 -6,14 -20,23 -34,24 12,-8 12,-27 4,-39 -8,-12 -21,-20 -32,-29 -28,-23 -47,-57 -51,-92 -4,-36 6,-73 28,-101 -15,4 -33,-4 -42,-18z"/>
   <path class="fil10" d="M4937 4094c-2,-5 -6,-10 -9,-14 -4,-5 -7,-11 -10,-17 -5,-11 -8,-24 -10,-36 0,-4 -4,-6 -7,-5 -4,0 -5,3 -5,7 2,21 10,41 23,59 4,6 12,14 5,21 -7,7 -19,5 -29,4 -8,-1 -9,12 -1,13 13,1 25,2 35,-5 9,-6 12,-17 8,-27z"/>
   <path class="fil10" d="M4837 4133c20,17 48,24 73,17 7,-2 10,9 3,11 -30,8 -62,0 -84,-20 -6,-5 3,-13 8,-8z"/>
   <path class="fil8" d="M5221 5125l0 249 -675 0c26,-117 62,-223 108,-293l-230 -596 324 -222 126 44 119 -44 163 72 65 790z"/>
   <path class="fil7" d="M5221 5125l0 249 -675 0c26,-117 62,-223 108,-293l-230 -596 324 -222 126 44 119 -44 163 72 65 790z"/>
   <path class="fil7" d="M4946 4865c-75,1 -150,2 -225,2 -7,0 -7,11 0,11 75,-1 150,-1 225,-2 7,0 7,-11 0,-11z"/>
   <path class="fil7" d="M4857 4713l-189 0c-3,0 -5,2 -6,4 0,1 -1,3 -1,5l0 54c0,2 1,4 3,5 1,3 3,5 6,5l181 0c1,0 2,0 3,-1 4,0 7,-2 7,-6l0 -55c3,-3 2,-11 -4,-11zm-8 61l-175 0 0 -48 175 0 0 48z"/>
   <path class="fil4" d="M4720 4656l-14 0c-5,0 -9,4 -9,9l0 48 32 0 0 -48c0,-5 -4,-9 -9,-9z"/>
   <path class="fil8" d="M4753 4656l-14 0c-6,0 -10,4 -10,9l0 48 33 0 0 -48c0,-5 -4,-9 -9,-9z"/>
   <path class="fil4" d="M4785 4656l-14 0c-5,0 -9,4 -9,9l0 48 33 0 0 -48c0,-5 -5,-9 -10,-9z"/>
   <path class="fil8" d="M4818 4656l-14 0c-5,0 -9,4 -9,9l0 48 32 0 0 -48c0,-5 -4,-9 -9,-9z"/>
   <path class="fil7" d="M5050 5152c-4,-128 -19,-256 -55,-379 -16,-57 -35,-114 -57,-169 -12,-31 -25,-62 -39,-93 -2,-5 -9,-6 -13,-3 -4,2 -5,8 -3,12 48,107 87,219 115,333 39,158 39,326 31,488 0,4 0,8 -1,12 0,7 0,14 -1,21l19 0c4,-74 5,-148 4,-222z"/>
   <path class="fil7" d="M4424 4485c-23,29 -28,87 -5,188 27,118 31,541 172,541 0,0 146,27 498,-261l-91 -100 -355 109 -47 -212c-13,-60 -1,-94 -44,-137l-128 -128z"/>
   <path class="fil7" d="M4944 5063c0,0 395,67 431,-86 2,-9 2,-18 1,-27 -7,-56 -41,-298 -117,-526 0,0 -17,-51 -103,-89l31 541 -243 187z"/>
   <path class="fil9" d="M5016 4872l73 81 98 -77c-85,-90 -171,-4 -171,-4z"/>
   <path class="fil7" d="M5289 4897c-24,-24 -60,-34 -93,-27 17,-34 46,-63 83,-77 5,-2 3,-11 -3,-9 -40,16 -74,48 -91,88 -1,1 -1,1 -1,2 0,0 0,0 0,0 -5,2 -3,11 3,9 32,-13 71,-4 95,21 4,4 11,-2 7,-7z"/>
   <path class="fil7" d="M4657 4947c-20,-73 -39,-147 -60,-221 -8,-32 -18,-64 -33,-94 -15,-29 -60,-104 -105,-122 -5,-3 -9,4 -4,8 53,35 65,53 96,110 16,29 27,61 36,94 9,34 18,69 28,104 11,41 22,82 33,124 1,5 10,3 9,-3z"/>
   <path class="fil9" d="M4639 4858c0,0 -94,-13 -126,-28 -7,-3 -15,0 -18,7 -2,5 -2,12 6,21 6,8 15,13 24,16l24 8c0,0 77,18 90,-24z"/>
   <path class="fil9" d="M4716 4872l26 60 -97 27c0,0 -100,88 -160,78 -8,-1 -10,-13 -4,-18 2,-2 5,-5 9,-8 0,0 -9,12 -20,12 -6,0 -9,-6 -6,-10l12 -16c0,0 -10,10 -19,11 -5,0 -8,-5 -6,-9 13,-20 58,-90 114,-130 0,0 35,-29 151,3z"/>
   <path class="fil7" d="M4994 4851c-71,25 -142,50 -213,75 -6,3 -3,13 4,11 71,-25 142,-50 213,-75 6,-3 3,-13 -4,-11z"/>
   <path class="fil11" d="M4564 4938c-28,26 -56,51 -84,77 -5,4 1,11 6,7 28,-26 56,-51 84,-77 4,-4 -2,-11 -6,-7z"/>
   <path class="fil11" d="M4550 4911c-30,29 -58,59 -84,91 -4,4 4,10 7,5 26,-31 53,-61 82,-88 5,-4 -1,-11 -5,-8z"/>
   <path class="fil7" d="M5211 5062c-88,13 -178,11 -265,-4 0,-1 -1,0 -1,0 11,-9 23,-17 34,-26 34,-25 67,-52 100,-79 4,-4 -2,-10 -7,-6 -56,48 -116,93 -177,134 -61,41 -124,82 -194,106 -40,13 -82,21 -125,20 -6,0 -6,9 0,9 76,2 149,-24 214,-59 52,-29 102,-62 151,-96 -1,2 -1,5 2,5 90,16 181,17 270,5 6,-1 4,-10 -2,-9z"/>
   <path class="fil7" d="M5180 4561c-14,-25 -30,-48 -47,-72 -2,-4 -8,-6 -12,-3 -5,3 -7,9 -4,13 28,40 57,81 75,126 8,22 14,45 16,69 2,26 -2,51 -9,77 -7,29 -19,57 -30,85 -2,5 2,10 6,12 6,1 10,-2 12,-7 21,-50 42,-102 40,-158 -1,-51 -21,-99 -47,-142z"/>
   <polygon class="fil4" points="4968,4261 4936,4261 4874,4302 4811,4261 4779,4261 4813,4381 4874,4474 4934,4381 "/>
   <path class="fil7" d="M4928 4307l-1 4 -54 148 -61 -148 0 -3c-1,-38 -27,-71 -65,-79l-5 -1 0 66 44 180 165 0 40 -180 0 -66c-37,9 -63,41 -63,79z"/>
   <path class="fil4" d="M5095 4312c-30,-25 -66,-42 -104,-51l0 11c40,9 78,28 107,57 38,35 59,88 50,140 -1,6 8,9 9,3 11,-61 -16,-121 -62,-160z"/>
   <path class="fil8" d="M5079 4519l0 181c0,3 1,4 2,5 0,0 0,0 1,0 12,9 24,17 37,26 0,1 0,1 0,1 -1,3 -1,6 0,8 2,4 4,6 7,9 5,3 12,4 17,0 3,-3 4,-7 3,-10 -1,-4 -4,-7 -6,-9 -2,-3 -5,-5 -8,-6 -3,-1 -5,-1 -7,-1l-36 -25 0 -177c22,-16 44,-32 66,-48 5,-3 0,-12 -5,-8 -22,16 -45,32 -67,48 -1,1 -1,2 -2,2 -1,1 -2,2 -2,4z"/>
   <path class="fil8" d="M5225 4515c0,0 -1,-1 -1,-2 -23,-16 -45,-32 -68,-48 -5,-4 -10,5 -5,8 23,16 45,32 67,48l0 177 -36 25c-2,0 -5,0 -7,1 -3,1 -6,3 -8,6 -3,2 -5,5 -6,9 -2,3 -1,7 2,10 5,4 13,3 18,0 3,-3 5,-5 6,-9 1,-2 2,-5 0,-8 1,0 1,0 1,-1 12,-9 25,-17 37,-26l0 0c2,-1 3,-2 3,-5l0 -181c0,-2 -1,-3 -3,-4z"/>
   <path class="fil4" d="M4564 4627c-1,7 10,7 10,0 8,-67 -4,-137 16,-203 15,-48 49,-90 91,-117 20,-12 41,-21 62,-27l0 -11c-28,7 -55,20 -79,37 -43,31 -75,77 -88,129 -15,63 -5,128 -12,192z"/>
   <path class="fil8" d="M4538 4637c0,17 14,30 30,30 17,0 30,-13 30,-30 0,-16 -13,-29 -30,-29 -16,0 -30,13 -30,29z"/>
   <path class="fil4" d="M4547 4637c0,12 10,21 21,21 12,0 21,-9 21,-21 0,-11 -9,-21 -21,-21 -11,0 -21,10 -21,21z"/>
   <path class="fil7" d="M4739 4268c0,30 -1,61 -1,91 0,6 9,6 9,0 1,-30 1,-61 2,-91 0,-7 -10,-7 -10,0z"/>
   <path class="fil7" d="M4982 4257c-1,30 -1,61 -2,91 0,6 10,6 10,0 0,-30 1,-61 1,-91 0,-6 -9,-6 -9,0z"/>
   <path class="fil7" d="M3489 4266l-2 -72c-1,-15 -17,-25 -31,-17l-82 49c-62,36 -108,95 -128,164l44 87 199 -211z"/>
   <path class="fil7" d="M3683 5374c-6,-99 -9,-199 -9,-298 0,-120 4,-239 12,-358 4,-67 5,-122 1,-150 -20,-126 -93,-223 -146,-279 -33,-33 -58,-52 -58,-52 0,0 -147,41 -222,127 0,0 -1,0 -1,1 -15,17 -32,43 -50,73 -19,30 -38,65 -56,99 -61,118 -86,252 -71,385l2 23c3,28 23,287 23,287l-21 142 596 0z"/>
   <path class="fil3" d="M3320 4407c27,-5 51,-14 75,-27 58,-33 108,-81 131,-105 -21,-21 -37,-34 -42,-37 -7,2 -30,8 -58,19 -3,2 -6,3 -9,4 -27,11 -59,26 -88,45 -2,2 -5,5 -7,7 -13,27 -20,52 -24,71 -3,14 9,26 22,23z"/>
   <path class="fil3" d="M3483 4288c1,29 -16,56 -43,71 -8,3 -15,6 -23,8 -45,8 -90,-22 -89,-68l0 -1 0 -1 1 -4 1 -20 2 -52c0,-6 4,-11 9,-14l50 -25 34 -20 50 -32 2 -1 0 13 4 97 1 23 1 26z"/>
   <path class="fil6" d="M3443 4152c3,65 -44,125 -115,147l0 -1 0 -1 1 -4 1 -20 2 -52c0,-6 4,-11 9,-14l50 -25 34 -20 18 -10z"/>
   <path class="fil3" d="M3618 3984c0,0 -6,-69 -57,-42 0,0 33,-135 -45,-172 0,0 -108,-84 -220,0 -19,14 -35,32 -48,52 -17,29 -41,75 -39,115 0,0 5,32 -3,71 -6,28 -7,57 -1,86 5,25 15,54 34,82 36,53 102,76 161,53 29,-11 64,-33 102,-71 0,0 42,-40 57,-106 0,0 66,0 59,-68z"/>
   <path class="fil6" d="M3394 4124c-20,19 -49,25 -76,18 -7,-2 -10,10 -3,12 31,8 65,0 88,-22 6,-5 -3,-13 -9,-8z"/>
   <path class="fil6" d="M3310 4099c-7,0 -14,0 -20,-3 -3,-1 -7,-3 -9,-5 -1,0 -2,-1 -2,-2 0,1 0,0 0,0 1,-2 2,-4 3,-6 7,-14 16,-28 25,-40 2,-3 3,-6 0,-9 -2,-2 -6,-2 -9,0 -5,8 -11,17 -16,25 -3,4 -5,8 -8,13 -2,4 -5,9 -6,13 -3,11 7,18 15,21 8,4 18,6 27,5 3,0 6,-3 6,-6 0,-4 -3,-7 -6,-6z"/>
   <path class="fil9" d="M3149 3825c6,-29 32,-53 62,-56 12,-52 68,-91 121,-83 39,-28 91,-37 138,-25 20,5 41,18 43,38 31,4 60,17 84,39 7,6 14,14 17,24 3,9 0,21 -7,27 29,10 53,34 65,63 4,9 7,19 4,29 -2,9 -10,18 -20,19 17,17 26,42 23,66 -3,24 -17,47 -38,60 15,18 14,47 -1,65 -15,18 -43,25 -64,14 -1,18 -6,37 -20,49 -14,11 -38,12 -49,-3 -20,-4 -37,-20 -42,-40 -6,-20 1,-43 17,-57 -26,-36 -29,-87 -10,-127 -6,6 -68,24 -79,-35 -11,16 -31,25 -50,22 -19,-2 -35,-17 -41,-35 -2,16 -13,29 -28,34 -15,4 -32,-1 -42,-13 9,18 -1,44 -20,52 5,21 1,44 -10,62 -18,-9 -29,-27 -34,-46 -5,-19 -6,-39 -9,-58 -5,-29 -17,-57 -10,-85z"/>
   <path class="fil7" d="M3541 4289l-3 -71c0,-16 -17,-25 -31,-17l-82 48c-62,37 -107,95 -128,164l44 88 200 -212z"/>
   <path class="fil7" d="M3253 4507c4,-10 8,-20 12,-30 7,-28 11,-57 12,-86 0,-5 7,-5 7,0 -1,19 -3,39 -6,58 7,-15 15,-30 23,-45 1,-2 4,-2 5,-1 0,-1 1,-2 2,-2 56,-20 110,-46 161,-76 14,-9 29,-18 43,-27 4,-2 7,4 3,6 -50,33 -103,62 -158,85 -15,7 -31,13 -47,19 -1,0 -2,0 -3,0 0,0 0,0 0,0 -13,23 -24,46 -35,70 -1,6 -3,11 -4,16 0,2 -2,3 -4,3 -1,4 -3,7 -4,12 -2,4 -9,2 -7,-2z"/>
   <polygon class="fil4" points="3280,5277 2831,5315 2731,4707 2829,4698 3083,4673 3173,4665 "/>
   <path class="fil4" d="M3078 4743c-25,67 -98,101 -165,76 -52,-19 -85,-68 -84,-121l254 -25c4,23 3,47 -5,70z"/>
   <path class="fil7" d="M3604 4944l-228 2 33 186 274 -22c18,3 34,1 49,-4l0 0c30,-10 55,-34 66,-64 6,-19 8,-40 2,-62l-58 -227 -47 -180c-13,-47 -30,-93 -52,-137l-170 171 88 225 43 112 0 0 0 0z"/>
   <polygon class="fil3" points="3208,4947 3219,5057 3268,5062 3271,5063 3399,5077 3376,4946 3284,4946 3279,4946 "/>
   <polygon class="fil12" points="3208,4947 3219,5057 3268,5062 3271,5063 3399,5077 3376,4946 3284,4946 3279,4946 "/>
   <path class="fil3" d="M3240 5039c7,-3 13,-11 12,-19 -1,-9 -9,-15 -17,-16 7,0 13,-7 14,-14 0,-5 -8,-14 -13,-17 4,-8 9,-15 4,-23 -5,-7 -14,-12 -23,-13 -9,-1 -19,1 -28,2 -34,6 -69,11 -103,19 -5,1 -10,2 -14,5 -4,3 -7,9 -5,13 1,7 8,9 14,10 -7,1 -14,7 -14,14 0,7 6,12 12,13 -4,2 -7,6 -8,11 0,7 6,14 13,16 6,2 12,1 17,-1 -4,4 -6,10 -3,16 3,6 10,10 17,13 31,15 67,23 100,15 11,-2 22,-7 28,-15 6,-9 6,-23 -3,-29z"/>
   <path class="fil12" d="M3188 4968c-37,6 -73,11 -110,16 -4,1 -4,7 0,6 37,-4 73,-9 110,-15 4,-1 4,-7 0,-7z"/>
   <path class="fil12" d="M3195 4998c-39,8 -78,13 -117,13 -4,0 -4,7 0,7 40,-1 79,-6 118,-14 5,0 3,-7 -1,-6z"/>
   <path class="fil12" d="M3194 5032c-30,7 -62,9 -93,5 -4,0 -5,6 -1,6 32,4 64,3 96,-4 4,-2 2,-8 -2,-7z"/>
   <path class="fil3" d="M2717 5036c-8,-3 -13,-12 -12,-20 1,-8 9,-15 17,-15 -7,-1 -13,-7 -14,-14 -1,-6 8,-14 13,-17 -4,-8 -10,-16 -5,-23 5,-8 15,-12 24,-13 9,-1 19,0 28,2 34,5 69,11 103,19 4,1 9,2 14,5 4,3 6,8 5,13 -1,6 -8,9 -15,10 8,0 15,7 14,14 0,6 -5,11 -11,13 4,2 7,6 7,10 1,8 -5,14 -12,17 -6,1 -12,1 -18,-1 5,3 6,10 4,15 -3,7 -10,11 -17,14 -31,15 -67,22 -101,15 -10,-3 -21,-7 -27,-16 -7,-9 -6,-23 3,-28z"/>
   <path class="fil12" d="M2769 4965c37,6 73,11 110,16 4,0 4,6 0,6 -37,-5 -74,-10 -110,-16 -4,0 -4,-7 0,-6z"/>
   <path class="fil12" d="M2762 4995c38,8 78,12 117,13 4,0 4,6 0,6 -40,0 -80,-5 -119,-13 -4,-1 -2,-7 2,-6z"/>
   <path class="fil12" d="M2763 5029c30,7 62,9 93,5 4,-1 5,5 1,6 -32,4 -65,2 -96,-5 -4,-1 -2,-7 2,-6z"/>
   <path class="fil7" d="M3493 4540c26,97 53,193 79,290 8,27 15,54 23,81 1,5 -6,6 -7,2 -27,-97 -53,-193 -79,-290 -8,-27 -16,-54 -23,-82 -1,-4 6,-5 7,-1z"/>
   <path class="fil10" d="M3506 3936c4,-8 16,-1 12,7 -13,27 -15,58 -6,87 2,8 -11,12 -14,3 -10,-32 -7,-67 8,-97z"/>
   <path class="fil10" d="M3554 4064c12,-2 23,-7 30,-17 7,-11 9,-25 5,-37 -3,-9 11,-12 13,-4 5,16 3,34 -6,48 -9,13 -23,21 -38,24 -4,0 -7,-1 -8,-5 -1,-4 1,-8 4,-9z"/>
   <path class="fil10" d="M3515 4072c4,-1 7,1 9,5 2,7 4,14 6,21 1,4 -1,8 -5,9 -4,1 -8,-1 -9,-5 -2,-7 -4,-14 -6,-22 -1,-3 1,-7 5,-8z"/>
   <path class="fil10" d="M3236 3849c3,-3 7,-3 10,0 8,7 17,15 25,23 3,3 3,7 0,10 -3,3 -7,3 -10,0 -8,-8 -17,-16 -25,-23 -3,-3 -3,-8 0,-10z"/>
   <path class="fil10" d="M3186 3880c0,-4 3,-7 7,-7 3,0 7,3 7,7 -1,20 1,41 5,60 2,9 -11,13 -13,4 -5,-21 -7,-42 -6,-64z"/>
   <path class="fil10" d="M3318 3843c3,-2 8,-1 9,3 10,16 20,30 34,42 3,3 3,8 0,10 -3,3 -7,3 -10,0 -14,-13 -26,-28 -36,-45 -1,-4 0,-8 3,-10z"/>
   <path class="fil10" d="M3414 3851c4,-1 8,2 9,5 7,20 21,38 37,50 3,2 5,6 3,10 -2,3 -7,4 -10,2 -20,-14 -35,-35 -43,-58 -2,-3 1,-7 4,-9z"/>
   <path class="fil10" d="M3549 3982c10,-28 13,-59 8,-88 -1,-4 1,-8 5,-9 3,-1 8,1 8,5 6,32 3,65 -8,95 -3,9 -16,5 -13,-3z"/>
   <path class="fil10" d="M3174 3821c5,-8 12,-15 20,-18 3,-2 7,-1 9,2 2,3 1,8 -2,10 -2,1 -3,1 -5,2 0,0 -1,1 -1,1 0,0 0,0 -1,0 0,1 0,1 0,1 -1,0 -1,1 -1,1 -2,1 -3,2 -4,4 0,0 0,0 0,0 0,0 -1,1 -1,1 0,1 -1,1 -1,2 -1,1 -1,2 -1,3 -1,0 -1,0 -1,1 0,0 0,0 0,0 -1,1 -1,3 -2,5 0,0 0,1 0,1 0,0 0,0 0,0 0,0 0,0 0,0 0,1 0,1 0,1 0,0 0,1 0,2 0,1 0,2 0,3 0,0 0,0 0,1 0,0 0,2 0,0 0,4 -1,8 -5,9 -3,1 -8,-1 -9,-5 -1,-10 1,-19 5,-27z"/>
   <path class="fil10" d="M3477 3832c2,-3 7,-3 10,0 12,14 21,32 25,51 0,3 -1,7 -5,8 -4,1 -8,-1 -9,-5 -1,-8 -4,-16 -8,-23 -3,-8 -8,-15 -13,-21 -3,-3 -3,-7 0,-10z"/>
   <path class="fil7" d="M3450 4630l-210 0c-3,0 -5,2 -6,5 -1,1 -2,3 -2,5l0 60c0,3 2,5 4,6 1,3 3,5 7,5l200 0c2,0 3,0 4,-1 4,0 8,-2 8,-7l0 -61c3,-3 2,-12 -5,-12zm-9 67l-195 0 0 -53 195 0 0 53z"/>
   <path class="fil4" d="M3299 4567l-18 0c-5,0 -9,4 -9,9l0 54 36 0 0 -54c0,-5 -4,-9 -9,-9z"/>
   <path class="fil8" d="M3335 4567l-18 0c-5,0 -9,4 -9,9l0 54 36 0 0 -54c0,-5 -4,-9 -9,-9z"/>
   <path class="fil4" d="M3371 4567l-17 0c-5,0 -10,4 -10,9l0 54 37 0 0 -54c0,-5 -4,-9 -10,-9z"/>
   <path class="fil8" d="M3408 4567l-18 0c-5,0 -9,4 -9,9l0 54 36 0 0 -54c0,-5 -4,-9 -9,-9z"/>
   <path class="fil3" d="M4207 4019c-50,-48 -36,-142 -77,-200 -30,-43 -84,-54 -131,-51 -75,4 -186,36 -225,116 -16,34 -22,72 -32,109 -10,36 -25,73 -53,95 17,1 35,-6 49,-19 -26,41 -32,96 -14,141 6,17 15,32 21,49 6,16 9,35 3,52 13,-13 21,-30 24,-49 13,41 49,72 89,73 9,-20 24,-37 42,-47 -1,32 27,61 56,59 -5,-23 -1,-49 10,-70 21,11 33,37 31,62 41,-27 67,-80 66,-132 13,47 62,79 106,69 -19,-12 -40,-28 -41,-52 -1,-17 10,-32 18,-47 28,-52 36,-117 20,-175 9,12 24,18 38,17z"/>
   <path class="fil4" d="M3702 5374c16,-161 51,-279 115,-334l374 -44c72,98 112,227 130,378l-619 0z"/>
   <path class="fil9" d="M3813 4948l-135 266 -45 87 -38 73 -89 0 40 -134 26 -88 74 -253c-2,-42 -1,-91 3,-142 9,-107 28,-224 42,-299 5,-23 15,-45 30,-63 16,-19 37,-33 61,-41l2 41 19 362 10 191z"/>
   <path class="fil4" d="M3803 4757l-154 0c9,-107 28,-224 42,-299 5,-23 15,-45 30,-63l63 0 19 362z"/>
   <path class="fil4" d="M4313 4426c-39,201 -116,386 -208,582l-288 32 -72 -255 -41 -55c-21,-27 -29,-62 -21,-96l10 -48c2,-8 3,-15 3,-23 0,-10 -2,-20 -5,-30 -21,-71 11,-146 77,-178 19,-9 38,-17 57,-23 100,-32 190,-27 190,-27 45,3 85,9 120,18 87,23 144,59 168,77 8,6 12,16 10,26z"/>
   <path class="fil5" d="M4142 4659l-133 0c-11,0 -20,-9 -20,-20l0 0c0,-11 9,-20 20,-20l133 0c11,0 20,9 20,20l0 0c0,11 -9,20 -20,20z"/>
   <path class="fil4" d="M3918 4555c-35,-47 -66,-96 -91,-149 -8,-15 -14,-30 -21,-45 -2,-4 -8,-2 -7,2 23,54 51,106 84,155 9,13 19,27 29,40 3,4 9,0 6,-3z"/>
   <path class="fil4" d="M4153 4336c-51,57 -105,112 -162,165 -16,15 -33,30 -50,44 -3,3 1,9 4,6 59,-51 115,-105 168,-162 15,-16 30,-32 45,-49 3,-3 -3,-8 -5,-4z"/>
   <path class="fil9" d="M4135 4323c-45,41 -210,200 -210,200 0,0 -65,-122 -100,-191 100,-32 190,-27 190,-27 45,3 85,9 120,18z"/>
   <path class="fil9" d="M4026 4143l0 180c0,27 -11,52 -30,66 -46,35 -106,-3 -106,-66l0 -180 136 0z"/>
   <path class="fil10" d="M4027 4146l0 44c-12,56 -46,128 -136,140l0 -184 136 0z"/>
   <path class="fil9" d="M3783 4060c2,-23 4,-45 5,-68 1,-32 20,-65 38,-93 12,-17 26,-33 43,-45 46,-33 114,-40 165,-20 73,29 81,101 63,166 46,-23 49,35 49,35 3,59 -54,60 -54,60 -16,56 -53,92 -53,92 -35,33 -67,52 -93,62 -52,20 -109,0 -139,-45 -25,-37 -31,-80 -27,-124 1,-7 2,-14 3,-20z"/>
   <path class="fil10" d="M3850 4116c2,-5 6,-9 9,-12 3,-5 6,-10 9,-15 5,-9 8,-20 9,-31 1,-3 4,-5 7,-4 3,0 4,3 4,6 -2,18 -10,36 -21,51 -5,5 -11,12 -5,18 6,7 16,5 24,5 7,-1 8,10 1,11 -11,1 -22,1 -31,-6 -7,-5 -10,-15 -6,-23z"/>
   <path class="fil10" d="M3957 4145c-18,18 -44,27 -68,23 -7,-1 -9,10 -2,11 28,4 58,-7 78,-28 5,-5 -4,-12 -8,-6z"/>
   <path class="fil4" d="M3822 5044c-21,-78 -42,-157 -65,-235 -5,-17 -10,-33 -20,-48 -9,-12 -19,-22 -29,-33 -10,-11 -20,-23 -24,-38 -5,-14 -3,-30 0,-44 8,-32 25,-65 14,-99 -1,-5 -11,-3 -9,3 10,30 -5,60 -12,88 -4,14 -7,29 -5,44 2,14 8,27 17,38 9,12 20,22 29,33 12,14 20,28 26,44 6,19 11,38 16,57 5,20 11,39 16,59 13,44 25,89 37,133 2,6 11,4 9,-2z"/>
   <polygon class="fil7" points="4504,5109 4137,5281 3864,4798 3944,4759 4151,4660 4225,4625 "/>
   <path class="fil7" d="M4168 4720c0,64 -51,116 -115,116 -50,0 -93,-32 -109,-77l207 -99c11,18 17,38 17,60z"/>
   <path class="fil13" d="M4181 5048l-43 10 -43 -89 60 -23c17,23 30,56 26,102z"/>
   <path class="fil9" d="M4150 5037c6,-5 8,-14 4,-21 -3,-6 -12,-10 -19,-7 6,-3 9,-10 8,-16 -2,-5 -11,-10 -16,-11 1,-8 3,-16 -4,-21 -6,-5 -16,-5 -24,-3 -8,2 -15,6 -23,10 -27,15 -54,31 -81,48 -4,2 -7,5 -10,8 -2,4 -3,9 -1,13 4,5 10,5 16,4 -6,2 -10,10 -8,16 3,5 8,8 14,8 -3,3 -4,7 -3,11 2,6 9,10 16,9 5,0 10,-2 14,-5 -2,4 -2,10 2,14 5,4 12,6 18,6 32,3 64,-2 90,-19 8,-5 16,-12 19,-21 2,-10 -3,-21 -12,-23z"/>
   <path class="fil10" d="M4084 4993c-29,16 -58,32 -88,47 -3,2 -1,7 2,5 30,-15 59,-31 88,-47 4,-1 1,-7 -2,-5z"/>
   <path class="fil10" d="M4099 5016c-30,19 -61,34 -94,47 -4,2 -2,7 2,5 33,-12 65,-29 96,-47 3,-2 -1,-7 -4,-5z"/>
   <path class="fil10" d="M4109 5045c-23,15 -49,26 -77,33 -3,1 -2,6 1,6 28,-7 55,-18 80,-34 3,-2 -1,-7 -4,-5z"/>
   <path class="fil9" d="M4622 4867c0,28 -12,56 -35,74l0 0c-11,9 -25,15 -40,19l-364 87 -2 1 -43 10 -43 -89 60 -23 4 -1 270 -101 0 0 0 0 -72 -82 -144 -163 91 -196c32,29 61,63 86,99l96 138 120 173c11,17 16,35 16,54z"/>
   <path class="fil4" d="M4486 4640c-44,41 -92,88 -129,122l-144 -163 91 -196c32,29 61,63 86,99l96 138z"/>
   <path class="fil4" d="M4273 4662c-34,-35 -67,-70 -101,-105 -4,-4 -11,2 -7,6 34,36 68,71 101,106 5,4 11,-2 7,-7z"/>
   <path class="fil3" d="M4110 3868c-29,-46 -81,-76 -135,-74 -50,2 -96,31 -132,66 -17,15 -32,33 -42,53 -11,20 -17,43 -15,65l-10 47c37,-27 68,-63 92,-102 -3,23 11,48 32,57 22,-26 36,-57 41,-90 -2,24 17,45 35,62 17,17 37,36 38,61 1,25 -19,47 -20,72 -2,27 19,53 45,56 -7,-8 -5,-22 1,-31 7,-9 17,-15 28,-19 10,-5 21,-8 31,-15 17,-12 26,-33 32,-53 14,-52 8,-110 -21,-155z"/>
   <path class="fil14" d="M4054 3973c-10,-29 -37,-46 -56,-70 -12,-14 -21,-33 -17,-51 0,-5 -7,-7 -7,-2 -6,32 17,57 38,78 11,11 22,22 30,35 7,13 10,28 10,42 -1,17 -7,33 -17,46 -2,3 4,7 6,3 18,-22 22,-54 13,-81z"/>
   <path class="fil14" d="M4097 3945c-2,-27 -14,-52 -33,-71 -4,-3 -8,2 -5,5 18,17 29,41 31,66 2,26 -6,52 -22,72 -3,4 2,9 5,5 17,-22 27,-49 24,-77z"/>
   <path class="fil14" d="M4048 3911c-21,-12 -26,-38 -30,-60 -1,-4 -7,-2 -7,2 4,24 11,51 33,64 4,3 8,-4 4,-6z"/>
   <path class="fil14" d="M4081 3829c-3,-4 -8,1 -5,5 32,39 45,91 36,141 -1,4 6,6 7,2 9,-52 -5,-107 -38,-148z"/>
   <path class="fil14" d="M3931 3854c-5,25 -16,49 -32,70 -3,4 2,9 4,5 17,-21 29,-47 35,-73 1,-5 -6,-7 -7,-2z"/>
   <path class="fil14" d="M3897 3835c-15,28 -19,59 -11,89 1,5 8,3 7,-2 -8,-28 -4,-58 10,-83 2,-4 -4,-8 -6,-4z"/>
   <path class="fil14" d="M3834 3910c-16,28 -35,53 -56,77 -3,3 2,8 5,5 22,-24 41,-50 57,-78 3,-4 -4,-8 -6,-4z"/>
   <path class="fil14" d="M3811 3866c-28,22 -45,56 -48,91 0,5 7,5 7,0 3,-34 20,-65 46,-86 4,-3 -1,-8 -5,-5z"/>
   <path class="fil14" d="M3758 4171c-10,-33 -2,-68 7,-100 1,-5 -6,-7 -7,-2 -9,32 -16,66 -8,99 7,29 29,54 31,85 1,4 8,4 8,0 -2,-30 -23,-54 -31,-82z"/>
   <path class="fil14" d="M3846 4279c-21,-8 -37,-28 -39,-50 0,-5 -7,-5 -7,0 2,25 20,48 44,57 4,1 6,-6 2,-7z"/>
   <path class="fil14" d="M3871 4286c-3,-10 -6,-19 -10,-27 -1,-2 -4,-3 -5,-2 -2,1 -2,4 -1,5 4,8 7,17 9,26 1,2 3,3 5,2 1,0 3,-2 2,-4z"/>
   <path class="fil14" d="M3745 4213c-7,-24 -11,-49 -11,-75 0,-4 -7,-4 -7,0 0,26 4,52 11,77 2,5 8,3 7,-2z"/>
   <path class="fil14" d="M4144 4096c-6,43 -36,80 -36,125 0,4 7,4 7,0 0,-44 30,-80 36,-123 1,-4 -6,-6 -7,-2z"/>
   <path class="fil14" d="M4097 4126c-9,18 -14,38 -13,58 0,4 7,4 7,0 -1,-19 3,-38 12,-55 2,-4 -4,-7 -6,-3z"/>
   <path class="fil14" d="M4049 4222c0,-2 -2,-4 -3,-4 -2,0 -4,2 -4,4 0,9 0,17 1,26 0,1 1,3 3,3 2,0 4,-2 4,-3 -1,-9 -1,-17 -1,-26z"/>
   <path class="fil8" d="M5733 5401l-2743 0c-8,0 -14,-6 -14,-13l0 -1c0,-7 6,-13 14,-13l2743 0c7,0 13,6 13,13l0 1c0,7 -6,13 -13,13z"/>
  </g>
 </g>
</svg>
